M48
INCH,TZ
T01C.008
T02C.019685
T03C.021654
T04C.038
T05C.062
T06C.021654
;LEADER: 12 
;HEADER: 
;CODE  : ASCII 
;FILE  : EPTS_PERFANL_B_V0_2-1-2.drl for board #Taaaaaf27084.tmp ... layers TOP and BOTTOM
;T01 Holesize 1. = 8.000000 Tolerance = +0.000000/-0.000000 PLATED MILS Quantity = 277
;T02 Holesize 2. = 19.685000 Tolerance = +0.000000/-0.000000 PLATED MILS Quantity = 2
;T03 Holesize 3. = 21.654000 Tolerance = +0.000000/-0.000000 PLATED MILS Quantity = 2
;T04 Holesize 4. = 38.000000 Tolerance = +0.000000/-0.000000 PLATED MILS Quantity = 4
;T05 Holesize 5. = 62.000000 Tolerance = +0.000000/-0.000000 PLATED MILS Quantity = 4
;T06 Holesize 6. = 21.654000 Tolerance = +0.000000/-0.000000 NON_PLATED MILS Quantity = 2
%
G90
T01
X19200Y-9900
X18000Y-15100
X18400Y-22700
X18200Y-33200
X16900Y-50500
X17700Y-60100
X9200Y-86400
X11400Y-101129
X7800Y-122500
X18400Y-126000
X10000Y-129300
X7100Y-132800
X6700Y-136600
X16000Y-147900
X19100Y-150900
X6700Y-162200
X6200Y-184000
X6300Y-188000
X13211Y-190550
X16800Y-216900
X9900Y-224000
X18800Y-225000
X39500Y-217400
X35900Y-209800
X27500Y-206500
X29400Y-200700
X36100Y-190700
X30759Y-171300
X35600Y-168800
X22100Y-151200
X35700Y-150800
X33500Y-144800
X32500Y-140800
X34300Y-137000
X36300Y-135000
X37100Y-119400
X29400Y-106100
X36400Y-102000
X28800Y-82600
X23800Y-73400
X36400Y-66200
X27400Y-60800
X26200Y-52100
X22500Y-45700
X30300Y-42500
X20400Y-40800
X38400Y-35900
X27200Y-35300
X23600Y-34000
X32100Y-29000
X23800Y-28200
X39200Y-23200
X28000Y-22900
X21700Y-18500
X32800Y-18300
X28900Y-10200
X40900Y-8100
X49829Y-8671
X49902Y-13198
X43000Y-15200
X50709Y-25009
X45500Y-28800
X50954Y-28946
X45900Y-35800
X50920Y-36820
X48800Y-64000
X50100Y-71500
X46200Y-71800
X44200Y-84100
X40800Y-87000
X58100Y-90500
X42700Y-90700
X54500Y-90800
X42700Y-99200
X50300Y-114700
X46200Y-126400
X48100Y-128300
X40700Y-130100
X40900Y-132900
X48800Y-138200
X59000Y-138900
X50700Y-142700
X49900Y-148600
X55000Y-153200
X53500Y-161400
X56000Y-162900
X56050Y-167100
X56050Y-179650
X51700Y-180400
X51600Y-183400
X48800Y-190900
X50400Y-199000
X56200Y-203400
X58400Y-208700
X55400Y-209900
X45100Y-213100
X50000Y-213300
X58500Y-213500
X53900Y-219300
X54400Y-227100
X54000Y-236000
X70500Y-228600
X73200Y-218100
X68100Y-213819
X61200Y-208400
X66200Y-206500
X71000Y-197800
X78100Y-186300
X65900Y-182400
X73800Y-181900
X67600Y-179900
X62700Y-179100
X76900Y-170500
X79500Y-169200
X72600Y-149300
X75300Y-149300
X78700Y-147900
X77400Y-140300
X69500Y-138800
X64200Y-138700
X75000Y-138700
X65750Y-95600
X65750Y-91400
X79500Y-90950
X69094Y-89394
X74700Y-81600
X60100Y-70400
X69500Y-69000
X64200Y-68400
X66223Y-63277
X97629Y-8671
X97302Y-13198
X96272Y-21972
X97343Y-40757
X97406Y-44694
X80800Y-51700
X91200Y-62000
X84400Y-76700
X84300Y-85800
X82100Y-93300
X94300Y-93600
X97900Y-101500
X80905Y-102952
X95100Y-103200
X97700Y-105600
X81000Y-109700
X97500Y-109900
X80800Y-113300
X80500Y-116100
X86900Y-116600
X92400Y-118100
X89250Y-119150
X80900Y-120750
X90000Y-123700
X94200Y-124000
X90900Y-134681
X94521Y-135900
X91900Y-138900
X89500Y-141200
X83300Y-146800
X81400Y-149500
X90300Y-154100
X86000Y-157200
X84900Y-162500
X96000Y-166100
X82700Y-168300
X85900Y-169600
X82700Y-170800
X97000Y-171200
X94200Y-174300
X95100Y-180200
X92000Y-182300
X95100Y-184100
X80100Y-185200
X89300Y-206800
X93100Y-215300
X83100Y-215600
X87500Y-219100
X81100Y-220400
X94500Y-227300
X96500Y-229200
X89200Y-229500
X94500Y-237800
X101500Y-238800
X105900Y-238800
X109200Y-235100
X115900Y-217500
X114300Y-215200
X106400Y-207859
X107700Y-204200
X115100Y-196200
X101100Y-192900
X116600Y-183200
X113900Y-177300
X115000Y-174000
X112900Y-171900
X115500Y-135900
X115600Y-130100
X106950Y-128550
X117394Y-116990
X100700Y-102400
X100800Y-99000
X113300Y-91200
X104800Y-87800
X107700Y-79700
X107900Y-70600
X114700Y-68900
X117800Y-56900
X102100Y-56100
X111100Y-53600
X103500Y-47600
X113271Y-43571
X108300Y-15600
X119000Y-10300
X107400Y-8100
X135500Y-13600
X127500Y-15800
X133500Y-24700
X122600Y-36600
X129900Y-42800
X122000Y-49800
X130700Y-52900
X125000Y-58100
X129500Y-63600
X126500Y-80900
X126700Y-86600
X133400Y-88700
X133300Y-91500
X137400Y-94000
X132000Y-97400
X126300Y-97600
X124900Y-100000
X128800Y-102400
X131900Y-102700
X135400Y-103500
X137000Y-110700
X124500Y-122800
X136200Y-124500
X120100Y-130100
X120100Y-135100
X134100Y-137800
X132200Y-139700
X124500Y-148800
X126400Y-150800
X135900Y-172300
X125000Y-173300
X132900Y-173900
X123100Y-187100
X127800Y-188200
X131200Y-188900
X134900Y-189000
X131700Y-193900
X122300Y-195900
X127900Y-201200
X130650Y-201550
X131600Y-204100
X120350Y-204450
X134800Y-207100
X134600Y-210400
X133330Y-215700
X125200Y-216499
X134600Y-229900
X123600Y-232400
X120500Y-232500
X142900Y-189000
X141300Y-184000
X144400Y-184000
X140600Y-164000
X144300Y-163700
X142800Y-150300
X142700Y-143600
X142900Y-139200
X140100Y-84800
X142400Y-75300
X142900Y-49900
X141900Y-33800
X140300Y-23900
T02
X60121Y-234900
X87679Y-234900
T03
X64058Y-224270
X83742Y-224270
T04
X12300Y-228300
X12300Y-218300
X140300Y-65300
X140300Y-55300
T05
X7300Y-238600
X142800Y-237400
X142200Y-7100
X7000Y-7100
T06
X122047Y-235826
X122047Y-228740
M30
