M48
INCH,TZ
T01C.008
T02C.019685
T03C.021654
T04C.038
T05C.062
T06C.021654
;LEADER: 12 
;HEADER: 
;CODE  : ASCII 
;FILE  : EPTS_PERFANL_B_V0_2-1-2.drl for board #Taaaaab27700.tmp ... layers TOP and BOTTOM
;T01 Holesize 1. = 8.000000 Tolerance = +0.000000/-0.000000 PLATED MILS Quantity = 277
;T02 Holesize 2. = 19.685000 Tolerance = +0.000000/-0.000000 PLATED MILS Quantity = 2
;T03 Holesize 3. = 21.654000 Tolerance = +0.000000/-0.000000 PLATED MILS Quantity = 2
;T04 Holesize 4. = 38.000000 Tolerance = +0.000000/-0.000000 PLATED MILS Quantity = 4
;T05 Holesize 5. = 62.000000 Tolerance = +0.000000/-0.000000 PLATED MILS Quantity = 4
;T06 Holesize 6. = 21.654000 Tolerance = +0.000000/-0.000000 NON_PLATED MILS Quantity = 2
%
G90
T01
X1920Y-990
X1800Y-1510
X1840Y-2270
X1820Y-3320
X1690Y-5050
X1770Y-6010
X920Y-8640
X1140Y-10113
X780Y-12250
X1840Y-12600
X1000Y-12930
X710Y-13280
X670Y-13660
X1600Y-14790
X1910Y-15090
X670Y-16220
X620Y-18400
X630Y-18800
X1321Y-19055
X1680Y-21690
X990Y-22400
X1880Y-22500
X3950Y-21740
X3590Y-20980
X2750Y-20650
X2940Y-20070
X3610Y-19070
X3076Y-17130
X3560Y-16880
X2210Y-15120
X3570Y-15080
X3350Y-14480
X3250Y-14080
X3430Y-13700
X3630Y-13500
X3710Y-11940
X2940Y-10610
X3640Y-10200
X2880Y-8260
X2380Y-7340
X3640Y-6620
X2740Y-6080
X2620Y-5210
X2250Y-4570
X3030Y-4250
X2040Y-4080
X3840Y-3590
X2720Y-3530
X2360Y-3400
X3210Y-2900
X2380Y-2820
X3920Y-2320
X2800Y-2290
X2170Y-1850
X3280Y-1830
X2890Y-1020
X4090Y-810
X4983Y-867
X4990Y-1320
X4300Y-1520
X5071Y-2501
X4550Y-2880
X5095Y-2895
X4590Y-3580
X5092Y-3682
X4880Y-6400
X5010Y-7150
X4620Y-7180
X4420Y-8410
X4080Y-8700
X5810Y-9050
X4270Y-9070
X5450Y-9080
X4270Y-9920
X5030Y-11470
X4620Y-12640
X4810Y-12830
X4070Y-13010
X4090Y-13290
X4880Y-13820
X5900Y-13890
X5070Y-14270
X4990Y-14860
X5500Y-15320
X5350Y-16140
X5600Y-16290
X5605Y-16710
X5605Y-17965
X5170Y-18040
X5160Y-18340
X4880Y-19090
X5040Y-19900
X5620Y-20340
X5840Y-20870
X5540Y-20990
X4510Y-21310
X5000Y-21330
X5850Y-21350
X5390Y-21930
X5440Y-22710
X5400Y-23600
X7050Y-22860
X7320Y-21810
X6810Y-21382
X6120Y-20840
X6620Y-20650
X7100Y-19780
X7810Y-18630
X6590Y-18240
X7380Y-18190
X6760Y-17990
X6270Y-17910
X7690Y-17050
X7950Y-16920
X7260Y-14930
X7530Y-14930
X7870Y-14790
X7740Y-14030
X6950Y-13880
X6420Y-13870
X7500Y-13870
X6575Y-9560
X6575Y-9140
X7950Y-9095
X6909Y-8939
X7470Y-8160
X6010Y-7040
X6950Y-6900
X6420Y-6840
X6622Y-6328
X9763Y-867
X9730Y-1320
X9627Y-2197
X9734Y-4076
X9741Y-4469
X8080Y-5170
X9120Y-6200
X8440Y-7670
X8430Y-8580
X8210Y-9330
X9430Y-9360
X9790Y-10150
X8091Y-10295
X9510Y-10320
X9770Y-10560
X8100Y-10970
X9750Y-10990
X8080Y-11330
X8050Y-11610
X8690Y-11660
X9240Y-11810
X8925Y-11915
X8090Y-12075
X9000Y-12370
X9420Y-12400
X9090Y-13468
X9452Y-13590
X9190Y-13890
X8950Y-14120
X8330Y-14680
X8140Y-14950
X9030Y-15410
X8600Y-15720
X8490Y-16250
X9600Y-16610
X8270Y-16830
X8590Y-16960
X8270Y-17080
X9700Y-17120
X9420Y-17430
X9510Y-18020
X9200Y-18230
X9510Y-18410
X8010Y-18520
X8930Y-20680
X9310Y-21530
X8310Y-21560
X8750Y-21910
X8110Y-22040
X9450Y-22730
X9650Y-22920
X8920Y-22950
X9450Y-23780
X10150Y-23880
X10590Y-23880
X10920Y-23510
X11590Y-21750
X11430Y-21520
X10640Y-20786
X10770Y-20420
X11510Y-19620
X10110Y-19290
X11660Y-18320
X11390Y-17730
X11500Y-17400
X11290Y-17190
X11550Y-13590
X11560Y-13010
X10695Y-12855
X11739Y-11699
X10070Y-10240
X10080Y-9900
X11330Y-9120
X10480Y-8780
X10770Y-7970
X10790Y-7060
X11470Y-6890
X11780Y-5690
X10210Y-5610
X11110Y-5360
X10350Y-4760
X11327Y-4357
X10830Y-1560
X11900Y-1030
X10740Y-810
X13550Y-1360
X12750Y-1580
X13350Y-2470
X12260Y-3660
X12990Y-4280
X12200Y-4980
X13070Y-5290
X12500Y-5810
X12950Y-6360
X12650Y-8090
X12670Y-8660
X13340Y-8870
X13330Y-9150
X13740Y-9400
X13200Y-9740
X12630Y-9760
X12490Y-10000
X12880Y-10240
X13190Y-10270
X13540Y-10350
X13700Y-11070
X12450Y-12280
X13620Y-12450
X12010Y-13010
X12010Y-13510
X13410Y-13780
X13220Y-13970
X12450Y-14880
X12640Y-15080
X13590Y-17230
X12500Y-17330
X13290Y-17390
X12310Y-18710
X12780Y-18820
X13120Y-18890
X13490Y-18900
X13170Y-19390
X12230Y-19590
X12790Y-20120
X13065Y-20155
X13160Y-20410
X12035Y-20445
X13480Y-20710
X13460Y-21040
X13333Y-21570
X12520Y-21650
X13460Y-22990
X12360Y-23240
X12050Y-23250
X14290Y-18900
X14130Y-18400
X14440Y-18400
X14060Y-16400
X14430Y-16370
X14280Y-15030
X14270Y-14360
X14290Y-13920
X14010Y-8480
X14240Y-7530
X14290Y-4990
X14190Y-3380
X14030Y-2390
T02
X6012Y-23490
X8768Y-23490
T03
X6406Y-22427
X8374Y-22427
T04
X1230Y-22830
X1230Y-21830
X14030Y-6530
X14030Y-5530
T05
X730Y-23860
X14280Y-23740
X14220Y-710
X700Y-710
T06
X12205Y-23583
X12205Y-22874
M30
