G04 ================== begin FILE IDENTIFICATION RECORD ==================*
G04 Layout Name:  EPTS_PERFANL_B_V0_2.brd*
G04 Film Name:    PERFANL-B-V0-2-BOTTOM*
G04 File Format:  Gerber RS274X*
G04 File Origin:  Cadence Allegro 17.2-P019*
G04 Origin Date:  Sun Jun 30 20:04:02 2019*
G04 *
G04 Layer:  VIA CLASS/BOTTOM*
G04 Layer:  PIN/BOTTOM*
G04 Layer:  ETCH/BOTTOM*
G04 *
G04 Offset:    (0.000 0.000)*
G04 Mirror:    No*
G04 Mode:      Positive*
G04 Rotation:  0*
G04 FullContactRelief:  No*
G04 UndefLineWidth:     1.000*
G04 ================== end FILE IDENTIFICATION RECORD ====================*
%FSLAX25Y25*MOIN*%
%IR0*IPPOS*OFA0.00000B0.00000*MIA0B0*SFA1.00000B1.00000*%
%ADD22R,.027559X.027559*%
%ADD35R,.051181X.110236*%
%ADD30O,.007874X.019685*%
%ADD34O,.019685X.007874*%
%ADD31R,.007874X.019685*%
%ADD17R,.04X.05*%
%ADD13R,.033X.028*%
%ADD20R,.028X.033*%
%ADD28R,.053X.037*%
%ADD15O,.094X.025*%
%ADD21R,.037X.053*%
%ADD18O,.030512X.061024*%
%ADD14R,.094X.025*%
%ADD12C,.016*%
%ADD11C,.062*%
%ADD16R,.037X.067*%
%ADD23R,.032X.032*%
%ADD10C,.077*%
%ADD33R,.055118X.011811*%
%ADD25O,.025591X.011811*%
%ADD32C,.021657*%
%ADD19O,.051181X.025591*%
%ADD36O,.051181X.031496*%
%ADD37R,.051181X.047244*%
%ADD24R,.059055X.035433*%
%ADD27R,.03937X.047244*%
%ADD29O,.027559X.047244*%
%ADD26R,.062992X.074803*%
%ADD38C,.008*%
%ADD40C,.036004*%
%ADD39C,.082004*%
%ADD41C,.041662*%
G75*
%LPD*%
G75*
G36*
G01X7019Y-233758D02*
G03X5243Y-234208I281J-4842D01*
G02X4704Y-233999I-170J362D01*
G02X3954Y-230740I9233J3841D01*
G02X4636Y-230434I399J23D01*
G01X7278Y-233076D01*
G02X7019Y-233758I-283J-283D01*
G37*
G36*
G01X116000Y-231697D02*
Y-236797D01*
X118677Y-239475D01*
G02X118394Y-240157I-283J-283D01*
G01X13937D01*
G02X12384Y-240036I0J10000D01*
G02X12054Y-239562I62J395D01*
G03X12128Y-238138I-4754J962D01*
G02X12526Y-237700I398J38D01*
G01X19197D01*
X20700Y-236197D01*
Y-225203D01*
X20599Y-225102D01*
X20600Y-225018D01*
G03X18170Y-226686I-1800J18D01*
G01X18300Y-226735D01*
Y-235203D01*
X18203Y-235300D01*
X12897D01*
X7780Y-230183D01*
G02X8063Y-229500I283J283D01*
G01X8379D01*
G03X8411Y-227000I3921J1200D01*
G01X6997D01*
X6800Y-226803D01*
Y-215863D01*
G02X7483Y-215580I400J0D01*
G01X8103Y-216200D01*
X13897D01*
X16000Y-214097D01*
Y-205897D01*
X17297Y-204600D01*
X17786D01*
X17808Y-204775D01*
G03X18800Y-205650I992J125D01*
G01X28200D01*
G03X29200Y-204650I0J1000D01*
G01Y-202150D01*
G03X28200Y-201150I-1000J0D01*
G01X18800D01*
G03X17808Y-202025I0J-1000D01*
G01X17786Y-202200D01*
X16303D01*
X13600Y-204903D01*
Y-213103D01*
X12903Y-213800D01*
X9097D01*
X8698Y-213401D01*
G02X8839Y-213059I141J141D01*
G01X11750D01*
G03X12750Y-212059I0J1000D01*
G01Y-204141D01*
G03X12723Y-203909I-1000J0D01*
G01X12697Y-203800D01*
X16897Y-199600D01*
X18147D01*
G03X20050Y-200650I1903J1200D01*
G01X26950D01*
G03Y-196150I0J2250D01*
G01X20050D01*
G03X18147Y-197200I0J-2250D01*
G01X15903D01*
X9962Y-203141D01*
X8400D01*
Y-200459D01*
X11650D01*
G03X12650Y-199459I0J1000D01*
G01Y-194600D01*
X18147D01*
G03X20050Y-195650I1903J1200D01*
G01X26950D01*
G03Y-191150I0J2250D01*
G01X20050D01*
G03X18147Y-192200I0J-2250D01*
G01X12650D01*
Y-191541D01*
G03X11650Y-190541I-1000J0D01*
G01X8350D01*
G03X7350Y-191541I0J-1000D01*
G01Y-197512D01*
X7142Y-197720D01*
G02X6800Y-197579I-141J141D01*
G01Y-189735D01*
X6930Y-189686D01*
G03X7248Y-189530I-630J1686D01*
G01X7272Y-189516D01*
X7379Y-189484D01*
X7522Y-189546D01*
X7549Y-189572D01*
G03X8250Y-189859I701J713D01*
G01X11550D01*
G03X12222Y-189600I0J1000D01*
G01X18147D01*
G03X20050Y-190650I1903J1200D01*
G01X26950D01*
G03Y-186150I0J2250D01*
G01X20050D01*
G03X18147Y-187200I0J-2250D01*
G01X12550D01*
Y-184600D01*
X18147D01*
G03X20050Y-185650I1903J1200D01*
G01X26950D01*
G03Y-181150I0J2250D01*
G01X20050D01*
G03X18147Y-182200I0J-2250D01*
G01X12550D01*
Y-180941D01*
G03X11550Y-179941I-1000J0D01*
G01X8250D01*
G03X7250Y-180941I0J-1000D01*
G01Y-185870D01*
G02X6750Y-186257I-400J0D01*
G03X5727Y-186293I-450J-1743D01*
G02X5200Y-185914I-127J379D01*
G01Y-133297D01*
X8800Y-129697D01*
Y-123997D01*
G03X6400Y-123631I-1000J1497D01*
G01Y-128703D01*
X4620Y-130483D01*
G02X3937Y-130200I-283J283D01*
G01Y-13937D01*
G02X4197Y-11672I10000J0D01*
G02X4770Y-11407I390J-91D01*
G03X11275Y-4808I2230J4307D01*
G02X11531Y-4231I353J189D01*
G02X13937Y-3937I2406J-9706D01*
G01X60600D01*
Y-23200D01*
X87800D01*
Y-3937D01*
X135669D01*
G02X137699Y-4145I0J-10000D01*
G02X137967Y-4732I-81J-392D01*
G03X144759Y-11220I4233J-2368D01*
G02X145358Y-11461I211J-340D01*
G02X145669Y-13937I-9689J-2476D01*
G01Y-81806D01*
G02X144986Y-82089I-400J0D01*
G01X140597Y-77700D01*
X131697D01*
X129397Y-75400D01*
X119397D01*
X118400Y-74403D01*
Y-70903D01*
X116497Y-69000D01*
G03X114600Y-67103I-1797J100D01*
G01X111197Y-63700D01*
X106603D01*
X100800Y-69503D01*
Y-72903D01*
X82200Y-91503D01*
G03X81766Y-91531I-100J-1797D01*
G02X81294Y-91104I-74J393D01*
G03X78158Y-89750I-1794J154D01*
G01X75353D01*
X66803Y-98300D01*
X59503D01*
X35100Y-122703D01*
Y-133658D01*
G03X35942Y-136764I1200J-1342D01*
G02X36101Y-136980I-40J-196D01*
G03X36100Y-137000I199J-20D01*
G02X32500Y-136982I-1800J0D01*
G01X32501Y-136898D01*
X32383Y-136780D01*
G03X32100Y-136663I-283J-283D01*
G02X31700Y-136263I0J400D01*
G01Y-120697D01*
X51300Y-101097D01*
Y-72842D01*
G03X48441Y-70800I-1200J1342D01*
G02X47732Y-70855I-369J155D01*
G03X45000Y-73142I-1532J-945D01*
G01Y-101503D01*
X44783Y-101720D01*
G02X44100Y-101437I-283J283D01*
G01Y-100331D01*
G03X43900Y-97858I-1400J1131D01*
G01Y-92042D01*
G03X41500I-1200J1342D01*
G01Y-97858D01*
G03X41700Y-100697I1200J-1342D01*
G01Y-102003D01*
X36503Y-107200D01*
X35103D01*
X24700Y-117603D01*
Y-131603D01*
X24603Y-131700D01*
X14803D01*
X8100Y-138403D01*
Y-159997D01*
X13503Y-165400D01*
X27003D01*
X27435Y-165833D01*
G02X27266Y-166172I-141J-141D01*
G03X26950Y-166150I-316J-2228D01*
G01X20050D01*
G03Y-170650I0J-2250D01*
G01X26950D01*
G03X28825Y-169644I0J2250D01*
G02X29559Y-169864I333J-221D01*
G01Y-169956D01*
X29499Y-170014D01*
G03X28959Y-171295I1260J-1286D01*
G02X28316Y-171612I-400J1D01*
G03X26950Y-171150I-1366J-1788D01*
G01X20050D01*
G03Y-175650I0J-2250D01*
G01X26950D01*
G03X29191Y-173199I0J2250D01*
G02X29802Y-172825I398J36D01*
G03X30121Y-172983I957J1525D01*
G02X30300Y-173597I-142J-374D01*
G01Y-215697D01*
X39103Y-224500D01*
X54703D01*
X63603Y-233400D01*
X69197D01*
X70297Y-232300D01*
X84297D01*
X90397Y-226200D01*
X95203D01*
X99003Y-230000D01*
X114303D01*
X116000Y-231697D01*
G37*
G36*
G01X11500Y-142203D02*
Y-158197D01*
X13603Y-160300D01*
X13838D01*
Y-161375D01*
G02X13155Y-161658I-400J0D01*
G01X10500Y-159003D01*
Y-139397D01*
X15797Y-134100D01*
X25597D01*
X27100Y-132597D01*
Y-118597D01*
X36097Y-109600D01*
X36420D01*
G02X36561Y-109942I0J-200D01*
G01X27600Y-118903D01*
Y-135758D01*
G02X27086Y-136141I-400J0D01*
G03X26800Y-136100I-285J-959D01*
G01X22800D01*
G03X21800Y-137100I0J-1000D01*
G01Y-142100D01*
G03X22800Y-143100I1000J0D01*
G01X26800D01*
G03X27086Y-143059I0J1000D01*
G02X27600Y-143442I114J-383D01*
G01Y-144497D01*
X29103Y-146000D01*
X32158D01*
G03X33991Y-146532I1342J1200D01*
G02X34500Y-146917I109J-385D01*
G01Y-149458D01*
G03X34076Y-150024I1200J-1342D01*
G02X33432Y-150135I-361J172D01*
G01X31197Y-147900D01*
X19703D01*
X18330Y-149273D01*
G03X18754Y-152667I770J-1627D01*
G02X18960Y-153342I-77J-393D01*
G01X17753Y-154550D01*
X14838D01*
G03X14454Y-154627I0J-1000D01*
G02X13900Y-154257I-154J369D01*
G01Y-143197D01*
X14190Y-142907D01*
X14322Y-142978D01*
G03X14800Y-143100I478J878D01*
G01X18800D01*
G03X19800Y-142100I0J1000D01*
G01Y-137100D01*
G03X18800Y-136100I-1000J0D01*
G01X14800D01*
G03X13800Y-137100I0J-1000D01*
G01Y-139903D01*
X11500Y-142203D01*
G37*
G36*
G01X64597Y-231000D02*
X55697Y-222100D01*
X40097D01*
X32700Y-214703D01*
Y-205263D01*
G02X33383Y-204980I400J0D01*
G01X35803Y-207400D01*
X59697D01*
X61200Y-205897D01*
Y-181006D01*
G02X61800Y-180659I400J0D01*
G03X62100Y-180797I900J1559D01*
G01X62143Y-180812D01*
X62317Y-180986D01*
X62100Y-181203D01*
Y-192297D01*
X62403Y-192600D01*
X62300Y-192703D01*
Y-208497D01*
X63803Y-210000D01*
X66737D01*
G02X67020Y-210683I0J-400D01*
G01X66900Y-210803D01*
Y-212477D01*
G03X69300I1200J-1342D01*
G01Y-211797D01*
X69397Y-211700D01*
X70260D01*
G02X70797Y-212434I-2259J-2218D01*
G03X71504I353J187D01*
G02X72041Y-211700I2796J-1484D01*
G01X73620D01*
G02X73761Y-212042I0J-200D01*
G01X73556Y-212247D01*
Y-216047D01*
X73302Y-216301D01*
X73218Y-216300D01*
G03X75000Y-218082I-18J-1800D01*
G01X74999Y-217998D01*
X75956Y-217041D01*
Y-213300D01*
X91590D01*
G02X91864Y-213991I0J-400D01*
G03X94442Y-216500I1236J-1309D01*
G01X98450D01*
Y-217079D01*
G03X99450Y-218079I1000J0D01*
G01X103882D01*
X103982Y-218179D01*
G02X103841Y-218521I-141J-141D01*
G01X99450D01*
G03X98450Y-219521I0J-1000D01*
G01Y-222387D01*
G02X97767Y-222670I-400J0D01*
G01X97197Y-222100D01*
X88403D01*
X82503Y-228000D01*
X72202D01*
X72150Y-227880D01*
G03X69149Y-229789I-1650J-720D01*
G01X69272Y-229930D01*
X68203Y-231000D01*
X64597D01*
G37*
G36*
G01X37397Y-202200D02*
X36900Y-201703D01*
Y-192313D01*
G03X37900Y-190684I-800J1613D01*
G02X38504Y-190336I400J4D01*
G03X39650Y-190650I1146J1936D01*
G01X46550D01*
G03Y-186150I0J2250D01*
G01X39650D01*
G03X37747Y-187200I0J-2250D01*
G01X34403D01*
X33383Y-188220D01*
G02X32700Y-187937I-283J283D01*
G01Y-174597D01*
X36800Y-170497D01*
Y-170144D01*
X36860Y-170086D01*
G03X37144Y-169726I-1260J1286D01*
G02X37814Y-169700I343J-206D01*
G03X39650Y-170650I1837J1300D01*
G01X46550D01*
G03X48276Y-166957I0J2250D01*
G02X48583Y-166300I307J257D01*
G01X51603D01*
X52600Y-167297D01*
Y-178257D01*
G02X52109Y-178647I-400J0D01*
G03X51074Y-178712I-409J-1753D01*
G01X50954Y-178757D01*
X49397Y-177200D01*
X48453D01*
G03X46550Y-176150I-1903J-1200D01*
G01X39650D01*
G03Y-180650I0J-2250D01*
G01X46550D01*
G03X48178Y-179954I0J2250D01*
G02X48750Y-179947I289J-276D01*
G01X50204Y-181401D01*
X50214Y-181416D01*
G03X50344Y-181583I1486J1017D01*
G02X50325Y-182129I-301J-263D01*
G03X49942Y-182700I1275J-1271D01*
G01X48693D01*
X48643Y-182573D01*
G03X46550Y-181150I-2093J-827D01*
G01X39650D01*
G03Y-185650I0J-2250D01*
G01X46550D01*
G03X48024Y-185100I0J2250D01*
G01X51007D01*
X51038Y-185110D01*
G03X52091Y-185132I562J1710D01*
G02X52600Y-185517I109J-385D01*
G01Y-191903D01*
X52303Y-192200D01*
X48453D01*
G03X46550Y-191150I-1903J-1200D01*
G01X39650D01*
G03Y-195650I0J-2250D01*
G01X46550D01*
G03X48453Y-194600I0J2250D01*
G01X52137D01*
G02X52420Y-195283I0J-400D01*
G01X50502Y-197201D01*
X50418Y-197200D01*
G03X49232Y-197630I-18J-1800D01*
G02X48607Y-197488I-259J304D01*
G03X46550Y-196150I-2057J-912D01*
G01X39650D01*
G03Y-200650I0J-2250D01*
G01X46550D01*
G03X48232Y-199895I0J2250D01*
G02X48871Y-199950I299J-266D01*
G03X52200Y-198982I1529J950D01*
G01X52199Y-198898D01*
X52767Y-198330D01*
G02X53450Y-198613I283J-283D01*
G01Y-202200D01*
X48453D01*
G03X46550Y-201150I-1903J-1200D01*
G01X39650D01*
G03X37803Y-202114I0J-2250D01*
G01X37744Y-202200D01*
X37397D01*
G37*
G36*
G01X40409Y-134632D02*
G03X40627Y-134679I491J1732D01*
G01X40692Y-134689D01*
X46720Y-140717D01*
G02X46437Y-141400I-283J-283D01*
G01X44900D01*
G03X43900Y-142400I0J-1000D01*
G01Y-147400D01*
G03X44900Y-148400I1000J0D01*
G01X48900D01*
G03X49900Y-147400I0J1000D01*
G01Y-142400D01*
G03X49859Y-142114I-1000J0D01*
G02X50242Y-141600I383J114D01*
G01X51303D01*
X51500Y-141797D01*
Y-148397D01*
X52120Y-149017D01*
G02X51837Y-149700I-283J-283D01*
G01X43191D01*
X41348Y-151543D01*
X41216Y-151472D01*
G03X40738Y-151350I-478J-878D01*
G01X40100D01*
Y-148400D01*
X40900D01*
G03X41900Y-147400I0J1000D01*
G01Y-142400D01*
G03X40900Y-141400I-1000J0D01*
G01X38863D01*
G02X38580Y-140717I0J400D01*
G01X39900Y-139397D01*
Y-135017D01*
G02X40409Y-134632I400J0D01*
G37*
G36*
G01X49403Y-118100D02*
X54117Y-122815D01*
G02Y-123380I-283J-283D01*
G03X54000Y-123663I283J-283D01*
G01Y-134237D01*
G03X54117Y-134520I400J0D01*
G02Y-135085I-283J-283D01*
G01X53400Y-135803D01*
Y-139337D01*
G02X52717Y-139620I-400J0D01*
G01X52297Y-139200D01*
X48597D01*
X42665Y-133268D01*
X42680Y-133168D01*
G03X40409Y-131168I-1780J268D01*
G02X39900Y-130783I-109J385D01*
G01Y-123797D01*
X45597Y-118100D01*
X49403D01*
G37*
G36*
G01X115083Y-205020D02*
G02X114400Y-204737I-283J283D01*
G01Y-203019D01*
X112381Y-201000D01*
X101063D01*
G02X100780Y-200317I0J400D01*
G01X101200Y-199897D01*
Y-195203D01*
X98997Y-193000D01*
X92450D01*
G02X92050Y-192588I0J400D01*
G03X92050Y-192559I-1000J28D01*
G01Y-189759D01*
G03X91611Y-188931I-1000J0D01*
G02Y-188269I224J331D01*
G03X92050Y-187441I-561J828D01*
G01Y-186047D01*
X93200Y-184897D01*
Y-183642D01*
G03X92697Y-180640I-1200J1342D01*
G02X92579Y-180410I77J184D01*
G03X92606Y-180179I-973J231D01*
G01Y-172698D01*
G03X91606Y-171698I-1000J0D01*
G01X85307D01*
G03X84307Y-172698I0J-1000D01*
G01Y-180179D01*
G03X85307Y-181179I1000J0D01*
G01X89921D01*
G02X90299Y-181710I0J-400D01*
G03X90373Y-183070I1701J-590D01*
G02X90011Y-183641I-362J-171D01*
G01X87750D01*
G03X86750Y-184626I0J-1000D01*
G01X86747Y-184823D01*
X84288D01*
X82563Y-186548D01*
Y-187245D01*
G02X82366Y-187445I-200J0D01*
G03X81385Y-188427I19J-1000D01*
G01X81381Y-188623D01*
X68625D01*
X68621Y-188427D01*
G03X67621Y-187445I-1000J-19D01*
G01X64865D01*
G03X64728Y-187455I1J-1000D01*
G01X64714Y-187456D01*
X64500D01*
Y-182197D01*
X65597Y-181100D01*
X66258D01*
G03X67618Y-181700I1342J1200D01*
G01X67702Y-181699D01*
X69403Y-183400D01*
X72805D01*
G03X72241Y-181000I995J1500D01*
G01X70397D01*
X69399Y-180002D01*
X69400Y-179918D01*
G03X66258Y-178700I-1800J18D01*
G01X64450D01*
Y-177650D01*
X69859D01*
G03X70859Y-176650I0J1000D01*
G01Y-176200D01*
X71897D01*
Y-176616D01*
G03X72897Y-177616I1000J0D01*
G01X76097D01*
G03X77097Y-176616I0J1000D01*
G01Y-173416D01*
G03X76097Y-172416I-1000J0D01*
G01X72897D01*
G03X71897Y-173416I0J-1000D01*
G01Y-173800D01*
X70859D01*
Y-173350D01*
G03X69859Y-172350I-1000J0D01*
G01X61941D01*
G03X61698Y-172380I0J-1000D01*
G02X61200Y-171992I-97J388D01*
G01Y-168708D01*
G02X61698Y-168320I400J0D01*
G03X61941Y-168350I244J970D01*
G01X69859D01*
G03X70859Y-167350I0J1000D01*
G01Y-166900D01*
X89503D01*
X95003Y-172400D01*
X95658D01*
G03X97018Y-173000I1342J1200D01*
G01X97102Y-172999D01*
X97300Y-173197D01*
Y-186197D01*
X106003Y-194900D01*
X130203D01*
G03X130464Y-195209I1497J1000D01*
G02X130190Y-195900I-275J-291D01*
G01X124203D01*
X115083Y-205020D01*
G37*
G36*
G01X59397Y-152900D02*
X53900Y-147403D01*
Y-146863D01*
G02X54583Y-146580I400J0D01*
G01X59303Y-151300D01*
X72297D01*
X72498Y-151099D01*
X72582Y-151100D01*
G03X73815Y-150628I18J1800D01*
G02X74085I135J-148D01*
G03X76358Y-150756I1215J1328D01*
G02X76869Y-150790I235J-324D01*
G03X77144Y-150900I275J290D01*
G01X80268D01*
G03X81418Y-151300I1132J1400D01*
G01X81502Y-151299D01*
X82420Y-152217D01*
G02X82137Y-152900I-283J-283D01*
G01X59397D01*
G37*
G36*
G01X82362Y-138053D02*
X81108Y-141080D01*
X79567D01*
G02X79173Y-140611I0J400D01*
G03X75614Y-140529I-1773J311D01*
G02X75218Y-140980I-397J-51D01*
G01X72903D01*
G03X71903Y-141980I0J-1000D01*
G01Y-142500D01*
X71021D01*
Y-141050D01*
G03X70021Y-140050I-1000J0D01*
G01X66321D01*
G03X65321Y-141050I0J-1000D01*
G01Y-146350D01*
G03X65352Y-146600I1000J0D01*
G02X64965Y-147100I-387J-100D01*
G01X64746D01*
Y-146851D01*
X64768Y-146808D01*
G03X64879Y-146350I-889J458D01*
G01Y-141050D01*
G03X63879Y-140050I-1000J0D01*
G01X60179D01*
G03X59179Y-141050I0J-1000D01*
G01Y-144416D01*
G02X58496Y-144699I-400J0D01*
G01X57500Y-143703D01*
Y-138297D01*
X58297Y-137500D01*
X81992D01*
G02X82362Y-138053I0J-400D01*
G37*
G36*
G01X59763Y-155300D02*
X84390D01*
G02X84683Y-155973I0J-400D01*
G03X86930Y-158742I1317J-1227D01*
G01X87064Y-158661D01*
X90903Y-162500D01*
X94597D01*
X98217Y-158880D01*
G02X98900Y-159163I283J-283D01*
G01Y-169590D01*
G02X98227Y-169883I-400J0D01*
G03X95830Y-169832I-1227J-1317D01*
G01X90497Y-164500D01*
X70859D01*
Y-164050D01*
G03X69859Y-163050I-1000J0D01*
G01X64541D01*
Y-161850D01*
X69859D01*
G03X70859Y-160850I0J1000D01*
G01Y-160468D01*
X71897D01*
Y-160868D01*
G03X72897Y-161868I1000J0D01*
G01X76097D01*
G03X77097Y-160868I0J1000D01*
G01Y-157668D01*
G03X76097Y-156668I-1000J0D01*
G01X72897D01*
G03X71897Y-157668I0J-1000D01*
G01Y-158068D01*
X70859D01*
Y-157550D01*
G03X69859Y-156550I-1000J0D01*
G01X61941D01*
G03X61126Y-156970I0J-1000D01*
G02X60518Y-157020I-326J232D01*
G01X59480Y-155983D01*
G02X59763Y-155300I283J283D01*
G37*
G36*
G01X54621Y-119517D02*
X54418Y-119720D01*
X53551Y-118854D01*
X53754Y-118650D01*
X53751Y-118562D01*
G02X53750Y-118521I999J42D01*
G01Y-114821D01*
G02X54750Y-113821I1000J0D01*
G01X55004D01*
Y-114090D01*
X54961Y-114144D01*
G03X54750Y-114759I789J-615D01*
G01Y-117559D01*
G03X55750Y-118559I1000J0D01*
G01X57762D01*
X58041Y-118838D01*
G02X57758Y-119521I-283J-283D01*
G01X54750D01*
G02X54709Y-119520I1J1000D01*
G01X54621Y-119517D01*
G37*
G36*
G01X64797Y-207600D02*
X64700Y-207503D01*
Y-205981D01*
X67621D01*
G03X68621Y-204981I0J1000D01*
G01Y-202225D01*
G03X67621Y-201225I-1000J0D01*
G01X64700D01*
Y-193800D01*
X81654D01*
X81711Y-193850D01*
G03X81843Y-193900I132J150D01*
G01X82003D01*
X82102Y-193800D01*
X86160D01*
X87172Y-193381D01*
X87257Y-193429D01*
G03X87373Y-193485I493J870D01*
G02X87505Y-194139I-151J-370D01*
G01X87141Y-194503D01*
Y-195250D01*
G02X86941Y-195450I-200J0D01*
G03X85941Y-196450I0J-1000D01*
G01Y-199750D01*
G03X86941Y-200750I1000J0D01*
G01X94859D01*
G03X95859Y-199750I0J1000D01*
G01Y-196450D01*
G03X95745Y-195986I-1000J0D01*
G02X96099Y-195400I354J186D01*
G01X98003D01*
X98800Y-196197D01*
Y-198903D01*
X97556Y-200147D01*
Y-201519D01*
X97435Y-201572D01*
G03X96817Y-204016I632J-1460D01*
G03Y-205984I1250J-984D01*
G03X96487Y-207153I1250J-984D01*
G02X96090Y-207600I-397J-47D01*
G01X95910D01*
G02X95513Y-207153I0J400D01*
G03X93933Y-205378I-1580J185D01*
G01X92555D01*
G03X91416Y-205858I0J-1591D01*
G02X90797Y-205801I-286J279D01*
G03X90560Y-205514I-1497J-1000D01*
G01X90500Y-205456D01*
Y-205097D01*
X91366Y-204232D01*
X91511D01*
G03X92555Y-204622I1044J1200D01*
G01X93933D01*
G03Y-201441I0J1591D01*
G01X92555D01*
G03X91511Y-201831I0J-1591D01*
G01X90371D01*
X88100Y-204103D01*
Y-205458D01*
G03X87530Y-207127I1200J-1342D01*
G02X87136Y-207600I-393J-73D01*
G01X73994D01*
X73935Y-207533D01*
G03X73637Y-207400I-298J-267D01*
G01X69397D01*
X69198Y-207600D01*
X64797D01*
G37*
G36*
G01X71292Y-114900D02*
X68197D01*
X66398Y-113100D01*
G02X66680Y-112417I283J283D01*
G01X69775D01*
X71575Y-114217D01*
G02X71292Y-114900I-283J-283D01*
G37*
G36*
G01X82903Y-144600D02*
Y-143019D01*
X83430Y-141746D01*
G02X84200Y-141899I370J-153D01*
G01Y-143597D01*
X87903Y-147300D01*
X122594D01*
G02X122941Y-147900I0J-400D01*
G03X122757Y-148350I1559J-900D01*
G01X122718Y-148500D01*
X84997D01*
X84578Y-148081D01*
X84693Y-147941D01*
G03X83303Y-145000I-1393J1141D01*
G02X82903Y-144600I1J400D01*
G37*
G36*
G01X91300Y-157982D02*
X91301Y-157898D01*
X89986Y-156583D01*
G02X90274Y-155900I283J283D01*
G03X91586Y-155360I26J1800D01*
G02X92154Y-155357I286J-280D01*
G01X92998Y-156201D01*
X93082Y-156200D01*
G02X94896Y-157871I18J-1800D01*
G03X95012Y-158125I399J29D01*
G02Y-158691I-283J-283D01*
G01X93603Y-160100D01*
X92674D01*
Y-159755D01*
X92537Y-159710D01*
G02X91300Y-157982I563J1710D01*
G37*
G36*
G01X89926Y-143300D02*
Y-142955D01*
X90063Y-142910D01*
G03X90325Y-142800I-563J1710D01*
G01X113197D01*
X113798Y-142199D01*
X115838D01*
G02X116121Y-142882I0J-400D01*
G01X115703Y-143300D01*
X89926D01*
G37*
G36*
G01X111900Y-129797D02*
Y-133997D01*
X106780Y-139117D01*
G03X107063Y-139800I283J-283D01*
G01X107403D01*
X110103Y-137100D01*
X112300D01*
Y-139500D01*
X111097D01*
X110197Y-140400D01*
X91113D01*
G03X89913Y-139448I-1613J-800D01*
G02X89722Y-138776I92J389D01*
G01X90497Y-138000D01*
X93918D01*
X94238Y-137680D01*
X94333Y-137690D01*
G03X92778Y-135450I188J1790D01*
G01X92739Y-135600D01*
X89503D01*
X89283Y-135820D01*
G02X88600Y-135537I-283J283D01*
G01Y-127700D01*
X112037D01*
G02X112320Y-128383I0J-400D01*
G01X112300Y-128403D01*
Y-129397D01*
X111900Y-129797D01*
G37*
G36*
G01X91844Y-125300D02*
G02X91509Y-124682I0J400D01*
G03X90450Y-121957I-1509J982D01*
G01X90300Y-121918D01*
Y-120612D01*
G03X91005Y-118750I-1050J1462D01*
G01X91000Y-118728D01*
Y-115059D01*
X92150D01*
G03X93150Y-114059I0J1000D01*
G01Y-106141D01*
G03X92150Y-105141I-1000J0D01*
G01X88850D01*
G03X88672Y-105157I0J-1000D01*
G02X88200Y-104763I-71J394D01*
G01Y-97697D01*
X91919Y-93979D01*
G02X92583Y-94141I283J-283D01*
G03X95642Y-94800I1717J541D01*
G01X107797D01*
X110944Y-91654D01*
G02X111604Y-91802I283J-283D01*
G03X112759Y-92917I1696J603D01*
G02X112921Y-93581I-120J-382D01*
G01X112000Y-94503D01*
Y-97638D01*
X111194D01*
G03X110194Y-98639I0J-1000D01*
G01Y-100607D01*
G03X111194Y-101607I1000J0D01*
G01X111982D01*
G03X112520Y-101450I0J1000D01*
G03X113950Y-101364I643J1237D01*
G03X114739Y-101607I787J1150D01*
G02X115134Y-102073I0J-400D01*
G03Y-102528I1375J-228D01*
G02X114739Y-102993I-395J-65D01*
G03X113950Y-103236I-1J-1394D01*
G03X112376I-787J-1150D01*
G03X110194Y-104387I-787J-1150D01*
G01Y-105568D01*
G03X111520Y-106960I1394J0D01*
G02X111900Y-107360I-20J-399D01*
G01Y-107703D01*
X107532Y-112071D01*
Y-113953D01*
G03X106879Y-114516I1200J-2053D01*
G02X106255I-312J251D01*
G03X102023Y-116006I-1854J-1490D01*
G01Y-117974D01*
G03X106255Y-119464I2378J0D01*
G02X106879I312J-251D01*
G03X110586I1854J1490D01*
G02X111209I312J-251D01*
G03X114917I1854J1490D01*
G02X115540I312J-251D01*
G03X119247I1854J1490D01*
G02X119871I312J-251D01*
G03X123578I1854J1490D01*
G02X124202I312J-251D01*
G03X127909I1854J1490D01*
G02X128532I312J-251D01*
G03X132239I1854J1490D01*
G02X132863I312J-251D01*
G03X134526Y-120344I1854J1490D01*
G02X134777Y-121026I-32J-399D01*
G01X132203Y-123600D01*
X126664D01*
G02X126270Y-123127I0J400D01*
G03X122887Y-122000I-1770J327D01*
G01X98726D01*
X97761Y-121035D01*
G02X98044Y-120352I283J283D01*
G01X100268D01*
G03X101268Y-119352I0J1000D01*
G01Y-114628D01*
G03X100268Y-113627I-1000J0D01*
G01X96300D01*
Y-104542D01*
G03X93900I-1200J1342D01*
G01Y-120568D01*
X96590Y-123258D01*
G02X96449Y-123600I-141J-141D01*
G01X96197D01*
X95828Y-123230D01*
X95813Y-123201D01*
G03X92557Y-124736I-1613J-799D01*
G02X92192Y-125300I-365J-164D01*
G01X91844D01*
G37*
G36*
G01X142200Y-92537D02*
G02X141517Y-92820I-400J0D01*
G01X139676Y-90978D01*
G02X139729Y-90368I283J283D01*
G03X139900Y-90040I-229J328D01*
G01Y-89297D01*
X138503Y-87900D01*
X135564D01*
G03X135421Y-87927I0J-400D01*
G02X134936Y-87762I-143J374D01*
G03X132058Y-87500I-1536J-938D01*
G01X128843D01*
G02X128453Y-87009I0J400D01*
G03X125414Y-85340I-1753J409D01*
G01X125356Y-85400D01*
X125208D01*
G02X124811Y-85050I0J400D01*
G03X124793Y-84973I-397J-50D01*
G02X124700Y-84400I1707J573D01*
G01Y-84200D01*
X110097D01*
X110000Y-84297D01*
Y-88937D01*
G03X110015Y-89044I400J0D01*
G01X110046Y-89156D01*
X106803Y-92400D01*
X95642D01*
G03X94841Y-91883I-1342J-1200D01*
G02X94679Y-91219I120J382D01*
G01X102917Y-82980D01*
G02X103600Y-83263I283J-283D01*
G01Y-86458D01*
G03X106000I1200J-1342D01*
G01Y-83097D01*
X107598Y-81499D01*
X107682Y-81500D01*
G03X109042Y-80900I18J1800D01*
G01X124697D01*
X126097Y-79500D01*
X127003D01*
X129303Y-81800D01*
X138403D01*
X142200Y-85597D01*
Y-92537D01*
G37*
G36*
G01X124303Y-238400D02*
X120997D01*
X118400Y-235803D01*
Y-230703D01*
X115980Y-228283D01*
G02X116263Y-227600I283J283D01*
G01X119677D01*
G02X120058Y-228119I0J-400D01*
G03X124036I1989J-620D01*
G02X124417Y-227600I382J119D01*
G01X139700D01*
G02X139982Y-228283I0J-400D01*
G01X139566Y-228700D01*
X135942D01*
G03X133314Y-231160I-1342J-1200D01*
G01X133371Y-231218D01*
Y-231500D01*
X133103D01*
X132003Y-232600D01*
X130103D01*
X124303Y-238400D01*
G37*
G36*
G01X130763Y-225200D02*
G02X130480Y-224517I0J400D01*
G01X131900Y-223097D01*
Y-205882D01*
X132050Y-205843D01*
G03X132409Y-202492I-450J1743D01*
G02X132314Y-202237I90J179D01*
G03X129576Y-200105I-1664J687D01*
G02X129301Y-200070I-119J161D01*
G03X126190Y-201762I-1401J-1130D01*
G01X126200Y-201792D01*
Y-214382D01*
G02X125691Y-214767I-400J0D01*
G03X125277Y-214701I-491J-1732D01*
G02X124894Y-214301I17J400D01*
G01Y-213940D01*
G03X124813Y-213546I-1000J0D01*
G03X124894Y-213153I-920J394D01*
G01Y-211972D01*
G03X123894Y-210971I-1000J0D01*
G01X118382D01*
G03X117382Y-211972I0J-1000D01*
G01Y-213153D01*
G03X117392Y-213297I1000J0D01*
G01X117407Y-213396D01*
X116463Y-214340D01*
G02X115838Y-214265I-283J283D01*
G03X114148Y-213406I-1538J-935D01*
G03X113150Y-212479I-998J-73D01*
G01X111984D01*
G02X111701Y-211796I0J400D01*
G01X125197Y-198300D01*
X139403D01*
X140449Y-199346D01*
X140241Y-199555D01*
X140147Y-199546D01*
G03X140050Y-199541I-97J-996D01*
G01X136750D01*
G03X135750Y-200541I0J-1000D01*
G01Y-204970D01*
G02X135250Y-205357I-400J0D01*
G03X133532Y-208378I-450J-1743D01*
G02X133496Y-208978I-282J-284D01*
G03X132800Y-210400I1104J-1422D01*
G01Y-213997D01*
X134503Y-215700D01*
X134704D01*
Y-215902D01*
Y-217090D01*
G03X134785Y-217483I1000J0D01*
G03X134704Y-217877I920J-394D01*
G01Y-219058D01*
G03X134785Y-219452I1000J0D01*
G03X134704Y-219846I920J-394D01*
G01Y-221027D01*
G03X135705Y-222027I1000J0D01*
G01X141216D01*
G03X141286Y-222024I-1J1000D01*
G02X141500Y-222224I14J-200D01*
G01Y-224503D01*
X140803Y-225200D01*
X130763D01*
G37*
G36*
G01X145669Y-192906D02*
G02X144986Y-193189I-400J0D01*
G01X144100Y-192303D01*
Y-190342D01*
G03X141558Y-187800I-1200J1342D01*
G01X136242D01*
G03X133296Y-189818I-1342J-1200D01*
G02X132940Y-190400I-356J-182D01*
G01X108197D01*
X101300Y-183503D01*
Y-158498D01*
X103898Y-155900D01*
X128260D01*
X134400Y-149760D01*
Y-144802D01*
X130098Y-140500D01*
X124840D01*
G02X124440Y-140100I0J400D01*
G03X124397Y-139918I-400J0D01*
G02X124283Y-139640I1603J819D01*
G01X124239Y-139500D01*
X114700D01*
Y-138064D01*
G02X115173Y-137670I400J0D01*
G03X116832Y-137111I327J1770D01*
G02X117339Y-137040I296J-269D01*
G03X117550Y-137100I211J340D01*
G01X118589D01*
G03X118925Y-136917I0J400D01*
G02X119414Y-136764I336J-217D01*
G03X120786I686J1664D01*
G02X121275Y-136917I152J-370D01*
G03X121610Y-137100I336J217D01*
G01X122525D01*
G03X122848Y-136464I0J400D01*
G02X125642Y-134200I1452J1063D01*
G01X129003D01*
X133902Y-129300D01*
X135337D01*
G02X135620Y-129983I0J-400D01*
G01X135100Y-130503D01*
Y-151003D01*
X129303Y-156800D01*
X114703D01*
X112300Y-159203D01*
Y-168797D01*
X118003Y-174500D01*
X123658D01*
G03X125116Y-175096I1342J1200D01*
G02X125424Y-175779I26J-399D01*
G01X123303Y-177900D01*
X120203D01*
X116702Y-181401D01*
X116618Y-181400D01*
G03X115700Y-181641I-18J-1800D01*
G02X115100Y-181294I-200J346D01*
G01Y-178642D01*
G03X112700I-1200J1342D01*
G01Y-184997D01*
X114203Y-186500D01*
X121003D01*
X121320Y-186817D01*
X121310Y-186912D01*
G03X123270Y-185308I1790J-188D01*
G01X123198Y-185301D01*
X121997Y-184100D01*
X118743D01*
G02X118353Y-183609I0J400D01*
G03X118400Y-183182I-1753J409D01*
G01X118399Y-183098D01*
X121197Y-180300D01*
X124297D01*
X130200Y-174397D01*
Y-171303D01*
X127197Y-168300D01*
X119797D01*
X117100Y-165603D01*
Y-161397D01*
X117197Y-161300D01*
X131497D01*
X139900Y-152897D01*
Y-137274D01*
X140111D01*
X140122Y-137276D01*
G03X140228Y-137281I107J995D01*
G01X145346D01*
G03X145449Y-137276I0J1000D01*
G01X145459Y-137275D01*
X145669D01*
Y-155758D01*
G02X145068Y-156103I-400J0D01*
G03X143772Y-155753I-1296J-2225D01*
G01X141803D01*
G03Y-160903I0J-2575D01*
G01X143772D01*
G03X145068Y-160553I0J2575D01*
G02X145669Y-160899I201J-346D01*
G01Y-168161D01*
X145459D01*
X145449Y-168160D01*
G03X145346Y-168155I-103J-995D01*
G01X140228D01*
G03X139228Y-169155I0J-1000D01*
G01Y-180179D01*
G03X140228Y-181179I1000J0D01*
G01X145346D01*
G03X145449Y-181174I0J1000D01*
G01X145459Y-181173D01*
X145669D01*
Y-192906D01*
G37*
G36*
G01X120054Y-114052D02*
G03X120043Y-114041I-152J-130D01*
G01X115800Y-109797D01*
X117500Y-108097D01*
Y-107362D01*
G02X117897Y-106962I400J0D01*
G03X118073Y-106949I-10J1394D01*
G01X118086Y-106947D01*
X118300D01*
Y-108897D01*
X120524Y-111121D01*
Y-113953D01*
G03X120324Y-114084I1200J-2053D01*
G02X120054Y-114052I-118J162D01*
G37*
G36*
G01X112300Y-101300D02*
X122700D01*
Y-103300D01*
X111500D01*
Y-102100D01*
X112300Y-101300D01*
G37*
G36*
G01X109042Y-78500D02*
G03X108531Y-78103I-1342J-1200D01*
G02X108432Y-77465I185J355D01*
G01X112600Y-73297D01*
Y-70297D01*
G02X113309Y-70043I400J0D01*
G03X114718Y-70700I1391J1143D01*
G01X114802Y-70699D01*
X116000Y-71897D01*
Y-75397D01*
X117720Y-77117D01*
G02X117437Y-77800I-283J-283D01*
G01X116234D01*
X114731Y-76297D01*
Y-75332D01*
G03X114048Y-75049I-400J0D01*
G01X111280Y-77817D01*
G03X111163Y-78100I283J-283D01*
G02X110763Y-78500I-400J0D01*
G01X109042D01*
G37*
G36*
G01X126623Y-239475D02*
X131097Y-235000D01*
X132997D01*
X134097Y-233900D01*
X138563D01*
G02X138885Y-234536I0J-400D01*
G03X138345Y-239318I3915J-2864D01*
G02X138074Y-239864I-367J-158D01*
G02X135669Y-240157I-2405J9707D01*
G01X126906D01*
G02X126623Y-239475I0J400D01*
G37*
G36*
G01X131658Y-146060D02*
X130497Y-144900D01*
X118463D01*
G02X118180Y-144217I0J400D01*
G01X118215Y-144183D01*
G02X118780I283J-283D01*
G03X119063Y-144300I283J283D01*
G01X129537D01*
G03X129820Y-144183I0J400D01*
G02X130385I283J-283D01*
G01X131999Y-145796D01*
Y-145919D01*
G02X131658Y-146060I-200J0D01*
G37*
G36*
G01X136856Y-114247D02*
G02X136317I-269J296D01*
G03X134017Y-113733I-1601J-1759D01*
G02X133500Y-113350I-118J382D01*
G01Y-111297D01*
X132269Y-110066D01*
G03X131893Y-109960I-283J-283D01*
G01X131784Y-109986D01*
X130397Y-108600D01*
X126097D01*
X123803Y-106306D01*
X123865Y-106178D01*
G03X124006Y-105568I-1254J610D01*
G01Y-104387D01*
G03X121824Y-103236I-1394J0D01*
G03X120250I-787J-1150D01*
G03X119461Y-102993I-787J-1150D01*
G02X119066Y-102528I0J400D01*
G03Y-102073I-1375J228D01*
G02X119461Y-101607I395J65D01*
G03X120250Y-101364I1J1394D01*
G03X121824I787J1150D01*
G03X124006Y-100213I787J1150D01*
G01Y-99032D01*
G03X124005Y-99004I-1394J-1D01*
G01Y-98800D01*
X124958D01*
G03X128007Y-97027I1342J1200D01*
G02X128386Y-96500I379J127D01*
G01X136597D01*
X137298Y-95799D01*
X137382Y-95800D01*
G03X139096Y-94602I18J1800D01*
G02X139756Y-94454I377J-134D01*
G01X140600Y-95297D01*
Y-113842D01*
G02X139949Y-114154I-400J0D01*
G03X136856Y-114247I-1492J-1852D01*
G37*
G36*
G01X123578Y-114516D02*
G03X122925Y-113953I-1853J-1490D01*
G01Y-110127D01*
X120700Y-107903D01*
Y-107361D01*
G02X121086Y-106961I400J0D01*
G03X121179Y-106954I-49J1393D01*
G01X121190Y-106953D01*
X121400D01*
Y-107297D01*
X125103Y-111000D01*
X129186D01*
Y-113953D01*
G03X128532Y-114516I1200J-2053D01*
G02X127909I-312J251D01*
G03X124202I-1854J-1490D01*
G02X123578I-312J251D01*
G37*
G36*
G01X141700Y-190342D02*
Y-192356D01*
G02X141147Y-192726I-400J0D01*
G01X135985Y-190588D01*
X136079Y-190362D01*
X136112Y-190331D01*
G03X136242Y-190200I-1212J1331D01*
G01X141558D01*
G03X141700Y-190342I1342J1200D01*
G37*
G36*
G01X137952Y-124087D02*
G03X137589Y-123355I-1752J-413D01*
G02X137897Y-122700I309J255D01*
G01X137997D01*
X139600Y-121097D01*
Y-120059D01*
G03X139949Y-119826I-1144J2085D01*
G02X140600Y-120137I251J-311D01*
G01Y-122303D01*
X138624Y-124278D01*
G02X137952Y-124087I-283J283D01*
G37*
%LPC*%
G75*
G36*
G01X26950Y-176150D02*
G02Y-180650I0J-2250D01*
G01X20050D01*
G02X18147Y-179600I0J2250D01*
G01X14503D01*
X12923Y-178020D01*
G03X12272Y-178148I-283J-283D01*
G02X11350Y-178759I-922J389D01*
G01X8050D01*
G02X7050Y-177759I0J1000D01*
G01Y-169841D01*
G02X8050Y-168841I1000J0D01*
G01X11350D01*
G02X12350Y-169841I0J-1000D01*
G01Y-175100D01*
X13397D01*
X15497Y-177200D01*
X18147D01*
G02X20050Y-176150I1903J-1200D01*
G01X26950D01*
G37*
G36*
G01X29502Y-104301D02*
X30700Y-103103D01*
Y-95597D01*
X30603Y-95500D01*
X10003D01*
X8000Y-93497D01*
Y-87742D01*
G02X10400I1200J1342D01*
G01Y-92503D01*
X10997Y-93100D01*
X31597D01*
X33100Y-94603D01*
Y-104097D01*
X31199Y-105998D01*
X31200Y-106082D01*
G02X29418Y-104300I-1800J-18D01*
G01X29502Y-104301D01*
G37*
G36*
G01X37600Y-67542D02*
Y-100658D01*
G02X35200I-1200J-1342D01*
G01Y-67542D01*
G02X37600I1200J1342D01*
G37*
G36*
G01X66950Y-92742D02*
Y-94258D01*
G02X64550I-1200J-1342D01*
G01Y-92742D01*
G02X66950I1200J1342D01*
G37*
G36*
G01X39650Y-175650D02*
G02Y-171150I0J2250D01*
G01X46550D01*
G02Y-175650I0J-2250D01*
G01X39650D01*
G37*
G36*
G01X77697Y-176716D02*
Y-173516D01*
G02X78697Y-172516I1000J0D01*
G01X81897D01*
G02X82897Y-173516I0J-1000D01*
G01Y-176716D01*
G02X81897Y-177716I-1000J0D01*
G01X78697D01*
G02X77697Y-176716I0J1000D01*
G37*
G36*
G01Y-160968D02*
Y-157768D01*
G02X78697Y-156768I1000J0D01*
G01X81897D01*
G02X82897Y-157768I0J-1000D01*
G01Y-160968D01*
G02X81897Y-161968I-1000J0D01*
G01X78697D01*
G02X77697Y-160968I0J1000D01*
G37*
G36*
G01X81385Y-204981D02*
Y-202225D01*
G02X82385Y-201225I1000J0D01*
G01X85141D01*
G02X86141Y-202225I0J-1000D01*
G01Y-204981D01*
G02X85141Y-205981I-1000J0D01*
G01X82385D01*
G02X81385Y-204981I0J1000D01*
G37*
G54D40*
X109200Y-235100D03*
X55400Y-209900D03*
G54D39*
X140300Y-55300D03*
G54D41*
X122047Y-235826D03*
%LPD*%
G75*
G54D10*
X7300Y-238600D03*
X7000Y-7100D03*
X142800Y-237400D03*
X142200Y-7100D03*
G54D11*
X12300Y-228300D03*
Y-218300D03*
X140300Y-55300D03*
Y-65300D03*
G54D20*
X63341Y-175000D03*
Y-159200D03*
Y-165700D03*
X63755Y-131491D03*
Y-125665D03*
X68459Y-175000D03*
Y-159200D03*
Y-165700D03*
X68873Y-131491D03*
Y-125665D03*
X93459Y-198100D03*
X88341D03*
G54D12*
X9900Y-224000D03*
X6200Y-184000D03*
X6300Y-188000D03*
X6700Y-162200D03*
Y-136600D03*
X7100Y-132800D03*
X7800Y-122500D03*
X9200Y-86400D03*
X16800Y-216900D03*
X18800Y-225000D03*
X27500Y-206500D03*
X13211Y-190550D03*
X16000Y-147900D03*
X19100Y-150900D03*
X22100Y-151200D03*
X10000Y-129300D03*
X18400Y-126000D03*
X11400Y-101129D03*
X23800Y-73400D03*
X27400Y-60800D03*
X17700Y-60100D03*
X22500Y-45700D03*
X26200Y-52100D03*
X16900Y-50500D03*
X20400Y-40800D03*
X18400Y-22700D03*
X27200Y-35300D03*
X18200Y-33200D03*
X23800Y-28200D03*
X21700Y-18500D03*
X23600Y-34000D03*
X18000Y-15100D03*
X19200Y-9900D03*
X39500Y-217400D03*
X45100Y-213100D03*
X35900Y-209800D03*
X29400Y-200700D03*
X36100Y-190700D03*
X30759Y-171300D03*
X35600Y-168800D03*
X33500Y-144800D03*
X35700Y-150800D03*
X40700Y-130100D03*
X34300Y-137000D03*
X40900Y-132900D03*
X32500Y-140800D03*
X36300Y-135000D03*
X37100Y-119400D03*
X29400Y-106100D03*
X42700Y-99200D03*
Y-90700D03*
X36400Y-102000D03*
X40800Y-87000D03*
X44200Y-84100D03*
X28800Y-82600D03*
X36400Y-66200D03*
X30300Y-42500D03*
X32100Y-29000D03*
X28000Y-22900D03*
X32800Y-18300D03*
X38400Y-35900D03*
X45500Y-28800D03*
X39200Y-23200D03*
X28900Y-10200D03*
X40900Y-8100D03*
X43000Y-15200D03*
X54000Y-236000D03*
X54400Y-227100D03*
X53900Y-219300D03*
X58400Y-208700D03*
X61200Y-208400D03*
X58500Y-213500D03*
X50000Y-213300D03*
X56200Y-203400D03*
X50400Y-199000D03*
X55400Y-209900D03*
X48800Y-190900D03*
X51700Y-180400D03*
X51600Y-183400D03*
X62700Y-179100D03*
X56050Y-179650D03*
X53500Y-161400D03*
X56000Y-162900D03*
X56050Y-167100D03*
X49900Y-148600D03*
X55000Y-153200D03*
X48800Y-138200D03*
X59000Y-138900D03*
X48100Y-128300D03*
X46200Y-126400D03*
X50700Y-142700D03*
X50300Y-114700D03*
X54500Y-90800D03*
X58100Y-90500D03*
X46200Y-71800D03*
X48800Y-64000D03*
X60100Y-70400D03*
X50100Y-71500D03*
X50920Y-36820D03*
X50954Y-28946D03*
X50709Y-25009D03*
X45900Y-35800D03*
X49902Y-13198D03*
X49829Y-8671D03*
X81100Y-220400D03*
X70500Y-228600D03*
X73200Y-218100D03*
X71000Y-197800D03*
X66200Y-206500D03*
X68100Y-213819D03*
X65900Y-182400D03*
X78100Y-186300D03*
X80100Y-185200D03*
X73800Y-181900D03*
X67600Y-179900D03*
X79500Y-169200D03*
X76900Y-170500D03*
X75300Y-149300D03*
X72600D03*
X78700Y-147900D03*
X75000Y-138700D03*
X69500Y-138800D03*
X64200Y-138700D03*
X77400Y-140300D03*
X80800Y-113300D03*
X81000Y-109700D03*
X80500Y-116100D03*
X80900Y-120750D03*
X69094Y-89394D03*
X65750Y-95600D03*
Y-91400D03*
X80905Y-102952D03*
X79500Y-90950D03*
X74700Y-81600D03*
X66223Y-63277D03*
X64200Y-68400D03*
X69500Y-69000D03*
X80800Y-51700D03*
X94500Y-237800D03*
Y-227300D03*
X83100Y-215600D03*
X89200Y-229500D03*
X87500Y-219100D03*
X96500Y-229200D03*
X93100Y-215300D03*
X89300Y-206800D03*
X95100Y-180200D03*
Y-184100D03*
X92000Y-182300D03*
X84900Y-162500D03*
X85900Y-169600D03*
X82700Y-168300D03*
Y-170800D03*
X94200Y-174300D03*
X96000Y-166100D03*
X97000Y-171200D03*
X90300Y-154100D03*
X86000Y-157200D03*
X81400Y-149500D03*
X83300Y-146800D03*
X90900Y-134681D03*
X91900Y-138900D03*
X94521Y-135900D03*
X89500Y-141200D03*
X92400Y-118100D03*
X97500Y-109900D03*
X86900Y-116600D03*
X90000Y-123700D03*
X89250Y-119150D03*
X94200Y-124000D03*
X97700Y-105600D03*
X97900Y-101500D03*
X95100Y-103200D03*
X82100Y-93300D03*
X94300Y-93600D03*
X84400Y-76700D03*
X84300Y-85800D03*
X91200Y-62000D03*
X97343Y-40757D03*
X97406Y-44694D03*
X96272Y-21972D03*
X97302Y-13198D03*
X97629Y-8671D03*
X101500Y-238800D03*
X105900D03*
X109200Y-235100D03*
X114300Y-215200D03*
X115900Y-217500D03*
X115100Y-196200D03*
X107700Y-204200D03*
X106400Y-207859D03*
X101100Y-192900D03*
X116600Y-183200D03*
X112900Y-171900D03*
X115000Y-174000D03*
X113900Y-177300D03*
X106950Y-128550D03*
X115500Y-135900D03*
X115600Y-130100D03*
X100700Y-102400D03*
X100800Y-99000D03*
X113300Y-91200D03*
X107700Y-79700D03*
X104800Y-87800D03*
X102100Y-56100D03*
X114700Y-68900D03*
X107900Y-70600D03*
X113271Y-43571D03*
X103500Y-47600D03*
X111100Y-53600D03*
X108300Y-15600D03*
X107400Y-8100D03*
X120500Y-232500D03*
X123600Y-232400D03*
X133330Y-215700D03*
X125200Y-216499D03*
X120350Y-204450D03*
X127900Y-201200D03*
X131600Y-204100D03*
X130650Y-201550D03*
X122300Y-195900D03*
X127800Y-188200D03*
X131200Y-188900D03*
X131700Y-193900D03*
X123100Y-187100D03*
X132900Y-173900D03*
X125000Y-173300D03*
X126400Y-150800D03*
X124500Y-148800D03*
X134100Y-137800D03*
X132200Y-139700D03*
X120100Y-135100D03*
Y-130100D03*
X124500Y-122800D03*
X117394Y-116990D03*
X131900Y-102700D03*
X128800Y-102400D03*
X132000Y-97400D03*
X124900Y-100000D03*
X126300Y-97600D03*
X133300Y-91500D03*
X126500Y-80900D03*
X133400Y-88700D03*
X126700Y-86600D03*
X129500Y-63600D03*
X117800Y-56900D03*
X125000Y-58100D03*
X122000Y-49800D03*
X122600Y-36600D03*
X130700Y-52900D03*
X129900Y-42800D03*
X133500Y-24700D03*
X119000Y-10300D03*
X127500Y-15800D03*
X134600Y-229900D03*
Y-210400D03*
X134800Y-207100D03*
X141300Y-184000D03*
X144400D03*
X134900Y-189000D03*
X142900D03*
X135900Y-172300D03*
X140600Y-164000D03*
X144300Y-163700D03*
X142700Y-143600D03*
X142800Y-150300D03*
X142900Y-139200D03*
X137000Y-110700D03*
X136200Y-124500D03*
X135400Y-103500D03*
X137400Y-94000D03*
X140100Y-84800D03*
X142400Y-75300D03*
X142900Y-49900D03*
X141900Y-33800D03*
X140300Y-23900D03*
X135500Y-13600D03*
G54D21*
X62029Y-143700D03*
X68171D03*
G54D30*
X111588Y-104977D03*
X113163D03*
X114738D03*
X116313D03*
Y-99623D03*
X114738D03*
X113163D03*
X117887Y-104977D03*
X119462D03*
X121037D03*
X122612D03*
Y-99623D03*
X121037D03*
X119462D03*
X117887D03*
G54D13*
X10000Y-198059D03*
X10100Y-205541D03*
Y-210659D03*
X10000Y-192941D03*
X9900Y-187459D03*
Y-182341D03*
X9700Y-176359D03*
Y-171241D03*
X56100Y-203459D03*
Y-198341D03*
X57400Y-111041D03*
Y-116159D03*
X89400Y-186041D03*
Y-191159D03*
X90500Y-107541D03*
Y-112659D03*
X138400Y-207059D03*
Y-201941D03*
G54D31*
X111588Y-99623D03*
G54D22*
X66243Y-203603D03*
Y-189823D03*
X83763Y-203603D03*
Y-189823D03*
G54D32*
X122047Y-235826D03*
Y-228740D03*
G54D23*
X74497Y-175016D03*
X80297Y-175116D03*
X74497Y-159268D03*
X80297Y-159368D03*
X80303Y-143680D03*
X74503Y-143580D03*
X74403Y-131509D03*
X80203Y-131609D03*
X74503Y-125672D03*
X80303Y-125772D03*
G54D14*
X23500Y-203400D03*
G54D24*
X80905Y-109646D03*
X68701D03*
X80905Y-102952D03*
X68701D03*
G54D33*
X121138Y-214531D03*
Y-216499D03*
Y-218468D03*
Y-220436D03*
Y-212562D03*
X138461Y-220436D03*
Y-218468D03*
Y-216499D03*
Y-214531D03*
Y-212562D03*
G54D15*
X23500Y-198400D03*
Y-193400D03*
Y-188400D03*
Y-183400D03*
Y-178400D03*
Y-173400D03*
Y-168400D03*
X43100Y-198400D03*
Y-203400D03*
Y-178400D03*
Y-183400D03*
Y-188400D03*
Y-193400D03*
Y-168400D03*
Y-173400D03*
G54D25*
X93244Y-203032D03*
Y-206968D03*
X98756D03*
Y-205000D03*
Y-203032D03*
G54D16*
X27712Y-158900D03*
X16688D03*
X38888Y-155700D03*
X49912D03*
G54D34*
X117100Y-102300D03*
G54D26*
X88457Y-176439D03*
G54D17*
X16800Y-139600D03*
X24800D03*
X38900Y-144900D03*
X46900D03*
G54D35*
X142787Y-174667D03*
G54D27*
X98299Y-116990D03*
G54D36*
X142787Y-158328D03*
G54D18*
X60121Y-234900D03*
X87680D03*
G54D37*
X142787Y-133919D03*
G54D19*
X64058Y-224270D03*
X83742D03*
G54D28*
X102100Y-221371D03*
Y-215229D03*
X110500Y-221471D03*
Y-215329D03*
G54D38*
G01X18800Y-225000D02*
X19500Y-225700D01*
Y-235700D01*
X18700Y-236500D01*
X12400D01*
X4000Y-228100D01*
Y-132800D01*
X7600Y-129200D01*
Y-122700D01*
X7800Y-122500D01*
G01X12300Y-228300D02*
X7800D01*
X7700Y-228200D01*
X6500D01*
X5600Y-227300D01*
Y-188700D01*
X6300Y-188000D01*
G01X10000Y-198059D02*
X8500D01*
X7200Y-199359D01*
Y-213600D01*
X8600Y-215000D01*
X13400D01*
X14800Y-213600D01*
Y-205400D01*
X16800Y-203400D01*
X23500D01*
G01X6850Y-171241D02*
X9700D01*
G01Y-176359D02*
X9759Y-176300D01*
X12900D01*
X15000Y-178400D01*
X23500D01*
G01X42700Y-99200D02*
X42900Y-99400D01*
Y-102500D01*
X37000Y-108400D01*
X35600D01*
X25900Y-118100D01*
Y-132100D01*
X25100Y-132900D01*
X15300D01*
X9300Y-138900D01*
Y-159500D01*
X14000Y-164200D01*
X27500D01*
X30759Y-167459D01*
Y-171300D01*
G01X9200Y-86400D02*
Y-93000D01*
X10500Y-94300D01*
X31100D01*
X31900Y-95100D01*
Y-103600D01*
X29400Y-106100D01*
G01X10100Y-213259D02*
Y-210659D01*
G01D02*
X12950D01*
G01X23500Y-198400D02*
X16400D01*
X10100Y-204700D01*
Y-205541D01*
G01X23500Y-193400D02*
X10459D01*
X10000Y-192941D01*
G01X23500Y-183400D02*
X10959D01*
X9900Y-182341D01*
G01X23500Y-188400D02*
X10841D01*
X9900Y-187459D01*
G01X9700Y-171241D02*
Y-168641D01*
G01Y-171241D02*
X12550D01*
G01X24800Y-143300D02*
Y-139600D01*
G01X53500Y-161400D02*
X51500D01*
X50400Y-160300D01*
X36200D01*
X35400Y-159500D01*
Y-153800D01*
X30700Y-149100D01*
X20200D01*
X19400Y-149900D01*
Y-150600D01*
X19100Y-150900D01*
G01X56000Y-162900D02*
X55866Y-163224D01*
X55200Y-163500D01*
X36800D01*
X33600Y-160300D01*
Y-154400D01*
X30100Y-150900D01*
X22700D01*
X22400Y-151200D01*
X22100D01*
G01X16800Y-139600D02*
X15800D01*
X12700Y-142700D01*
Y-157700D01*
X14100Y-159100D01*
X16488D01*
X16688Y-158900D01*
G01X43100Y-193400D02*
X52800D01*
X53800Y-192400D01*
Y-166800D01*
X52100Y-165100D01*
X35200D01*
X31900Y-161800D01*
Y-155500D01*
X29700Y-153300D01*
X20700D01*
X16688Y-157312D01*
Y-158900D01*
G01X24800Y-139600D02*
Y-135900D01*
G01X21600Y-139600D02*
X24800D01*
G01X35600Y-168800D02*
Y-170000D01*
X31500Y-174100D01*
Y-215200D01*
X39600Y-223300D01*
X55200D01*
X64100Y-232200D01*
X68700D01*
X69800Y-231100D01*
X83800D01*
X89900Y-225000D01*
X95700D01*
X99500Y-228800D01*
X114800D01*
X117200Y-231200D01*
Y-236300D01*
X120500Y-239600D01*
X124800D01*
X130600Y-233800D01*
X132500D01*
X133600Y-232700D01*
X140100D01*
X146400Y-226400D01*
Y-196300D01*
X142900Y-192800D01*
Y-189000D01*
G01X43100Y-200850D02*
Y-198400D01*
G01D02*
Y-195950D01*
G01X38900Y-155688D02*
X43688Y-150900D01*
X52100D01*
X53000Y-151800D01*
Y-154300D01*
X60000Y-161300D01*
Y-205400D01*
X59200Y-206200D01*
X36300D01*
X33900Y-203800D01*
Y-189400D01*
X34900Y-188400D01*
X43100D01*
G01X56100Y-203459D02*
X56041Y-203400D01*
X43100D01*
G01X36100Y-190700D02*
Y-190900D01*
X35700Y-191300D01*
Y-202200D01*
X36900Y-203400D01*
X43100D01*
G01X51600Y-183400D02*
X51100Y-183900D01*
X43600D01*
X43100Y-183400D01*
G01X51700Y-180400D02*
X50900D01*
X48900Y-178400D01*
X43100D01*
G01X27712Y-158900D02*
X30200Y-161388D01*
Y-163300D01*
X35600Y-168700D01*
Y-168800D01*
G01X43700Y-144900D02*
X46900D01*
G01X38888Y-155700D02*
X38900Y-155688D01*
G01D02*
Y-144900D01*
G01X33500Y-144800D02*
X29600D01*
X28800Y-144000D01*
Y-119400D01*
X46200Y-102000D01*
Y-71800D01*
G01X35700Y-150800D02*
Y-143900D01*
X34600Y-142800D01*
X31300D01*
X30500Y-142000D01*
Y-120200D01*
X50100Y-100600D01*
Y-71500D01*
G01X40900Y-132900D02*
Y-133200D01*
X48100Y-140400D01*
X51800D01*
X52700Y-141300D01*
Y-147900D01*
X58900Y-154100D01*
X90300D01*
G01X63755Y-130755D02*
X49900Y-116900D01*
X45100D01*
X38700Y-123300D01*
Y-138900D01*
X36700Y-140900D01*
X32600D01*
X32500Y-140800D01*
G01X79500Y-90950D02*
X75850D01*
X67300Y-99500D01*
X60000D01*
X36300Y-123200D01*
Y-135000D01*
G01X42700Y-99200D02*
Y-90700D01*
G01X36400Y-66200D02*
Y-102000D01*
G01X52500Y-201100D02*
X55259Y-198341D01*
X56100D01*
G01X50400Y-199000D02*
X53800Y-195600D01*
X57100D01*
X58400Y-194300D01*
Y-162409D01*
X51577Y-155700D01*
X49912D01*
G01X55600Y-209900D02*
X55400D01*
G01X62700Y-179100D02*
X63250Y-178550D01*
Y-175091D01*
X63341Y-175000D01*
G01X56050Y-167100D02*
Y-179650D01*
G01X50400Y-148900D02*
X46900Y-145400D01*
Y-144900D01*
G01D02*
X50100D01*
G01X62029Y-143700D02*
Y-139850D01*
G01X58979Y-143700D02*
X62029D01*
G01D02*
X65079D01*
G01X80303Y-125772D02*
X80500D01*
X83100Y-128372D01*
Y-135100D01*
X81900Y-136300D01*
X57800D01*
X56300Y-137800D01*
Y-144200D01*
X60400Y-148300D01*
X70100D01*
X71400Y-147000D01*
X74100D01*
X75300Y-148200D01*
Y-149300D01*
G01X72600D02*
X71800Y-150100D01*
X59800D01*
X54600Y-144900D01*
Y-136300D01*
X56200Y-134700D01*
X79000D01*
X79800Y-133900D01*
Y-132012D01*
X80203Y-131609D01*
G01X55000Y-153200D02*
X60900Y-159100D01*
X63300D01*
X63341Y-159200D01*
G01X49800Y-155700D02*
X49912D01*
G01X50300Y-114700D02*
X53959Y-111041D01*
X57400D01*
G01D02*
X57441Y-111000D01*
X62600D01*
X67700Y-116100D01*
X80500D01*
G01X80900Y-120750D02*
X80450Y-121200D01*
X62100D01*
X57571Y-116671D01*
X57400D01*
Y-116159D01*
G01X70500Y-228600D02*
X71100Y-229200D01*
X83000D01*
X88900Y-223300D01*
X96700D01*
X99800Y-226400D01*
X141300D01*
X142700Y-225000D01*
Y-219268D01*
X141900Y-218468D01*
X138461D01*
G01Y-216499D02*
X138500Y-216600D01*
X142000D01*
X142800Y-215800D01*
Y-200000D01*
X139900Y-197100D01*
X124700D01*
X109700Y-212100D01*
X75400D01*
X74756Y-212744D01*
Y-216544D01*
X73200Y-218100D01*
G01X66243Y-206181D02*
Y-203603D01*
G01D02*
Y-201025D01*
G01Y-203603D02*
X68821D01*
G01X68001Y-213918D02*
X68100Y-213819D01*
G01D02*
Y-211300D01*
X68900Y-210500D01*
X108700D01*
X113200Y-206000D01*
Y-203516D01*
X111884Y-202200D01*
X99587D01*
X98756Y-203032D01*
G01X64100Y-192600D02*
X63500Y-193200D01*
Y-208000D01*
X64300Y-208800D01*
X102400D01*
X103341Y-207859D01*
X106400D01*
G01X73800Y-181900D02*
X73500Y-182200D01*
X69900D01*
X67600Y-179900D01*
G01X89400Y-191159D02*
X85921Y-192600D01*
X64100D01*
G01D02*
X63300Y-191800D01*
Y-181700D01*
X65100Y-179900D01*
X67600D01*
G01X66243Y-189823D02*
X83763D01*
G01X80297Y-162168D02*
Y-159368D01*
G01Y-177916D02*
Y-175116D01*
G01D02*
Y-172316D01*
G01X77497Y-175116D02*
X80297D01*
G01D02*
X83097D01*
G01X68459Y-175000D02*
X74481D01*
X74497Y-175016D01*
G01X63341Y-165700D02*
Y-159200D01*
G01X97000Y-171200D02*
X95500D01*
X90000Y-165700D01*
X68459D01*
G01X80297Y-159368D02*
Y-156568D01*
G01X77497Y-159368D02*
X80297D01*
G01D02*
X83097D01*
G01X74497Y-159268D02*
X68527D01*
X68459Y-159200D01*
G01X68171Y-143700D02*
X74383D01*
X74503Y-143580D01*
G01X80303Y-143680D02*
Y-143600D01*
G01D02*
X81363D01*
X84700Y-135544D01*
Y-127100D01*
X83200Y-125600D01*
Y-113900D01*
X85100Y-112000D01*
Y-96000D01*
X107900Y-73200D01*
Y-70600D01*
G01X80303Y-143600D02*
X80300D01*
G01X78700Y-147900D02*
X77400Y-146600D01*
Y-140300D01*
G01X68873Y-131491D02*
X74385D01*
X74403Y-131509D01*
G01X63755Y-130755D02*
Y-125665D01*
G01Y-131491D02*
Y-130755D01*
G01X68873Y-125665D02*
X74496D01*
X74503Y-125672D01*
G01X80800Y-113300D02*
X72355D01*
X68701Y-109646D01*
G01X80905D02*
X80960Y-109700D01*
G01X65750Y-95600D02*
Y-91400D01*
G01X68701Y-102952D02*
Y-100999D01*
X73800Y-95900D01*
X82400D01*
X104300Y-74000D01*
Y-70500D01*
X107800Y-67000D01*
X109900D01*
X111400Y-68500D01*
Y-72800D01*
X87000Y-97200D01*
Y-112400D01*
X84900Y-114500D01*
Y-124700D01*
X87400Y-127200D01*
Y-136700D01*
X85400Y-138700D01*
Y-143100D01*
X88400Y-146100D01*
X130000D01*
X130900Y-147000D01*
Y-149300D01*
X127250Y-152950D01*
X102450D01*
X94100Y-161300D01*
X91400D01*
X87216Y-157116D01*
X86084D01*
X86000Y-157200D01*
G01X102029Y-215300D02*
X93100D01*
G01X93244Y-206968D02*
Y-205178D01*
G01Y-206968D02*
X95724D01*
G01X83763Y-206181D02*
Y-203603D01*
G01D02*
Y-201025D01*
G01X81185Y-203603D02*
X83763D01*
G01D02*
X86341D01*
G01X93459Y-200950D02*
Y-198100D01*
G01D02*
X96059D01*
G01X89300Y-206800D02*
Y-204600D01*
X90868Y-203032D01*
X93244D01*
G01X88341Y-198100D02*
Y-195000D01*
X89141Y-194200D01*
X98500D01*
X100000Y-195700D01*
Y-199400D01*
X98756Y-200644D01*
Y-203032D01*
G01X88457Y-181379D02*
Y-176439D01*
G01X131700Y-193900D02*
X131500Y-193700D01*
X106500D01*
X98500Y-185700D01*
Y-172700D01*
X97000Y-171200D01*
G01X92000Y-182300D02*
Y-184400D01*
X91200Y-185200D01*
X90241D01*
X89400Y-186041D01*
G01X83763Y-189823D02*
Y-187045D01*
X84785Y-186023D01*
X86332D01*
X86350Y-186041D01*
X89400D01*
G01X88457Y-176439D02*
Y-171498D01*
G01X84107Y-176439D02*
X88457D01*
G01D02*
X92806D01*
G01X134600Y-229900D02*
X140063D01*
X144400Y-225563D01*
Y-196933D01*
X141735Y-194268D01*
X135293Y-191600D01*
X107700D01*
X100100Y-184000D01*
Y-158001D01*
X103401Y-154700D01*
X127763D01*
X133199Y-149263D01*
Y-145299D01*
X129601Y-141701D01*
X118999D01*
X116200Y-144500D01*
X89400D01*
X87000Y-142100D01*
Y-139800D01*
X90000Y-136800D01*
X93421D01*
X94321Y-135900D01*
X94521D01*
G01X126400Y-150800D02*
X125900Y-151300D01*
X83200D01*
X81400Y-149500D01*
G01X83300Y-146800D02*
Y-148500D01*
X84500Y-149700D01*
X123600D01*
X124500Y-148800D01*
G01X86900Y-116600D02*
Y-124300D01*
X89100Y-126500D01*
X134200D01*
X136200Y-124500D01*
G01X116313Y-99623D02*
Y-96187D01*
X119000Y-93500D01*
X134700D01*
X136600Y-91600D01*
X138600D01*
X141800Y-94800D01*
Y-122800D01*
X136500Y-128100D01*
X114300D01*
X113500Y-128900D01*
Y-140800D01*
X112700Y-141600D01*
X90100D01*
X89900Y-141400D01*
X89700D01*
X89500Y-141200D01*
G01X98299Y-120552D02*
Y-116990D01*
G01D02*
Y-113427D01*
G01Y-116990D02*
X101468D01*
G01X95100Y-103200D02*
Y-120071D01*
X98229Y-123200D01*
X124100D01*
X124500Y-122800D01*
G01X90500Y-112600D02*
Y-112659D01*
G01D02*
X89800Y-113359D01*
Y-118600D01*
X89250Y-119150D01*
G01D02*
X89100Y-119300D01*
Y-122800D01*
X90000Y-123700D01*
G01X138457Y-116990D02*
X138400Y-117000D01*
Y-120600D01*
X137500Y-121500D01*
X136000D01*
X132700Y-124800D01*
X95700D01*
X94900Y-124000D01*
X94200D01*
G01X90500Y-107541D02*
Y-104941D01*
G01Y-107541D02*
X93350D01*
G01X82100Y-93300D02*
X82302Y-93268D01*
G01X114700Y-68900D02*
X110700Y-64900D01*
X107100D01*
X102000Y-70000D01*
Y-73400D01*
X82100Y-93300D01*
G01X94300Y-93600D02*
X107300D01*
X114300Y-86600D01*
X126700D01*
G01X110500Y-215329D02*
X110529Y-215300D01*
G01X110500Y-214800D02*
Y-215329D01*
G01D02*
X110400Y-215400D01*
G01D02*
X111400Y-214400D01*
X113000D01*
X113700Y-215100D01*
X114200D01*
X114300Y-215200D01*
G01X110500Y-215841D02*
X110400Y-215400D01*
G01X121138Y-218468D02*
X117832D01*
X116600Y-219700D01*
X115200D01*
X113900Y-218400D01*
X105900D01*
X102729Y-215229D01*
X102100D01*
G01Y-215741D02*
X102029Y-215300D01*
G01X102100Y-215229D02*
X102029Y-215300D01*
G01X102100Y-221371D02*
Y-222800D01*
X103900Y-224600D01*
X128700D01*
X130700Y-222600D01*
Y-205000D01*
X131600Y-204100D01*
G01X102100Y-220859D02*
Y-221371D01*
G01X121138Y-214531D02*
X117969D01*
X116100Y-216400D01*
Y-217300D01*
X115900Y-217500D01*
G01X110500Y-221471D02*
X110926Y-222500D01*
X128200D01*
X129000Y-221700D01*
Y-203200D01*
X130650Y-201550D01*
G01X110500Y-220959D02*
Y-221471D01*
G01X107700Y-204200D02*
Y-204400D01*
X106900Y-205200D01*
X103200D01*
X101432Y-206968D01*
X98756D01*
G01X123100Y-187100D02*
Y-186900D01*
X121500Y-185300D01*
X114700D01*
X113900Y-184500D01*
Y-177300D01*
G01X125000Y-173300D02*
X118500D01*
X113500Y-168300D01*
Y-159700D01*
X115200Y-158000D01*
X129800D01*
X136300Y-151500D01*
Y-131000D01*
X143400Y-123900D01*
Y-85100D01*
X138900Y-80600D01*
X129800D01*
X127500Y-78300D01*
X125600D01*
X124200Y-79700D01*
X107700D01*
G01X114700Y-68900D02*
X117200Y-71400D01*
Y-74900D01*
X118900Y-76600D01*
X128900D01*
X131200Y-78900D01*
X140100D01*
X145000Y-83800D01*
Y-125000D01*
X138700Y-131300D01*
Y-152400D01*
X131000Y-160100D01*
X116700D01*
X115900Y-160900D01*
Y-166100D01*
X119300Y-169500D01*
X126700D01*
X129000Y-171800D01*
Y-173900D01*
X123800Y-179100D01*
X120700D01*
X116600Y-183200D01*
G01X115500Y-135900D02*
Y-130200D01*
X115600Y-130100D01*
G01X109000Y-109000D02*
X109300Y-108700D01*
G01X108732Y-116990D02*
Y-112568D01*
X113100Y-108200D01*
Y-105040D01*
X113163Y-104977D01*
G01X113063Y-116990D02*
Y-110837D01*
X116300Y-107600D01*
Y-104990D01*
X116313Y-104977D01*
G01X133400Y-88700D02*
X115800D01*
X113300Y-91200D01*
G01X133300Y-91500D02*
X116700D01*
X113200Y-95000D01*
Y-99586D01*
X113163Y-99623D01*
G01X114738Y-104977D02*
X114800Y-105039D01*
G01X104800Y-87800D02*
Y-82600D01*
X107700Y-79700D01*
G01X133330Y-215700D02*
Y-216570D01*
X132600Y-217300D01*
Y-219100D01*
X133936Y-220436D01*
G01X133330Y-215700D02*
X133230Y-215600D01*
X133200D01*
X132400Y-214800D01*
Y-206100D01*
X132900D01*
G01X133936Y-220436D02*
X138461D01*
G01X121138D02*
X121174Y-220400D01*
X126600D01*
X127400Y-219600D01*
Y-202000D01*
X127900Y-201500D01*
Y-201200D01*
G01X121138Y-218468D02*
X121070Y-218400D01*
G01X121138Y-216499D02*
X125200D01*
G01X121138Y-210771D02*
X120600Y-210234D01*
Y-204700D01*
X120350Y-204450D01*
G01X136541Y-201941D02*
X136241D01*
X133100Y-198800D01*
G01D02*
X126000D01*
X120350Y-204450D01*
G01X132900Y-206100D02*
X136541Y-202459D01*
Y-201941D01*
G01X121138Y-212562D02*
Y-210771D01*
G01X117182Y-212562D02*
X121138D01*
G01D02*
X125094D01*
G01X138461Y-214531D02*
X138430Y-214500D01*
X135000D01*
X134000Y-213500D01*
Y-211000D01*
X134600Y-210400D01*
G01X120100Y-130100D02*
Y-135100D01*
G01X126055Y-120552D02*
Y-116990D01*
G01D02*
Y-113427D01*
G01X117394Y-116990D02*
X117400Y-116996D01*
G01X119462Y-104977D02*
X119500Y-105015D01*
Y-108400D01*
X121724Y-110624D01*
Y-116990D01*
G01X122612Y-104977D02*
X122600Y-104989D01*
Y-106800D01*
X125600Y-109800D01*
X129900D01*
X130386Y-110286D01*
Y-116990D01*
G01X126300Y-97600D02*
X123300D01*
X122612Y-98288D01*
Y-99623D01*
G01X137400Y-94000D02*
X136100Y-95300D01*
X120700D01*
X119400Y-96600D01*
Y-99561D01*
X119462Y-99623D01*
G01X117900Y-104990D02*
X117887Y-104977D01*
G01X136541Y-201941D02*
X138400D01*
G01X134800Y-207100D02*
X138359D01*
X138400Y-207059D01*
G01X138461Y-212562D02*
X138400Y-212502D01*
Y-207059D01*
G01X142787Y-181379D02*
Y-174667D01*
G01X134900Y-189000D02*
X142900D01*
G01X142787Y-161103D02*
Y-158328D01*
G01Y-174667D02*
Y-167955D01*
G01X139028Y-174667D02*
X142787D01*
G01Y-158328D02*
Y-133919D01*
G01X139028Y-158328D02*
X142787D01*
G54D29*
X104402Y-116990D03*
X108732D03*
X113063D03*
X117394D03*
X121724D03*
X126055D03*
X130386D03*
X134716D03*
X138457D03*
M02*
