G04 ================== begin FILE IDENTIFICATION RECORD ==================*
G04 Layout Name:  EPTS_PERFANL_B_V0_2.brd*
G04 Film Name:    PERFANL-B-V0-2-SMB*
G04 File Format:  Gerber RS274X*
G04 File Origin:  Cadence Allegro 17.2-P019*
G04 Origin Date:  Sun Jun 30 20:04:02 2019*
G04 *
G04 Layer:  BOARD GEOMETRY/SOLDERMASK_BOTTOM*
G04 Layer:  PACKAGE GEOMETRY/SOLDERMASK_BOTTOM*
G04 Layer:  PIN/SOLDERMASK_BOTTOM*
G04 Layer:  VIA CLASS/SOLDERMASK_BOTTOM*
G04 *
G04 Offset:    (0.000 0.000)*
G04 Mirror:    No*
G04 Mode:      Positive*
G04 Rotation:  0*
G04 FullContactRelief:  No*
G04 UndefLineWidth:     1.000*
G04 ================== end FILE IDENTIFICATION RECORD ====================*
%FSLAX25Y25*MOIN*%
%IR0*IPPOS*OFA0.00000B0.00000*MIA0B0*SFA1.00000B1.00000*%
%ADD21R,.027559X.027559*%
%ADD34R,.051181X.110236*%
%ADD29O,.007874X.019685*%
%ADD33O,.019685X.007874*%
%ADD30R,.007874X.019685*%
%ADD16R,.04X.05*%
%ADD15R,.041X.071*%
%ADD12R,.037X.032*%
%ADD19R,.032X.037*%
%ADD27R,.057X.041*%
%ADD20R,.041X.057*%
%ADD14O,.094X.025*%
%ADD17C,.016*%
%ADD13R,.094X.025*%
%ADD22R,.032X.032*%
%ADD11C,.067*%
%ADD10C,.077*%
%ADD32R,.055118X.011811*%
%ADD24O,.025591X.011811*%
%ADD31C,.021657*%
%ADD18O,.051181X.025591*%
%ADD35O,.051181X.031496*%
%ADD36R,.051181X.047244*%
%ADD23R,.059055X.035433*%
%ADD26R,.03937X.047244*%
%ADD28O,.027559X.047244*%
%ADD25R,.062992X.074803*%
G75*
%LPD*%
G75*
G36*
G01X111500Y-102100D02*
X112300Y-101300D01*
X122700D01*
Y-103300D01*
X111500D01*
Y-102100D01*
G37*
G54D10*
X7300Y-238600D03*
X7000Y-7100D03*
X142800Y-237400D03*
X142200Y-7100D03*
G54D11*
X12300Y-228300D03*
Y-218300D03*
X140300Y-55300D03*
Y-65300D03*
G54D20*
X62029Y-143700D03*
X68171D03*
G54D12*
X10000Y-198059D03*
X10100Y-205541D03*
Y-210659D03*
X10000Y-192941D03*
X9900Y-187459D03*
Y-182341D03*
X9700Y-176359D03*
Y-171241D03*
X56100Y-203459D03*
Y-198341D03*
X57400Y-111041D03*
Y-116159D03*
X89400Y-186041D03*
Y-191159D03*
X90500Y-107541D03*
Y-112659D03*
X138400Y-207059D03*
Y-201941D03*
G54D30*
X111588Y-99623D03*
G54D21*
X66243Y-203603D03*
Y-189823D03*
X83763Y-203603D03*
Y-189823D03*
G54D31*
X122047Y-235826D03*
Y-228740D03*
G54D22*
X74497Y-175016D03*
X80297Y-175116D03*
X74497Y-159268D03*
X80297Y-159368D03*
X80303Y-143680D03*
X74503Y-143580D03*
X74403Y-131509D03*
X80203Y-131609D03*
X74503Y-125672D03*
X80303Y-125772D03*
G54D13*
X23500Y-203400D03*
G54D23*
X80905Y-109646D03*
X68701D03*
X80905Y-102952D03*
X68701D03*
G54D32*
X121138Y-214531D03*
Y-216499D03*
Y-218468D03*
Y-220436D03*
Y-212562D03*
X138461Y-220436D03*
Y-218468D03*
Y-216499D03*
Y-214531D03*
Y-212562D03*
G54D14*
X23500Y-198400D03*
Y-193400D03*
Y-188400D03*
Y-183400D03*
Y-178400D03*
Y-173400D03*
Y-168400D03*
X43100Y-198400D03*
Y-203400D03*
Y-178400D03*
Y-183400D03*
Y-188400D03*
Y-193400D03*
Y-168400D03*
Y-173400D03*
G54D24*
X93244Y-203032D03*
Y-206968D03*
X98756D03*
Y-205000D03*
Y-203032D03*
G54D15*
X27712Y-158900D03*
X16688D03*
X38888Y-155700D03*
X49912D03*
G54D33*
X117100Y-102300D03*
G54D25*
X88457Y-176439D03*
G54D16*
X16800Y-139600D03*
X24800D03*
X38900Y-144900D03*
X46900D03*
G54D34*
X142787Y-174667D03*
G54D26*
X98299Y-116990D03*
G54D35*
X142787Y-158328D03*
G54D17*
X33500Y-144800D03*
X32500Y-140800D03*
G54D36*
X142787Y-133919D03*
G54D18*
X64058Y-224270D03*
X83742D03*
G54D27*
X102100Y-221371D03*
Y-215229D03*
X110500Y-221471D03*
Y-215329D03*
G54D28*
X104402Y-116990D03*
X108732D03*
X113063D03*
X117394D03*
X121724D03*
X126055D03*
X130386D03*
X134716D03*
X138457D03*
G54D19*
X63341Y-175000D03*
Y-159200D03*
Y-165700D03*
X63755Y-131491D03*
Y-125665D03*
X68459Y-175000D03*
Y-159200D03*
Y-165700D03*
X68873Y-131491D03*
Y-125665D03*
X93459Y-198100D03*
X88341D03*
G54D29*
X111588Y-104977D03*
X113163D03*
X114738D03*
X116313D03*
Y-99623D03*
X114738D03*
X113163D03*
X117887Y-104977D03*
X119462D03*
X121037D03*
X122612D03*
Y-99623D03*
X121037D03*
X119462D03*
X117887D03*
M02*
