G04 ================== begin FILE IDENTIFICATION RECORD ==================*
G04 Layout Name:  EPTS_PERFANL_B_V0_2.brd*
G04 Film Name:    PERFANL-B-V0-2-TOP*
G04 File Format:  Gerber RS274X*
G04 File Origin:  Cadence Allegro 17.2-P019*
G04 Origin Date:  Sun Jun 30 20:04:02 2019*
G04 *
G04 Layer:  VIA CLASS/TOP*
G04 Layer:  PIN/TOP*
G04 Layer:  ETCH/TOP*
G04 *
G04 Offset:    (0.000 0.000)*
G04 Mirror:    No*
G04 Mode:      Positive*
G04 Rotation:  0*
G04 FullContactRelief:  No*
G04 UndefLineWidth:     1.000*
G04 ================== end FILE IDENTIFICATION RECORD ====================*
%FSLAX25Y25*MOIN*%
%IR0*IPPOS*OFA0.00000B0.00000*MIA0B0*SFA1.00000B1.00000*%
%ADD16R,.084646X.062992*%
%AMMACRO40*
4,1,40,-.01378,-.02815,
-.01378,.02815,
-.013758,.02839,
-.013694,.028623,
-.013591,.028842,
-.013452,.029039,
-.01328,.029208,
-.013082,.029346,
-.012862,.029447,
-.012629,.029508,
-.012402,.029528,
.012402,.029528,
.012642,.029506,
.012875,.029442,
.013094,.029339,
.013291,.0292,
.01346,.029028,
.013598,.02883,
.013699,.02861,
.01376,.028377,
.01378,.02815,
.01378,-.02815,
.013758,-.02839,
.013694,-.028623,
.013591,-.028842,
.013452,-.029039,
.01328,-.029208,
.013082,-.029346,
.012862,-.029447,
.012629,-.029508,
.012402,-.029528,
-.012402,-.029528,
-.012642,-.029506,
-.012875,-.029442,
-.013094,-.029339,
-.013291,-.0292,
-.01346,-.029028,
-.013598,-.02883,
-.013699,-.02861,
-.01376,-.028377,
-.01378,-.02815,
0.0*
%
%ADD40MACRO40*%
%AMMACRO33*
4,1,40,-.02815,.01378,
.02815,.01378,
.02839,.013758,
.028623,.013694,
.028842,.013591,
.029039,.013452,
.029208,.01328,
.029346,.013082,
.029447,.012862,
.029508,.012629,
.029528,.012402,
.029528,-.012402,
.029506,-.012642,
.029442,-.012875,
.029339,-.013094,
.0292,-.013291,
.029028,-.01346,
.02883,-.013598,
.02861,-.013699,
.028377,-.01376,
.02815,-.01378,
-.02815,-.01378,
-.02839,-.013758,
-.028623,-.013694,
-.028842,-.013591,
-.029039,-.013452,
-.029208,-.01328,
-.029346,-.013082,
-.029447,-.012862,
-.029508,-.012629,
-.029528,-.012402,
-.029528,.012402,
-.029506,.012642,
-.029442,.012875,
-.029339,.013094,
-.0292,.013291,
-.029028,.01346,
-.02883,.013598,
-.02861,.013699,
-.028377,.01376,
-.02815,.01378,
0.0*
%
%ADD33MACRO33*%
%ADD20R,.120079X.094882*%
%AMMACRO15*
4,1,44,.005118,.01437,
.005118,-.01437,
.00508,-.014814,
.004966,-.015244,
.004778,-.015648,
.004524,-.016013,
.00421,-.016328,
.003846,-.016584,
.003442,-.016773,
.003013,-.016889,
.002569,-.016929,
.002559,-.016929,
-.002559,-.016929,
-.003003,-.016891,
-.003433,-.016777,
-.003837,-.016589,
-.004202,-.016335,
-.004517,-.016021,
-.004773,-.015657,
-.004962,-.015253,
-.005078,-.014824,
-.005118,-.01438,
-.005118,-.01437,
-.005118,.01437,
-.00508,.014814,
-.004966,.015244,
-.004778,.015648,
-.004524,.016013,
-.00421,.016328,
-.003846,.016584,
-.003442,.016773,
-.003013,.016889,
-.002569,.016929,
-.002559,.016929,
.002559,.016929,
.003003,.016891,
.003433,.016777,
.003837,.016589,
.004202,.016335,
.004517,.016021,
.004773,.015657,
.004962,.015253,
.005078,.014824,
.005118,.01438,
.005118,.01437,
0.0*
%
%ADD15MACRO15*%
%ADD30O,.011X.07*%
%ADD25O,.07X.011*%
%ADD24R,.125984X.088583*%
%ADD19R,.108X.103*%
%ADD31R,.011X.07*%
%ADD45R,.05X.04*%
%ADD26R,.07X.011*%
%ADD32R,.034X.04*%
%ADD37R,.034X.05*%
%ADD47O,.022X.078*%
%ADD18R,.033X.028*%
%ADD27C,.012*%
%ADD14R,.028X.033*%
%ADD17R,.053X.037*%
%ADD13R,.037X.053*%
%ADD28O,.030512X.061024*%
%ADD12C,.016*%
%ADD11C,.062*%
%ADD41R,.059X.063*%
%AMMACRO34*
4,1,44,-.027559,.019685,
.027559,.019685,
.0279,.019656,
.028231,.019569,
.028541,.019425,
.028822,.01923,
.029065,.018989,
.029262,.018709,
.029407,.0184,
.029497,.018069,
.029528,.017729,
.029528,.017717,
.029528,-.017717,
.029499,-.018058,
.029411,-.018389,
.029268,-.018699,
.029072,-.01898,
.028831,-.019222,
.028551,-.019419,
.028242,-.019565,
.027911,-.019654,
.027571,-.019685,
.027559,-.019685,
-.027559,-.019685,
-.0279,-.019656,
-.028231,-.019569,
-.028541,-.019425,
-.028822,-.01923,
-.029065,-.018989,
-.029262,-.018709,
-.029407,-.0184,
-.029497,-.018069,
-.029528,-.017729,
-.029528,-.017717,
-.029528,.017717,
-.029499,.018058,
-.029411,.018389,
-.029268,.018699,
-.029072,.01898,
-.028831,.019222,
-.028551,.019419,
-.028242,.019565,
-.027911,.019654,
-.027571,.019685,
-.027559,.019685,
0.0*
%
%ADD34MACRO34*%
%ADD38O,.011811X.035433*%
%ADD39O,.035433X.011811*%
%ADD10C,.077*%
%ADD44R,.01378X.011811*%
%ADD48R,.011811X.01378*%
%ADD21R,.023228X.062205*%
%ADD43R,.037402X.041732*%
%ADD46C,.021657*%
%ADD23R,.031496X.011811*%
%ADD29O,.051181X.025591*%
%ADD22R,.011811X.031496*%
%ADD35R,.059055X.061024*%
%ADD42R,.055118X.035433*%
%ADD36R,.015748X.05315*%
%ADD49R,.03937X.062992*%
%ADD50C,.008*%
%ADD51C,.01*%
%ADD52C,.015*%
%ADD55C,.036004*%
%ADD53O,.042004X.098004*%
%ADD54C,.041662*%
G75*
%LPD*%
G75*
G36*
G01X5243Y-234208D02*
G02X4704Y-233999I-170J362D01*
G02X3937Y-230157I9233J3842D01*
G01Y-169359D01*
G02X4620Y-169076I400J0D01*
G01X6241Y-170697D01*
Y-173050D01*
G03X7241Y-174050I1000J0D01*
G02X7441Y-174250I0J-200D01*
G01Y-175089D01*
X7152D01*
G03X6152Y-176089I0J-1000D01*
G01Y-179389D01*
G03X7152Y-180389I1000J0D01*
G01X7574D01*
Y-182803D01*
X7558Y-182880D01*
G03X7462Y-183364I1159J-482D01*
G01Y-184332D01*
X5272Y-186522D01*
X5259Y-186532D01*
G03X7101Y-189612I1041J-1468D01*
G02X7678Y-189971I178J-358D01*
G01Y-193600D01*
G03X7723Y-193895I1000J0D01*
G03X7462Y-194663I994J-767D01*
G01Y-195631D01*
X7200Y-195894D01*
Y-201722D01*
X7175Y-201767D01*
G03X7052Y-202248I877J-481D01*
G01Y-205548D01*
G03X7183Y-206044I1000J0D01*
G02X7051Y-206579I-347J-198D01*
G03X6590Y-207422I539J-843D01*
G01Y-211225D01*
X4900Y-212915D01*
Y-229497D01*
X8562Y-233159D01*
G02X8204Y-233835I-283J-283D01*
G03X5243Y-234208I-904J-4765D01*
G37*
G36*
G01X15823Y-231500D02*
G02X15510Y-230851I0J400D01*
G03X8202Y-228427I-3210J2551D01*
G02X7519Y-228722I-400J-12D01*
G01X7300Y-228503D01*
Y-213909D01*
X7489Y-213721D01*
X7574Y-213722D01*
G03X7590Y-213722I14J1000D01*
G01X11290D01*
G03X12290Y-212722I0J1000D01*
G01Y-207422D01*
G03X12231Y-207084I-1000J0D01*
G02X12608Y-206548I376J135D01*
G01X12739D01*
G02X12904Y-206861I0J-200D01*
G03X12732Y-207422I828J-561D01*
G01Y-212722D01*
G03X13732Y-213722I1000J0D01*
G01X17432D01*
G03X18432Y-212722I0J1000D01*
G01Y-207422D01*
G03X17432Y-206422I-1000J0D01*
G01X17288D01*
G02X16911Y-205886I0J400D01*
G03X16970Y-205548I-941J338D01*
G01Y-202248D01*
G03X16963Y-202125I-1000J0D01*
G01X16961Y-202113D01*
Y-201900D01*
X19897D01*
X22100Y-199697D01*
Y-190197D01*
X22267Y-190030D01*
G02X22950Y-190313I283J-283D01*
G01Y-192541D01*
G03X23389Y-193369I1000J0D01*
G02Y-194031I-224J-331D01*
G03X22950Y-194859I561J-828D01*
G01Y-197659D01*
G03X23950Y-198659I1000J0D01*
G01X24300D01*
Y-202803D01*
X18900Y-208203D01*
Y-220297D01*
X21720Y-223117D01*
G02X21437Y-223800I-283J-283D01*
G01X20142D01*
G03Y-226200I-1342J-1200D01*
G01X20771D01*
G02X21065Y-226872I0J-400D01*
G03X20800Y-227550I735J-678D01*
G01Y-231500D01*
X15823D01*
G37*
G36*
G01X6143Y-167205D02*
X5400Y-166462D01*
Y-155850D01*
X8479D01*
G03X9479Y-154850I0J1000D01*
G01Y-149550D01*
G03X8479Y-148550I-1000J0D01*
G01X7829D01*
Y-147550D01*
X14759D01*
G03X15759Y-146550I0J1000D01*
G01Y-143250D01*
G03X14759Y-142250I-1000J0D01*
G01X9441D01*
Y-140641D01*
G02X9657Y-140442I200J0D01*
G03X9739Y-140445I80J997D01*
G01X12061D01*
G03X13062Y-139445I0J1000D01*
G01Y-137535D01*
X13738D01*
Y-139445D01*
G03X14739Y-140445I1000J0D01*
G01X16900D01*
Y-146397D01*
X17903Y-147400D01*
X16136Y-149167D01*
G02X15501Y-149074I-283J283D01*
G03X14621Y-148550I-880J-476D01*
G01X10921D01*
G03X9921Y-149550I0J-1000D01*
G01Y-154850D01*
G03X10921Y-155850I1000J0D01*
G01X14621D01*
G03X14892Y-155813I0J1000D01*
G02X15400Y-156198I108J-385D01*
G01Y-156750D01*
X7341D01*
G03X6341Y-157750I0J-1000D01*
G01Y-161050D01*
G03X7341Y-162050I1000J0D01*
G01X12659D01*
Y-162550D01*
X7341D01*
G03X6341Y-163550I0J-1000D01*
G01Y-166850D01*
G03X6343Y-166910I1000J0D01*
G01X6348Y-167000D01*
X6143Y-167205D01*
G37*
G36*
G01X4463Y-148601D02*
G02X3937Y-148221I-126J380D01*
G01Y-90500D01*
G02X4620Y-90217I400J0D01*
G01X5309Y-90907D01*
G02X5288Y-91492I-283J-283D01*
G03X4941Y-92250I653J-757D01*
G01Y-94603D01*
X4500Y-95044D01*
Y-126497D01*
X6003Y-128000D01*
X8297D01*
X10713Y-125584D01*
G02X11396Y-125867I283J-283D01*
G01Y-130744D01*
G03X12396Y-131744I1000J0D01*
G01X24404D01*
G03X25404Y-130744I0J1000D01*
G01Y-121256D01*
G03X24404Y-120256I-1000J0D01*
G01X12396D01*
G03X11685Y-120553I0J-1000D01*
G02X11000Y-120272I-284J281D01*
G01Y-119776D01*
X12061D01*
G03X13062Y-118776I0J1000D01*
G01Y-116866D01*
X13738D01*
Y-118776D01*
G03X14739Y-119776I1000J0D01*
G01X17061D01*
G03X18062Y-118776I0J1000D01*
G01Y-112555D01*
G03X17061Y-111555I-1000J0D01*
G01X14739D01*
G03X13738Y-112555I0J-1000D01*
G01Y-114465D01*
X13062D01*
Y-112555D01*
G03X12260Y-111575I-1000J0D01*
G01X12100Y-111542D01*
Y-110121D01*
X14050D01*
G03X15050Y-109121I0J1000D01*
G01Y-108471D01*
X15541D01*
Y-108950D01*
G03X16541Y-109950I1000J0D01*
G01X19687D01*
G02X19970Y-110633I0J-400D01*
G01X19700Y-110903D01*
Y-111542D01*
X19540Y-111575D01*
G03X18738Y-112555I199J-980D01*
G01Y-118776D01*
G03X19739Y-119776I1000J0D01*
G01X22061D01*
G03X23062Y-118776I0J1000D01*
G01Y-112555D01*
G03X22749Y-111829I-1000J0D01*
G02X22742Y-111256I275J290D01*
G01X24047Y-109950D01*
X24459D01*
G03X25102Y-109716I0J1000D01*
G02X25642Y-109739I257J-306D01*
G01X26775Y-110872D01*
G02X26492Y-111555I-283J-283D01*
G01X24739D01*
G03X23738Y-112555I0J-1000D01*
G01Y-118776D01*
G03X24739Y-119776I1000J0D01*
G01X27061D01*
G03X28062Y-118776I0J1000D01*
G01Y-113125D01*
G02X28744Y-112842I400J0D01*
G01X29200Y-113297D01*
Y-139797D01*
X31553Y-142150D01*
X30259Y-143443D01*
X30021Y-145378D01*
X30849Y-146798D01*
G02X30503Y-147400I-346J-201D01*
G01X27522D01*
G02X27239Y-146717I0J400D01*
G01X27406Y-146550D01*
X27659D01*
G03X28659Y-145550I0J1000D01*
G01Y-142250D01*
G03X27659Y-141250I-1000J0D01*
G01X27100D01*
Y-140458D01*
X27260Y-140425D01*
G03X28062Y-139445I-199J980D01*
G01Y-133224D01*
G03X27061Y-132224I-1000J0D01*
G01X24739D01*
G03X23738Y-133224I0J-1000D01*
G01Y-139445D01*
G03X24540Y-140425I1000J0D01*
G01X24700Y-140458D01*
Y-141250D01*
X22100D01*
Y-140458D01*
X22260Y-140425D01*
G03X23062Y-139445I-199J980D01*
G01Y-133224D01*
G03X22061Y-132224I-1000J0D01*
G01X19739D01*
G03X18738Y-133224I0J-1000D01*
G01Y-136993D01*
G02X18397Y-137134I-200J0D01*
G01X18062Y-136799D01*
Y-133224D01*
G03X17061Y-132224I-1000J0D01*
G01X14739D01*
G03X13738Y-133224I0J-1000D01*
G01Y-135134D01*
X13062D01*
Y-133224D01*
G03X12061Y-132224I-1000J0D01*
G01X9739D01*
G03X8738Y-133224I0J-1000D01*
G01Y-136799D01*
X7041Y-138496D01*
Y-142050D01*
G02X6841Y-142250I-200J0D01*
G03X5841Y-143250I0J-1000D01*
G01Y-145603D01*
X5429Y-146015D01*
Y-148550D01*
X4779D01*
G03X4463Y-148601I0J-1000D01*
G37*
G36*
G01X15050Y-106071D02*
Y-105421D01*
G03X14050Y-104421I-1000J0D01*
G01X8700D01*
Y-103979D01*
X14050D01*
G03X15050Y-102979I0J1000D01*
G01Y-99279D01*
G03X14990Y-98937I-1000J0D01*
G02X15366Y-98400I376J137D01*
G01X15501D01*
G02X15855Y-98986I0J-400D01*
G03X15741Y-99450I886J-464D01*
G01Y-102750D01*
G03X16741Y-103750I1000J0D01*
G01X22059D01*
Y-104650D01*
X16541D01*
G03X15541Y-105650I0J-1000D01*
G01Y-106071D01*
X15050D01*
G37*
G36*
G01X6997Y-89200D02*
X6400Y-88603D01*
Y-76297D01*
X7697Y-75000D01*
X8057D01*
G02X8455Y-75440I0J-400D01*
G03X8450Y-75541I995J-101D01*
G01Y-78341D01*
G03X8889Y-79169I1000J0D01*
G02Y-79831I-224J-331D01*
G03X8450Y-80659I561J-828D01*
G01Y-83459D01*
G03X8684Y-84102I1000J0D01*
G02X8527Y-84730I-306J-257D01*
G03X10486Y-87660I673J-1670D01*
G01X10544Y-87600D01*
X10797D01*
X12300Y-86097D01*
Y-85918D01*
G02X12650Y-85522I400J0D01*
G03X13000Y-85125I-50J397D01*
G01Y-84437D01*
X13125Y-84386D01*
G03X13750Y-83459I-375J927D01*
G01Y-82652D01*
X14262Y-82141D01*
X15054D01*
Y-82349D01*
X15053Y-82358D01*
G03X15050Y-82441I997J-84D01*
G01Y-84544D01*
X13000Y-86594D01*
Y-89003D01*
X12803Y-89200D01*
X6997D01*
G37*
G36*
G01X59529Y-5702D02*
X54016D01*
G03X52821Y-6900I2J-1196D01*
G01Y-10442D01*
G03X53101Y-11212I1196J-1D01*
G03X52821Y-11957I859J-747D01*
G01Y-14440D01*
G03X53085Y-15167I1139J2D01*
G03X52824Y-15814I875J-729D01*
G01X52811Y-16000D01*
X50703D01*
X49100Y-17603D01*
Y-20497D01*
X50875Y-22273D01*
X52808D01*
X52829Y-22449D01*
G03X53085Y-23041I1130J137D01*
G03X52821Y-23768I875J-729D01*
G01Y-26251D01*
G03X53085Y-26978I1139J2D01*
G03X52821Y-27705I875J-729D01*
G01Y-30188D01*
G03X53085Y-30915I1139J2D01*
G03X52821Y-31642I875J-729D01*
G01Y-34125D01*
G03X53085Y-34852I1139J2D01*
G03X52821Y-35579I875J-729D01*
G01Y-38062D01*
G03X53085Y-38789I1139J2D01*
G03X52821Y-39516I875J-729D01*
G01Y-41999D01*
G03X53085Y-42726I1139J2D01*
G03X52821Y-43453I875J-729D01*
G01Y-45895D01*
X51497D01*
X51320Y-45718D01*
X51210Y-45828D01*
X51043Y-45661D01*
X51028Y-45629D01*
G03X50121Y-45050I-907J-421D01*
G01X46421D01*
G03X45421Y-46050I0J-1000D01*
G01Y-51350D01*
G03X46421Y-52350I1000J0D01*
G01X50121D01*
G03X50138Y-52350I2J1000D01*
G01X50222Y-52349D01*
X51060Y-53186D01*
X50815Y-53432D01*
X50685Y-53364D01*
G03X50221Y-53250I-464J-886D01*
G01X46521D01*
G03X45521Y-54250I0J-1000D01*
G01Y-59550D01*
G03X46521Y-60550I1000J0D01*
G01X50221D01*
G03X51221Y-59550I0J1000D01*
G01Y-57706D01*
X52808D01*
X52829Y-57882D01*
G03X53958Y-58884I1130J137D01*
G01X59590D01*
G03X60619Y-58230I-2J1139D01*
G01X60673Y-58115D01*
X61000D01*
Y-58903D01*
X50202Y-69701D01*
X50118Y-69700D01*
G03X48441Y-70800I-18J-1800D01*
G02X47732Y-70855I-369J155D01*
G03X45932Y-70020I-1532J-945D01*
G01X45832Y-70035D01*
X43429Y-67632D01*
Y-60550D01*
X44079D01*
G03X45079Y-59550I0J1000D01*
G01Y-54250D01*
G03X44079Y-53250I-1000J0D01*
G01X40379D01*
G03X39379Y-54250I0J-1000D01*
G01Y-59550D01*
G03X40379Y-60550I1000J0D01*
G01X41029D01*
Y-68626D01*
X44411Y-72008D01*
X44421Y-72073D01*
G03X44541Y-72499I1779J273D01*
G01X44593Y-72623D01*
X44357Y-72859D01*
X41597Y-70100D01*
X21303D01*
X18803Y-72600D01*
X11650D01*
Y-71441D01*
G02X11863Y-70824I1000J0D01*
G03X11706Y-70500I-157J123D01*
G01X11479D01*
G03X11099Y-71026I0J-400D01*
G02X11150Y-71341I-949J-315D01*
G01Y-72600D01*
X6703D01*
X4620Y-74683D01*
G02X3937Y-74400I-283J283D01*
G01Y-13937D01*
G02X4197Y-11672I10000J0D01*
G02X4770Y-11407I390J-91D01*
G03X11275Y-4808I2230J4307D01*
G02X11531Y-4231I353J189D01*
G02X13937Y-3937I2406J-9706D01*
G01X61000D01*
Y-5713D01*
G02X60332Y-6010I-400J0D01*
G03X59529Y-5702I-801J-888D01*
G37*
G36*
G01X13937Y-240157D02*
G02X12384Y-240036I0J10000D01*
G02X12054Y-239562I62J395D01*
G03X10083Y-234628I-4754J962D01*
G02X10313Y-233900I229J328D01*
G01X20800D01*
Y-237850D01*
G03X21800Y-238850I1000J0D01*
G01X32600D01*
G03X33600Y-237850I0J1000D01*
G01Y-227550D01*
G03X32600Y-226550I-1000J0D01*
G01X28400D01*
Y-225653D01*
X28030Y-225283D01*
G02X28313Y-224600I283J283D01*
G01X32303D01*
X34700Y-226997D01*
Y-238797D01*
X35377Y-239475D01*
G02X35094Y-240157I-283J-283D01*
G01X13937D01*
G37*
G36*
G01X63103Y-217500D02*
X67015Y-221412D01*
G03X66994Y-221613I980J-201D01*
G01Y-226928D01*
G03X67994Y-227928I1000J0D01*
G01X68317D01*
G02X68714Y-228377I0J-400D01*
G03X68730Y-228927I1786J-223D01*
G02X68336Y-229400I-393J-73D01*
G01X63903D01*
X61600Y-231703D01*
Y-237403D01*
X60503Y-238500D01*
X53212D01*
G02X52837Y-237960I0J400D01*
G03X52899Y-237612I-937J349D01*
G01Y-228754D01*
G03X51899Y-227753I-1000J0D01*
G01X39301D01*
G03X38301Y-228754I0J-1000D01*
G01Y-237612D01*
G03X38363Y-237960I1000J0D01*
G02X37988Y-238500I-375J-139D01*
G01X37797D01*
X37100Y-237803D01*
Y-226003D01*
X33297Y-222200D01*
X24197D01*
X23030Y-221033D01*
G02X23313Y-220350I283J283D01*
G01X32600D01*
G03X33600Y-219350I0J1000D01*
G01Y-215400D01*
X34497D01*
X34697Y-215200D01*
X41197D01*
X42700Y-213697D01*
Y-211447D01*
X51249D01*
X57303Y-217500D01*
X63103D01*
G37*
G36*
G01X48897Y-189700D02*
X48948Y-189649D01*
G02X49631Y-189932I283J-283D01*
G01Y-196413D01*
G03X49740Y-196867I1000J0D01*
G02X49568Y-197404I-356J-182D01*
G03X48885Y-199972I832J-1597D01*
G02X48548Y-200588I-337J-216D01*
G01X39301D01*
G03X38301Y-201588I0J-1000D01*
G01Y-210446D01*
G03X39301Y-211447I1000J0D01*
G01X40300D01*
Y-212703D01*
X40203Y-212800D01*
X33600D01*
Y-209050D01*
G03X32600Y-208050I-1000J0D01*
G01X23413D01*
G02X23130Y-207367I0J400D01*
G01X26700Y-203797D01*
Y-198659D01*
X27250D01*
G03X28250Y-197659I0J1000D01*
G02X28450Y-197459I200J0D01*
G01X28750D01*
G02X28950Y-197659I0J-200D01*
G03X29950Y-198659I1000J0D01*
G01X33250D01*
G03X34250Y-197659I0J1000D01*
G01Y-194859D01*
G03X33811Y-194031I-1000J0D01*
G02Y-193369I224J331D01*
G03X34250Y-192541I-561J828D01*
G02X34450Y-192341I200J0D01*
G01X35359D01*
X35397Y-192357D01*
G03X37880Y-190432I703J1657D01*
G01X37865Y-190332D01*
X38497Y-189700D01*
X48897D01*
G37*
G36*
G01X12656Y-182107D02*
G03X11927Y-182340I-1J-1256D01*
G03X11198Y-182107I-728J-1023D01*
G01X10687D01*
G03X10590Y-182111I-1J-1256D01*
G02X10374Y-181912I-15J199D01*
G01Y-180389D01*
X15070D01*
G03X15719Y-180150I0J1000D01*
G02X16227Y-180142I259J-304D01*
G03X16850Y-180359I623J783D01*
G01X17300D01*
Y-180703D01*
X15746Y-182257D01*
X15622Y-182205D01*
G03X15135Y-182107I-486J-1158D01*
G01X14624D01*
G03X13895Y-182340I-1J-1256D01*
G03X13166Y-182107I-728J-1023D01*
G01X12656D01*
G37*
G36*
G01X28250Y-195059D02*
Y-194859D01*
G03X27811Y-194031I-1000J0D01*
G02Y-193369I224J331D01*
G03X28250Y-192541I-561J828D01*
G01Y-189741D01*
G03X27250Y-188741I-1000J0D01*
G01X23950D01*
G03X23658Y-188784I0J-1000D01*
G01X23630Y-188793D01*
X23400D01*
Y-188479D01*
G02X23926Y-188099I400J0D01*
G03X24241Y-188150I315J949D01*
G01X30400D01*
Y-188741D01*
X29950D01*
G03X28950Y-189741I0J-1000D01*
G01Y-192541D01*
G03X29389Y-193369I1000J0D01*
G02Y-194031I-224J-331D01*
G03X28950Y-194859I561J-828D01*
G01Y-195059D01*
X28250D01*
G37*
G36*
G01X23241Y-165978D02*
G02X22558Y-166261I-400J0D01*
G01X22400Y-166103D01*
Y-152982D01*
X22550Y-152943D01*
G03X22677Y-152905I-451J1743D01*
G01X22708Y-152895D01*
X22941D01*
Y-153250D01*
G03X23281Y-154002I1000J0D01*
G02X23331Y-154235I-132J-150D01*
G03X23241Y-154650I910J-415D01*
G01Y-157950D01*
G03X23622Y-158736I1000J0D01*
G02Y-159364I-247J-314D01*
G03X23241Y-160150I619J-786D01*
G01Y-163450D01*
G03X23460Y-164075I1000J0D01*
G02Y-164325I-156J-125D01*
G03X23241Y-164950I781J-625D01*
G01Y-165978D01*
G37*
G36*
G01X14859Y-92250D02*
G03X14512Y-91492I-1000J0D01*
G02X14491Y-90907I261J303D01*
G01X14579Y-90818D01*
G02X15202Y-90889I283J-283D01*
G03X16050Y-91359I848J530D01*
G01X19350D01*
G03X20350Y-90359I0J1000D01*
G01Y-87559D01*
G03X19911Y-86731I-1000J0D01*
G02Y-86069I224J331D01*
G03X20350Y-85241I-561J828D01*
G01Y-83876D01*
X21934D01*
Y-85235D01*
G03X22014Y-85629I1000J0D01*
G03X21934Y-86023I920J-394D01*
G01Y-87204D01*
G03X22014Y-87597I1000J0D01*
G03X21934Y-87991I920J-394D01*
G01Y-89172D01*
G03X22934Y-90172I1000J0D01*
G01X25969D01*
Y-91239D01*
G03X26969Y-92239I1000J0D01*
G01X32265D01*
Y-93502D01*
G02X31582Y-93785I-400J0D01*
G01X30497Y-92700D01*
X14859D01*
Y-92250D01*
G37*
G36*
G01X14433Y-81364D02*
G02X13750Y-81082I-283J283D01*
G01Y-80659D01*
G03X13311Y-79831I-1000J0D01*
G02Y-79169I224J331D01*
G03X13750Y-78341I-561J828D01*
G01Y-78141D01*
X16044D01*
X16957Y-79055D01*
G02Y-79620I-283J-283D01*
G03X16872Y-79748I283J-283D01*
G02X15950Y-80359I-922J389D01*
G01X15438D01*
X14433Y-81364D01*
G37*
G36*
G01X20805Y-79508D02*
X17038Y-75741D01*
X13750D01*
Y-75541D01*
G03X13745Y-75440I-1000J0D01*
G02X14143Y-75000I398J40D01*
G01X19797D01*
X22297Y-72500D01*
X40603D01*
X43253Y-75150D01*
X41743Y-76660D01*
G02X41060Y-76377I-283J283D01*
G01Y-76180D01*
G03X40060Y-75180I-1000J0D01*
G01X37025D01*
Y-74113D01*
G03X36024Y-73113I-1000J0D01*
G01X26969D01*
G03X25969Y-74113I0J-1000D01*
G01Y-75180D01*
X22934D01*
G03X21934Y-76180I0J-1000D01*
G01Y-77361D01*
G03X22014Y-77755I1000J0D01*
G03X21934Y-78149I920J-394D01*
G01Y-79508D01*
X20805D01*
G37*
G36*
G01X37997Y-174100D02*
X38279Y-173818D01*
G02X38904Y-173894I283J-283D01*
G03X39034Y-174078I1327J802D01*
G03Y-176048I1197J-985D01*
G03Y-178018I1197J-985D01*
G03Y-179988I1197J-985D01*
G03Y-181958I1197J-985D01*
G03Y-183928I1197J-985D01*
G03X38712Y-185220I1197J-985D01*
G02X38320Y-185700I-392J-79D01*
G01X37597D01*
X37300Y-185403D01*
Y-174197D01*
X37397Y-174100D01*
X37997D01*
G37*
G36*
G01X38568Y-140892D02*
G03X38316Y-140803I-252J-311D01*
G01X36406D01*
X36331Y-140729D01*
X36262Y-140758D01*
X36084Y-140639D01*
Y-139987D01*
X33400Y-137303D01*
Y-135657D01*
G02X33800Y-135257I400J0D01*
G03X33891Y-135247I0J400D01*
G02X34300Y-135200I409J-1753D01*
G03X34320Y-135199I0J200D01*
G02X34536Y-135358I20J-199D01*
G03X35040Y-136286I1764J358D01*
G01X35100Y-136344D01*
Y-136397D01*
X37536Y-138833D01*
X38316D01*
G02X38709Y-139309I0J-400D01*
G03X39034Y-140588I1522J-294D01*
G03X38869Y-140832I1197J-985D01*
G02X38568Y-140892I-176J96D01*
G37*
G36*
G01X44566Y-126869D02*
Y-126173D01*
X45500Y-123917D01*
Y-103997D01*
X45597Y-103900D01*
X62900D01*
Y-105200D01*
G03X62923Y-105414I1000J0D01*
G02X62532Y-105900I-391J-86D01*
G01X56703D01*
X49530Y-113072D01*
X49501Y-113087D01*
G03X51642Y-115900I799J-1613D01*
G01X53944D01*
X54341Y-116297D01*
Y-118650D01*
G03X55307Y-119650I1000J0D01*
G02X55500Y-119849I-7J-200D01*
G01Y-121097D01*
X57861Y-123458D01*
Y-124768D01*
G02X57385Y-125161I-400J0D01*
G03X56106Y-125486I-294J-1522D01*
G03X54136I-985J-1197D01*
G03X52166I-985J-1197D01*
G03X49631Y-126683I-985J-1197D01*
G01Y-130968D01*
G02X48948Y-131251I-400J0D01*
G01X44566Y-126869D01*
G37*
G36*
G01X36000Y-111303D02*
X35583Y-110885D01*
G02Y-110320I283J283D01*
G03X35700Y-110037I-283J283D01*
G01Y-109497D01*
X32700Y-106497D01*
Y-106042D01*
G02X34198Y-102925I1200J1342D01*
G03X34430Y-102894I66J394D01*
G02X34924Y-103030I165J-364D01*
G03X35200Y-103342I1477J1030D01*
G01Y-103897D01*
X38100Y-106797D01*
Y-126297D01*
X56900Y-145097D01*
Y-145503D01*
X48303Y-154100D01*
X48057D01*
G02X47662Y-153637I0J400D01*
G03X47328Y-152408I-1531J244D01*
G03Y-150438I-1197J985D01*
G03Y-148468I-1197J985D01*
G03X47462Y-146688I-1197J985D01*
G03X47681Y-146063I-781J625D01*
G01Y-144963D01*
G03X47462Y-144338I-1000J0D01*
G03X47328Y-142558I-1331J795D01*
G03Y-140588I-1197J985D01*
G03Y-138618I-1197J985D01*
G03X46131Y-136083I-1197J985D01*
G01X45220D01*
G02X44820Y-135683I0J400D01*
G03X44703Y-135400I-400J0D01*
G01X43063Y-133760D01*
G03X42922Y-133669I-283J-283D01*
G02X42671Y-133223I142J374D01*
G03X39810Y-131468I-1771J323D01*
G01X39671Y-131573D01*
X36000Y-127903D01*
Y-111303D01*
G37*
G36*
G01X42166Y-126003D02*
G02X41483Y-126285I-400J0D01*
G01X40500Y-125303D01*
Y-122315D01*
X40667Y-122287D01*
G03X40764Y-122257I-67J394D01*
G02X41230Y-122120I736J-1643D01*
G01X41400Y-122094D01*
Y-106197D01*
X40883Y-105680D01*
G03X40456Y-105590I-283J-283D01*
G01X40334Y-105637D01*
X37818Y-103121D01*
X37907Y-102985D01*
G03X38194Y-101846I-1507J985D01*
G02X38486Y-101426I399J34D01*
G03X38620Y-101360I-106J386D01*
G02X41500Y-102818I1080J-1440D01*
G01X41499Y-102902D01*
X42417Y-103820D01*
G03X42700Y-103937I283J283D01*
G02X43100Y-104337I0J-400D01*
G01Y-123440D01*
X42166Y-125696D01*
Y-126003D01*
G37*
G36*
G01X37259Y-92300D02*
G02X36906Y-91711I0J400D01*
G03X37025Y-91239I-882J472D01*
G01Y-90172D01*
X40060D01*
G03X40381Y-90120I0J1000D01*
G02X40907Y-90535I128J-379D01*
G03X41191Y-91682I1793J-165D01*
G02X40856Y-92300I-335J-218D01*
G01X37259D01*
G37*
G36*
G01X44100Y-89500D02*
Y-85303D01*
X43038Y-84241D01*
G02X43168Y-83588I283J283D01*
G01X43921Y-83276D01*
X44327Y-82871D01*
G02X44935Y-82921I283J-283D01*
G03X45189Y-83169I815J580D01*
G02Y-83831I-224J-331D01*
G03X44750Y-84659I561J-828D01*
G01Y-87459D01*
G03X45750Y-88459I1000J0D01*
G01X49050D01*
G03X49157Y-88454I0J1000D01*
G02X49600Y-88851I43J-398D01*
G01Y-89403D01*
X49503Y-89500D01*
X44100D01*
G37*
G36*
G01X27084Y-87089D02*
Y-86023D01*
G03X27003Y-85629I-1000J0D01*
G03X27084Y-85235I-920J394D01*
G01Y-84054D01*
G03X27003Y-83660I-1000J0D01*
G03X27084Y-83267I-920J394D01*
G01Y-82086D01*
G03X27003Y-81692I-1000J0D01*
G03X27084Y-81298I-920J394D01*
G01Y-80117D01*
G03X27003Y-79723I-1000J0D01*
G03X27084Y-79330I-920J394D01*
G01Y-78263D01*
X35910D01*
Y-79330D01*
G03X35991Y-79723I1000J0D01*
G03X35910Y-80117I920J-394D01*
G01Y-81298D01*
G03X35991Y-81692I1000J0D01*
G03X35910Y-82086I920J-394D01*
G01Y-83267D01*
G03X35991Y-83660I1000J0D01*
G03X35910Y-84054I920J-394D01*
G01Y-85235D01*
G03X35991Y-85629I1000J0D01*
G03X35910Y-86023I920J-394D01*
G01Y-87089D01*
X27084D01*
G37*
G36*
G01X55097Y-211900D02*
X55298Y-211699D01*
X55382Y-211700D01*
G03X55418I18J1800D01*
G01X55502Y-211699D01*
X56503Y-212700D01*
X66020D01*
G02X66399Y-213231I0J-400D01*
G03X66900Y-215161I1701J-588D01*
G01Y-217297D01*
X67600Y-217997D01*
Y-218120D01*
G02X67258Y-218261I-200J0D01*
G01X64097Y-215100D01*
X58297D01*
X55097Y-211900D01*
G37*
G36*
G01X55136Y-204853D02*
G03X56218Y-205200I1063J1453D01*
G01X56302Y-205199D01*
X58103Y-207000D01*
X61197D01*
X61817Y-206380D01*
G02X62500Y-206663I283J-283D01*
G01Y-208597D01*
X63520Y-209617D01*
G02X63237Y-210300I-283J-283D01*
G01X57497D01*
X57199Y-210002D01*
X57200Y-209918D01*
G03X55382Y-208100I-1800J18D01*
G01X55298Y-208101D01*
X54500Y-207303D01*
Y-205175D01*
G02X55136Y-204853I400J0D01*
G37*
G36*
G01X60046Y-197060D02*
G03X60271Y-197214I985J1197D01*
G02X60357Y-197845I-196J-349D01*
G01X60100Y-198103D01*
Y-204600D01*
X59097D01*
X57999Y-203502D01*
X58000Y-203418D01*
G03X55136Y-201948I-1800J18D01*
G02X54500Y-201625I-236J323D01*
G01Y-200603D01*
X51896Y-197999D01*
X51886Y-197984D01*
G03X51872Y-197963I-1484J-1020D01*
G02X52065Y-197356I327J230D01*
G03X52356Y-197194I-334J943D01*
G03X54136Y-197060I795J1331D01*
G03X56106I985J1197D01*
G03X58076I985J1197D01*
G03X60046I985J1197D01*
G37*
G36*
G01X52975Y-181671D02*
G03X50042Y-179700I-1275J1271D01*
G01X48058D01*
G02X47663Y-179239I0J400D01*
G03X47629Y-178603I-1532J236D01*
G02X48015Y-178100I386J103D01*
G01X54174D01*
G02X54515Y-178709I0J-400D01*
G03X57392Y-180850I1535J-941D01*
G01X62278D01*
X62300Y-180855D01*
G03X64432Y-178609I400J1755D01*
G02X64817Y-178100I385J109D01*
G01X65103D01*
X66023Y-179020D01*
X65965Y-179147D01*
G03X67324Y-181679I1635J-753D01*
G02X67546Y-182357I-61J-395D01*
G01X65603Y-184300D01*
X53743D01*
G02X53353Y-183809I0J400D01*
G03X52957Y-182217I-1753J409D01*
G02X52975Y-181671I301J263D01*
G37*
G36*
G01X47667Y-164443D02*
X47618Y-164313D01*
G03X47462Y-164038I-937J-350D01*
G03X47328Y-162258I-1331J795D01*
G03X47628Y-161674I-1197J985D01*
G02X48037Y-161378I386J-103D01*
G03X48342Y-161261I22J399D01*
G01X54203Y-155400D01*
G03X54299Y-155247I-283J283D01*
G02X54736Y-154981I378J-130D01*
G03X56536Y-152261I264J1781D01*
G01X62100Y-146697D01*
Y-144403D01*
X51788Y-134090D01*
X51947Y-133931D01*
X51969Y-133918D01*
G03X52166Y-133780I-788J1335D01*
G03X54136I985J1197D01*
G03X56106I985J1197D01*
G03X58076I985J1197D01*
G03X59856Y-133914I985J1197D01*
G03X60481Y-134133I625J781D01*
G01X61581D01*
G03X62206Y-133914I0J1000D01*
G03X63986Y-133780I795J1331D01*
G03X65265Y-134105I985J1197D01*
G02X65741Y-134498I76J-393D01*
G01Y-140197D01*
X67844Y-142300D01*
X77097D01*
X77298Y-142099D01*
X77382Y-142100D01*
G03X78136Y-141943I18J1800D01*
G02X78700Y-142308I164J-365D01*
G01Y-146091D01*
X78520Y-146109D01*
G03X77781Y-146352I180J-1791D01*
G02X77536Y-146320I-102J172D01*
G03X77250Y-146200I-286J-280D01*
G01X66797D01*
X53954Y-159044D01*
G03X53841Y-159264I283J-283D01*
G02X53456Y-159600I-395J63D01*
G03X51700Y-161356I44J-1800D01*
G02X51364Y-161741I-400J10D01*
G03X51144Y-161854I63J-395D01*
G01X48554Y-164443D01*
X47667D01*
G37*
G36*
G01X51063Y-92300D02*
G02X50780Y-91617I0J400D01*
G01X52000Y-90397D01*
Y-88737D01*
G02X52472Y-88343I400J0D01*
G03X52650Y-88359I178J984D01*
G01X55950D01*
G03X56950Y-87359I0J1000D01*
G01Y-84559D01*
G03X56511Y-83731I-1000J0D01*
G02Y-83069I224J331D01*
G03X56950Y-82241I-561J828D01*
G01Y-79441D01*
G03X56873Y-79055I-1000J0D01*
G02X57242Y-78500I369J155D01*
G01X58321D01*
G02X58701Y-79026I0J-400D01*
G03X58650Y-79341I949J-315D01*
G01Y-82141D01*
G03X59089Y-82969I1000J0D01*
G02Y-83631I-224J-331D01*
G03X58650Y-84459I561J-828D01*
G01Y-87259D01*
G03X59650Y-88259I1000J0D01*
G01X62950D01*
G03X63950Y-87259I0J1000D01*
G01Y-84459D01*
G03X63511Y-83631I-1000J0D01*
G02Y-82969I224J331D01*
G03X63950Y-82141I-561J828D01*
G01Y-81909D01*
X65957D01*
G02X66350Y-82383I0J-400D01*
G03X66405Y-83182I1563J-294D01*
G01X66415Y-83213D01*
Y-83445D01*
X66053D01*
X64550Y-84948D01*
Y-90058D01*
G03X63997Y-91809I1200J-1342D01*
G02X63607Y-92300I-390J-91D01*
G01X51063D01*
G37*
G36*
G01X90649Y-76495D02*
G02X89966Y-76212I-283J283D01*
G01Y-73669D01*
X88697Y-72400D01*
X77400D01*
G03X76895Y-72512I0J-1200D01*
G01X76768Y-72570D01*
X76497Y-72300D01*
X70003D01*
X68353Y-73950D01*
X47534D01*
G02X47291Y-73232I0J400D01*
G03X47859Y-72500I-1091J1432D01*
G02X48568Y-72445I369J-155D01*
G03X51900Y-71482I1532J945D01*
G01X51899Y-71398D01*
X63400Y-59897D01*
Y-54597D01*
X83914Y-34084D01*
X87454D01*
X87475Y-34260D01*
G03X87731Y-34852I1130J137D01*
G03X87467Y-35579I875J-729D01*
G01Y-38062D01*
G03X87731Y-38789I1139J2D01*
G03X87467Y-39516I875J-729D01*
G01Y-41999D01*
G03X87731Y-42726I1139J2D01*
G03X87467Y-43453I875J-729D01*
G01Y-45936D01*
G03X87731Y-46663I1139J2D01*
G03X87467Y-47390I875J-729D01*
G01Y-49873D01*
G03X87731Y-50600I1139J2D01*
G03X87467Y-51327I875J-729D01*
G01Y-53810D01*
G03X87731Y-54537I1139J2D01*
G03X87467Y-55264I875J-729D01*
G01Y-57747D01*
G03X88604Y-58884I1139J2D01*
G01X92101D01*
X98517Y-65300D01*
X112903D01*
X114174Y-66571D01*
G02X114038Y-67226I-283J-283D01*
G03X116374Y-69562I662J-1674D01*
G02X117029Y-69426I372J-147D01*
G01X119903Y-72300D01*
X128449D01*
G02X128846Y-72743I0J-400D01*
G03X128841Y-72850I995J-107D01*
G01Y-73300D01*
X121803D01*
X121000Y-74103D01*
X120097Y-73200D01*
X93944D01*
X90649Y-76495D01*
G37*
G36*
G01X60727Y-52910D02*
Y-51327D01*
G03X60463Y-50600I-1139J-2D01*
G03X60727Y-49873I-875J729D01*
G01Y-47390D01*
G03X60463Y-46663I-1139J-2D01*
G03X60727Y-45936I-875J729D01*
G01Y-43453D01*
G03X60463Y-42726I-1139J-2D01*
G03X60727Y-41999I-875J729D01*
G01Y-39516D01*
G03X60463Y-38789I-1139J-2D01*
G03X60727Y-38062I-875J729D01*
G01Y-35579D01*
G03X60463Y-34852I-1139J-2D01*
G03X60727Y-34125I-875J729D01*
G01Y-31642D01*
G03X60463Y-30915I-1139J-2D01*
G03X60727Y-30188I-875J729D01*
G01Y-27705D01*
G03X60463Y-26978I-1139J-2D01*
G03X60727Y-26251I-875J729D01*
G01Y-23768D01*
G03X60463Y-23041I-1139J-2D01*
G03X60619Y-22796I-875J729D01*
G01X60673Y-22682D01*
X61000D01*
Y-23000D01*
X87112D01*
G02X87500Y-23496I0J-400D01*
G03X87467Y-23768I1105J-274D01*
G01Y-26251D01*
G03X87731Y-26978I1139J2D01*
G03X87467Y-27705I875J-729D01*
G01Y-30188D01*
G03X87731Y-30915I1139J2D01*
G03X87475Y-31507I875J-729D01*
G01X87454Y-31683D01*
X82920D01*
X61410Y-53193D01*
G02X60727Y-52910I-283J283D01*
G37*
G36*
G01X63205Y-240157D02*
G02X62923Y-239475I0J400D01*
G01X64000Y-238397D01*
Y-232697D01*
X64897Y-231800D01*
X66010D01*
Y-237951D01*
G03X67010Y-238951I1000J0D01*
G01X80790D01*
G03X81790Y-237951I0J1000D01*
G01Y-231849D01*
G03X80790Y-230849I-1000J0D01*
G01X75614D01*
G02X75332Y-230166I0J400D01*
G01X77570Y-227928D01*
X79806D01*
G03X80806Y-226928I0J1000D01*
G01Y-221613D01*
G03X79806Y-220612I-1000J0D01*
G01X75000D01*
Y-218203D01*
X74999Y-218202D01*
X75000Y-218118D01*
G03X72480Y-219750I-1800J18D01*
G01X72600Y-219802D01*
Y-220612D01*
X70000D01*
Y-217003D01*
X69300Y-216303D01*
Y-215161D01*
G03X69801Y-213231I-1200J1342D01*
G02X70180Y-212700I378J131D01*
G01X74603D01*
X99503Y-237600D01*
X107697D01*
X108524Y-236773D01*
X108641Y-236811D01*
G03X110513Y-236332I559J1711D01*
G02X111204Y-236606I292J-274D01*
G01Y-236614D01*
G03X112205Y-237614I1000J0D01*
G01X117716D01*
G03X118716Y-236614I0J1000D01*
G01Y-233070D01*
G03X118471Y-232414I-1000J0D01*
G02Y-232152I151J131D01*
G03X118716Y-231496I-755J656D01*
G01Y-227952D01*
G03X118704Y-227795I-1000J0D01*
G01X118688Y-227694D01*
X120281Y-226100D01*
X123813D01*
X125406Y-227694D01*
X125390Y-227795D01*
G03X125378Y-227952I988J-158D01*
G01Y-231496D01*
G03X125623Y-232152I1000J0D01*
G02Y-232414I-151J-131D01*
G03X125378Y-233070I755J-656D01*
G01Y-236614D01*
G03X126378Y-237614I1000J0D01*
G01X131890D01*
G03X132890Y-236614I0J1000D01*
G01Y-233070D01*
G03X132644Y-232414I-1000J0D01*
G02Y-232152I151J131D01*
G03X132890Y-231496I-755J656D01*
G01Y-231100D01*
X133256D01*
X133314Y-231160D01*
G03X135678Y-228458I1286J1260D01*
G02X135558Y-227960I239J320D01*
G03X135600Y-227785I-359J177D01*
G01X135600Y-227702D01*
X136220Y-227083D01*
G03X136337Y-226800I-283J283D01*
G02X136737Y-226400I400J0D01*
G01X143197D01*
X144700Y-224897D01*
Y-203803D01*
X141169Y-200271D01*
Y-195850D01*
G03X140168Y-194850I-1000J0D01*
G01X139400D01*
Y-184803D01*
X137300Y-182703D01*
Y-179500D01*
G03X136992Y-178405I-2100J0D01*
G01X139197Y-176200D01*
X139737D01*
X139770Y-176360D01*
G03X140750Y-177159I980J201D01*
G01X144050D01*
G03X145050Y-176159I0J1000D01*
G01Y-173359D01*
G03X144611Y-172531I-1000J0D01*
G02Y-171869I224J331D01*
G03X145050Y-171041I-561J828D01*
G01Y-168241D01*
G03X144050Y-167241I-1000J0D01*
G01X140750D01*
G03X139750Y-168241I0J-1000D01*
G01Y-169446D01*
G02X139067Y-169729I-400J0D01*
G01X137638Y-168300D01*
X117197D01*
X115100Y-166203D01*
Y-154803D01*
X112490Y-152193D01*
X111326D01*
G02X110933Y-151717I0J400D01*
G03X110608Y-150438I-1522J294D01*
G03Y-148468I-1197J985D01*
G03Y-146498I-1197J985D01*
G03Y-144528I-1197J985D01*
G03Y-142558I-1197J985D01*
G03Y-140588I-1197J985D01*
G03Y-138618I-1197J985D01*
G03X110950Y-137448I-1197J985D01*
G02X111347Y-137000I397J48D01*
G01X112003D01*
X114746Y-139743D01*
X117154D01*
X119998Y-136899D01*
X120082Y-136900D01*
G03X121609Y-134118I18J1800D01*
G02X121944Y-133500I335J218D01*
G01X127097D01*
X133400Y-127197D01*
Y-122858D01*
G02X133592Y-122658I200J0D01*
G03X134550Y-121659I-42J999D01*
G01Y-118859D01*
G03X134111Y-118031I-1000J0D01*
G02Y-117369I224J331D01*
G03X134550Y-116541I-561J828D01*
G01Y-113741D01*
G03X133550Y-112741I-1000J0D01*
G01X133100D01*
Y-109800D01*
X133600D01*
G03X134600Y-108800I0J1000D01*
G01Y-104800D01*
G03X133600Y-103800I-1000J0D01*
G01X130200D01*
G03X129200Y-104800I0J-1000D01*
G01Y-108800D01*
G03X130200Y-109800I1000J0D01*
G01X130700D01*
Y-112741D01*
X130250D01*
G03X129250Y-113741I0J-1000D01*
G01Y-116541D01*
G03X129689Y-117369I1000J0D01*
G02Y-118031I-224J-331D01*
G03X129250Y-118859I561J-828D01*
G01Y-121659D01*
G03X130250Y-122659I1000J0D01*
G01X131000D01*
Y-126203D01*
X126103Y-131100D01*
X124756D01*
G02X124356Y-130700I0J400D01*
G03X124291Y-130482I-400J0D01*
G02X125818Y-127700I1509J982D01*
G01X125902Y-127701D01*
X127200Y-126403D01*
Y-124077D01*
G03X127142Y-123870I-400J0D01*
G02X127189Y-123395I343J206D01*
G03X127450Y-122721I-739J674D01*
G01Y-119021D01*
G03X126450Y-118021I-1000J0D01*
G01X121150D01*
G03X121025Y-118029I0J-1000D01*
G01X121013Y-118030D01*
X120800D01*
Y-117570D01*
X121013D01*
X121025Y-117571D01*
G03X121150Y-117579I125J992D01*
G01X126450D01*
G03X127450Y-116579I0J1000D01*
G01Y-112879D01*
G03X126450Y-111879I-1000J0D01*
G01X125000D01*
Y-109800D01*
X126400D01*
G03X127400Y-108800I0J1000D01*
G01Y-104800D01*
G03X126400Y-103800I-1000J0D01*
G01X126180D01*
G02X126039Y-103458I0J200D01*
G01X130900Y-98597D01*
Y-89497D01*
X130997Y-89400D01*
X131742D01*
G03X132071Y-89914I1658J700D01*
G02X132061Y-90194I-148J-135D01*
G03X135092Y-91670I1239J-1306D01*
G01X135099Y-91598D01*
X135697Y-91000D01*
X140403D01*
X141520Y-92117D01*
G02X141237Y-92800I-283J-283D01*
G01X138742D01*
G03X135796Y-94818I-1342J-1200D01*
G02X135440Y-95400I-356J-182D01*
G01X133900D01*
G03X132900Y-96400I0J-1000D01*
G01Y-101400D01*
G03X133900Y-102400I1000J0D01*
G01X137300D01*
G03X138300Y-101400I0J1000D01*
G01Y-96400D01*
G03X138220Y-96008I-1000J0D01*
G02X138372Y-95515I368J157D01*
G03X138742Y-95200I-972J1515D01*
G01X141303D01*
X142000Y-95897D01*
Y-103535D01*
G02X141428Y-103896I-400J0D01*
G03X141000Y-103800I-428J-904D01*
G01X137600D01*
G03X136600Y-104800I0J-1000D01*
G01Y-108800D01*
G03X137600Y-109800I1000J0D01*
G01X138100D01*
Y-111779D01*
X136650D01*
G03X135650Y-112779I0J-1000D01*
G01Y-116479D01*
G03X136650Y-117479I1000J0D01*
G01X142000D01*
Y-117921D01*
X136650D01*
G03X135650Y-118921I0J-1000D01*
G01Y-122621D01*
G03X135663Y-122782I1000J0D01*
G03X138000Y-124482I537J-1718D01*
G01X137999Y-124398D01*
X138776Y-123621D01*
X142000D01*
Y-126103D01*
X135700Y-132403D01*
Y-140603D01*
X128703Y-147600D01*
X125842D01*
G03X124410Y-150598I-1342J-1200D01*
G02X124600Y-150798I-10J-200D01*
G03X127742Y-152000I1800J-2D01*
G01X130497D01*
X139800Y-142697D01*
Y-134097D01*
X144986Y-128911D01*
G02X145669Y-129194I283J-283D01*
G01Y-226894D01*
G02X145269Y-227294I-400J0D01*
G03X144986Y-227411I0J-400D01*
G01X143997Y-228400D01*
X138297D01*
X138000Y-228697D01*
Y-229953D01*
G03X138603Y-230298I400J0D01*
G02X145362Y-230399I3297J-5602D01*
G03X145396Y-230416I106J169D01*
G02X145648Y-230814I-147J-372D01*
G02X145337Y-232713I-9978J656D01*
G02X144787Y-232975I-387J102D01*
G03X138345Y-239318I-1987J-4425D01*
G02X138074Y-239864I-367J-158D01*
G02X135669Y-240157I-2405J9707D01*
G01X63205D01*
G37*
G36*
G01X97550Y-231287D02*
G02X96867Y-231570I-400J0D01*
G01X76780Y-211483D01*
G02X77063Y-210800I283J283D01*
G01X81109D01*
X91693Y-221400D01*
X95690D01*
Y-223350D01*
G03X96690Y-224350I1000J0D01*
G01X97565D01*
Y-224566D01*
X97563Y-224582D01*
G03X97550Y-224741I988J-159D01*
G01Y-227541D01*
G03X97989Y-228369I1000J0D01*
G02Y-229031I-224J-331D01*
G03X97550Y-229859I561J-828D01*
G01Y-231287D01*
G37*
G36*
G01X69391Y-198017D02*
X70164Y-197244D01*
X70288Y-197295D01*
G03X71866Y-197060I593J1432D01*
G03X73836I985J1197D01*
G03X75806I985J1197D01*
G03X77776I985J1197D01*
G03X78583Y-197403I985J1197D01*
G02X78820Y-198083I-46J-397D01*
G01X78203Y-198700D01*
X69674D01*
G02X69391Y-198017I0J400D01*
G37*
G36*
G01X65697Y-208400D02*
X64900Y-207603D01*
Y-201397D01*
X65197Y-201100D01*
X67479D01*
Y-206550D01*
G03X68479Y-207550I1000J0D01*
G01X72179D01*
G03X73179Y-206550I0J1000D01*
G01Y-201100D01*
X73621D01*
Y-206550D01*
G03X74621Y-207550I1000J0D01*
G01X78321D01*
G03X78735Y-207461I0J1000D01*
G02X79202Y-207562I165J-364D01*
G03X79504Y-207700I302J262D01*
G01X81406D01*
X81764Y-208058D01*
G02X81622Y-208400I-142J-141D01*
G01X65697D01*
G37*
G36*
G01X76109Y-188033D02*
Y-186413D01*
X78621Y-183900D01*
X81103D01*
X84933Y-187730D01*
G02X84654Y-188413I-283J-283D01*
G03X83686Y-188766I17J-1550D01*
G03X81716I-985J-1197D01*
G03X79746I-985J-1197D01*
G03X77776I-985J-1197D01*
G03X76567Y-188429I-985J-1197D01*
G02X76109Y-188033I-58J396D01*
G37*
G36*
G01X91797Y-186300D02*
X80797Y-175300D01*
X71503D01*
X68600Y-178203D01*
X67343Y-176946D01*
G02X67626Y-176263I283J283D01*
G01X68634D01*
X85898Y-158999D01*
X85982Y-159000D01*
G03X85794Y-155412I18J1800D01*
G02X85466Y-154731I-46J397D01*
G01X88417Y-151780D01*
G02X89100Y-152063I283J-283D01*
G01Y-152758D01*
G03X89911Y-155858I1200J-1342D01*
G01X89968Y-155870D01*
X90897Y-156800D01*
X91758D01*
G02X94327Y-156683I1342J-1200D01*
G03X94600Y-156790I273J293D01*
G02X95000Y-157190I0J-400D01*
G01Y-157903D01*
X92403Y-160500D01*
X90103D01*
X88600Y-162003D01*
Y-181797D01*
X90103Y-183300D01*
X90503D01*
G03X91509Y-180568I1497J1000D01*
G02X91000Y-180183I-109J385D01*
G01Y-178263D01*
G02X91683Y-177980I400J0D01*
G01X92503Y-178800D01*
X96503D01*
X99203Y-181500D01*
X94403Y-186300D01*
X91797D01*
G37*
G36*
G01X80230Y-150868D02*
G03X80465Y-151038I1170J1368D01*
G02X80540Y-151663I-208J-342D01*
G01X65442Y-166761D01*
G02X65100Y-166620I-141J141D01*
G01Y-166497D01*
X79900Y-151697D01*
Y-151020D01*
G02X80230Y-150868I200J0D01*
G37*
G36*
G01X73621Y-135218D02*
X76540Y-138137D01*
G02X76465Y-138762I-283J-283D01*
G03X75683Y-139760I935J-1538D01*
G01X75639Y-139900D01*
X68838D01*
X68141Y-139203D01*
Y-134498D01*
G02X68617Y-134105I400J0D01*
G03X69896Y-133780I294J1522D01*
G03X71866I985J1197D01*
G03X73145Y-134105I985J1197D01*
G02X73621Y-134498I76J-393D01*
G01Y-135218D01*
G37*
G36*
G01X79556Y-133914D02*
G03X79852Y-134078I625J781D01*
G01X79895Y-134093D01*
X88004Y-142201D01*
G03X88670Y-142797I1496J1001D01*
G02X88768Y-143435I-185J-355D01*
G01X85704Y-146499D01*
G02X85036Y-146322I-283J283D01*
G03X84099Y-145187I-1736J-478D01*
G01X84070Y-145172D01*
X82700Y-143803D01*
Y-138103D01*
X79253Y-134656D01*
G02X79377Y-134006I283J283D01*
G03X79556Y-133914I-616J1423D01*
G37*
G36*
G01X67503Y-91809D02*
G03X66950Y-90058I-1753J409D01*
G01Y-88524D01*
G02X67463Y-88140I400J0D01*
G03X67913Y-88205I450J1526D01*
G01X70275D01*
G03X70730Y-88138I0J1591D01*
G02X71244Y-88522I114J-383D01*
G01Y-89567D01*
G03X71600Y-90570I1591J0D01*
G01Y-91503D01*
X70803Y-92300D01*
X67893D01*
G02X67503Y-91809I0J400D01*
G37*
G36*
G01X85390Y-87232D02*
G02X83494Y-87410I-1090J1432D01*
G03X83477Y-87402I-179J-358D01*
G02X83248Y-86951I161J366D01*
G03X82942Y-85630I-1555J337D01*
G03Y-83661I-1250J984D01*
G03Y-81693I-1250J984D01*
G03Y-79724I-1250J984D01*
G03X81693Y-77149I-1250J984D01*
G01X79331D01*
G03X78876Y-77216I0J-1591D01*
G02X78362Y-76832I-114J383D01*
G01Y-75787D01*
G03X78292Y-75318I-1591J0D01*
G02X78674Y-74800I382J118D01*
G01X87566D01*
Y-77941D01*
X86850D01*
G03X85850Y-78941I0J-1000D01*
G01Y-81741D01*
G03X86289Y-82569I1000J0D01*
G02Y-83231I-224J-331D01*
G03X85850Y-84059I561J-828D01*
G01Y-86859D01*
G03X85853Y-86936I1000J-1D01*
G02X85646Y-87151I-199J-15D01*
G03X85390Y-87232I-14J-400D01*
G37*
G36*
G01X71655Y-85822D02*
G03X71525Y-85630I-1380J-792D01*
G03Y-83661I-1250J984D01*
G03Y-81693I-1250J984D01*
G03Y-79724I-1250J984D01*
G03X71655Y-79532I-1249J985D01*
G02X71941Y-79466I173J-100D01*
G03X73819Y-79399I893J1316D01*
G03X75787I984J1250D01*
G03X77665Y-79466I984J1250D01*
G02X77951Y-79532I112J-165D01*
G03X78081Y-79724I1380J792D01*
G03Y-81693I1250J-984D01*
G03Y-83661I1250J-984D01*
G03Y-85630I1250J-984D01*
G03X77951Y-85822I1249J-985D01*
G02X77665Y-85888I-173J100D01*
G03X75787Y-85955I-893J-1316D01*
G03X73819I-984J-1250D01*
G03X71941Y-85888I-984J-1250D01*
G02X71655Y-85822I-112J165D01*
G37*
G36*
G01X101278Y-177281D02*
X98200Y-174203D01*
Y-172542D01*
G03X95800I-1200J1342D01*
G01Y-175197D01*
X96320Y-175717D01*
G02X96037Y-176400I-283J-283D01*
G01X93497D01*
X92600Y-175503D01*
Y-164800D01*
X93897D01*
X99200Y-159497D01*
Y-154897D01*
X99497Y-154600D01*
X101595D01*
G02X101988Y-155075I0J-400D01*
G03X102180Y-156158I1523J-288D01*
G03X101961Y-156783I781J-625D01*
G01Y-157883D01*
G03X102180Y-158508I1000J0D01*
G03X102314Y-160288I1331J-795D01*
G03Y-162258I1197J-985D01*
G03Y-164228I1197J-985D01*
G03Y-166198I1197J-985D01*
G03Y-168168I1197J-985D01*
G03Y-170138I1197J-985D01*
G03Y-172108I1197J-985D01*
G03Y-174078I1197J-985D01*
G03X102180Y-175858I1197J-985D01*
G03X101961Y-176483I781J-625D01*
G01Y-176998D01*
G02X101278Y-177281I-400J0D01*
G37*
G36*
G01X91862Y-151836D02*
X101501Y-142196D01*
G02X102138Y-142293I283J-283D01*
G03X102314Y-142558I1373J721D01*
G03X102057Y-144081I1197J-985D01*
G01X102102Y-144201D01*
X95000Y-151303D01*
Y-153308D01*
G02X94600Y-153708I-400J0D01*
G03X94436Y-153743I0J-400D01*
G02X91964Y-152578I-736J1643D01*
G03X91862Y-152401I-386J-106D01*
G02Y-151836I283J283D01*
G37*
G36*
G01X93321Y-134556D02*
X93261Y-134614D01*
G03X93847Y-137569I1260J-1286D01*
G02X93980Y-138223I-150J-371D01*
G01X91735Y-140468D01*
G02X91097Y-140370I-283J283D01*
G03X88874Y-139512I-1597J-831D01*
G01X88754Y-139557D01*
X83295Y-134098D01*
X83455Y-133938D01*
X83478Y-133925D01*
G03X83686Y-133780I-777J1341D01*
G03X85656I985J1197D01*
G03X87626I985J1197D01*
G03X89596I985J1197D01*
G03X91566I985J1197D01*
G03X93056Y-134049I985J1197D01*
G01X93087Y-134038D01*
X93321D01*
Y-134556D01*
G37*
G36*
G01X102897Y-129400D02*
X102800Y-129303D01*
Y-122659D01*
X103350D01*
G03X104350Y-121659I0J1000D01*
G01Y-118859D01*
G03X103911Y-118031I-1000J0D01*
G02Y-117369I224J331D01*
G03X104350Y-116541I-561J828D01*
G01Y-113741D01*
G03X103350Y-112741I-1000J0D01*
G01X102900D01*
Y-109800D01*
X103400D01*
G03X104400Y-108800I0J1000D01*
G01Y-104800D01*
G03X103400Y-103800I-1000J0D01*
G01X100000D01*
G03X99000Y-104800I0J-1000D01*
G01Y-108800D01*
G03X100000Y-109800I1000J0D01*
G01X100500D01*
Y-112741D01*
X100050D01*
G03X99050Y-113741I0J-1000D01*
G01Y-116541D01*
G03X99489Y-117369I1000J0D01*
G02Y-118031I-224J-331D01*
G03X99050Y-118859I561J-828D01*
G01Y-121659D01*
G03X100050Y-122659I1000J0D01*
G01X100400D01*
Y-125485D01*
G02X99684Y-125731I-400J0D01*
G03X97476Y-125486I-1223J-952D01*
G03X96315Y-125143I-985J-1197D01*
G02X95894Y-124610I-45J397D01*
G03X94182Y-122200I-1694J610D01*
G01X94098Y-122201D01*
X92197Y-120300D01*
X91318D01*
G02X90942Y-119764I0J400D01*
G03X89104Y-117356I-1692J613D01*
G02X88676Y-116892I-33J399D01*
G03X85915Y-115093I-1776J292D01*
G01X85779Y-115182D01*
X82563Y-111966D01*
X82008D01*
G03X81912Y-111884I-1208J-1334D01*
G02X81949Y-111230I247J315D01*
G03X82342Y-110900I-949J1530D01*
G01X89097D01*
X94998Y-104999D01*
X95082Y-105000D01*
G03X96438Y-101996I18J1800D01*
G02X96452Y-101445I297J268D01*
G01X102897Y-95000D01*
X103869D01*
Y-95395D01*
X103674Y-95400D01*
G03X102700Y-96400I26J-1000D01*
G01Y-101400D01*
G03X103700Y-102400I1000J0D01*
G01X107100D01*
G03X108100Y-101400I0J1000D01*
G01Y-96400D01*
G03X107800Y-95686I-1000J0D01*
G02X108080Y-95000I280J286D01*
G01X109603D01*
X112234Y-97631D01*
Y-97769D01*
X110800Y-99203D01*
Y-103800D01*
X107400D01*
G03X106400Y-104800I0J-1000D01*
G01Y-108800D01*
G03X107400Y-109800I1000J0D01*
G01X107900D01*
Y-111779D01*
X106550D01*
G03X105550Y-112779I0J-1000D01*
G01Y-116479D01*
G03X106550Y-117479I1000J0D01*
G01X111141D01*
G02X111282Y-117821I0J-200D01*
G01X111182Y-117921D01*
X106550D01*
G03X105550Y-118921I0J-1000D01*
G01Y-122621D01*
G03X106550Y-123621I1000J0D01*
G01X111850D01*
G03X112850Y-122621I0J1000D01*
G01Y-119647D01*
X115000Y-117497D01*
Y-113463D01*
G02X115683Y-113180I400J0D01*
G01X116100Y-113597D01*
Y-115738D01*
G03X115702Y-117606I1294J-1252D01*
G02X115476Y-118113I-376J-137D01*
G03X114850Y-119041I374J-928D01*
G01Y-121841D01*
G03X115289Y-122669I1000J0D01*
G02Y-123331I-224J-331D01*
G03X114850Y-124159I561J-828D01*
G01Y-126959D01*
G03X115187Y-127708I1000J0D01*
G02X115045Y-128388I-265J-299D01*
G03X113942Y-129400I555J-1712D01*
G01X102897D01*
G37*
G36*
G01X92020Y-104583D02*
X88103Y-108500D01*
X82342D01*
G03X81723Y-108051I-1342J-1200D01*
G02X81600Y-107402I161J366D01*
G01X82803Y-106200D01*
X83803D01*
X85620Y-104383D01*
G03X85737Y-104100I-283J283D01*
G01Y-103900D01*
X91737D01*
G02X92020Y-104583I0J-400D01*
G37*
G36*
G01X85656Y-125486D02*
G03X85524Y-125388I-985J-1197D01*
G02X85372Y-124908I220J334D01*
G03X85400Y-124761I-372J147D01*
G01Y-122997D01*
X85350Y-122947D01*
X85452Y-122700D01*
X87883D01*
G02X88268Y-123209I0J-400D01*
G03X88442Y-124602I1732J-491D01*
G02X88201Y-125188I-346J-200D01*
G03X87626Y-125486I410J-1495D01*
G03X85656I-985J-1197D01*
G37*
G36*
G01X96089Y-93396D02*
G03X94504Y-91811I-1789J-204D01*
G02X94266Y-91131I45J397D01*
G01X94797Y-90600D01*
X98837D01*
G02X99120Y-91283I0J-400D01*
G01X96769Y-93634D01*
G02X96089Y-93396I-283J283D01*
G37*
G36*
G01X136700Y-36597D02*
Y-49203D01*
X133150Y-52753D01*
Y-60147D01*
X135003Y-62000D01*
X142703D01*
X143600Y-62897D01*
Y-68703D01*
X143003Y-69300D01*
X139862D01*
X137312Y-71850D01*
X135406D01*
X133456Y-69900D01*
X120897D01*
X113897Y-62900D01*
X99512D01*
X95098Y-58486D01*
G03X95373Y-57747I-864J742D01*
G01Y-55264D01*
G03X95109Y-54537I-1139J-2D01*
G03X95373Y-53810I-875J729D01*
G01Y-51327D01*
G03X95109Y-50600I-1139J-2D01*
G03X95373Y-49873I-875J729D01*
G01Y-47390D01*
G03X95109Y-46663I-1139J-2D01*
G03X95373Y-45936I-875J729D01*
G01Y-43453D01*
G03X95109Y-42726I-1139J-2D01*
G03X95373Y-41999I-875J729D01*
G01Y-39516D01*
G03X95109Y-38789I-1139J-2D01*
G03X95373Y-38062I-875J729D01*
G01Y-35579D01*
G03X95109Y-34852I-1139J-2D01*
G03X95373Y-34125I-875J729D01*
G01Y-31642D01*
G03X95109Y-30915I-1139J-2D01*
G03X95365Y-30323I-875J729D01*
G01X95386Y-30147D01*
X96549D01*
X98503Y-32100D01*
X99641D01*
Y-32650D01*
G03X100641Y-33650I1000J0D01*
G01X105959D01*
Y-35050D01*
X105279D01*
G03X104279Y-36050I0J-1000D01*
G01Y-41350D01*
G03X105279Y-42350I1000J0D01*
G01X108979D01*
G03X109979Y-41350I0J1000D01*
G01Y-36050D01*
G03X108979Y-35050I-1000J0D01*
G01X108359D01*
Y-33850D01*
G02X108559Y-33650I200J0D01*
G03X109559Y-32650I0J1000D01*
G01Y-32200D01*
X112500D01*
Y-33100D01*
G03X113500Y-34100I1000J0D01*
G01X118500D01*
G03X119500Y-33100I0J1000D01*
G01Y-29100D01*
G03X119404Y-28672I-1000J0D01*
G02X119765Y-28100I361J171D01*
G01X121050D01*
Y-29659D01*
G03X122050Y-30659I1000J0D01*
G01X125350D01*
G03X126350Y-29659I0J1000D01*
G01Y-29459D01*
X129562D01*
X136700Y-36597D01*
G37*
G36*
G01X109559Y-29800D02*
Y-29350D01*
G03X108559Y-28350I-1000J0D01*
G01X100641D01*
G03X99641Y-29350I0J-1000D01*
G01Y-29361D01*
G02X99299Y-29502I-200J0D01*
G01X97740Y-27943D01*
X97973Y-27710D01*
X98094Y-27756D01*
G03X98450Y-27821I356J935D01*
G01X103750D01*
G03X104750Y-26821I0J1000D01*
G01Y-26171D01*
X105732D01*
X105790Y-26269D01*
G03X106650Y-26759I860J510D01*
G01X109662D01*
X111003Y-28100D01*
X112235D01*
G02X112596Y-28672I0J-400D01*
G03X112500Y-29100I904J-428D01*
G01Y-29800D01*
X109559D01*
G37*
G36*
G01X94175Y-5702D02*
X88662D01*
G03X88166Y-5810I1J-1196D01*
G02X87600Y-5446I-166J364D01*
G01Y-3937D01*
X135669D01*
G02X137699Y-4145I0J-10000D01*
G02X137967Y-4732I-81J-392D01*
G03X144759Y-11220I4233J-2368D01*
G02X145358Y-11461I211J-340D01*
G02X145669Y-13937I-9689J-2476D01*
G01Y-60606D01*
G02X144986Y-60889I-400J0D01*
G01X143697Y-59600D01*
X142546D01*
G02X142346Y-58853I0J400D01*
G03X141500Y-51379I-2046J3553D01*
G01Y-35303D01*
X128138Y-21941D01*
X126350D01*
Y-21741D01*
G03X125350Y-20741I-1000J0D01*
G01X122050D01*
G03X121050Y-21741I0J-1000D01*
G01Y-21941D01*
X119500D01*
Y-21100D01*
G03X118500Y-20100I-1000J0D01*
G01X113500D01*
G03X112500Y-21100I0J-1000D01*
G01Y-25100D01*
G03X112510Y-25243I1000J0D01*
G02X112114Y-25700I-396J-57D01*
G01X111997D01*
X110950Y-24653D01*
Y-22959D01*
G03X110511Y-22131I-1000J0D01*
G02Y-21469I224J331D01*
G03X110950Y-20641I-561J828D01*
G01Y-17841D01*
G03X109950Y-16841I-1000J0D01*
G01X106650D01*
G03X105650Y-17841I0J-1000D01*
G01Y-20641D01*
G03X106089Y-21469I1000J0D01*
G02Y-22131I-224J-331D01*
G03X105650Y-22959I561J-828D01*
G01Y-23771D01*
X104750D01*
Y-23121D01*
G03X103750Y-22121I-1000J0D01*
G01X98450D01*
G03X97450Y-23121I0J-1000D01*
G01Y-23809D01*
X95386D01*
X95365Y-23633D01*
G03X95109Y-23041I-1130J-137D01*
G03X95373Y-22314I-875J729D01*
G01Y-19831D01*
G03X95109Y-19104I-1139J-2D01*
G03X95373Y-18377I-875J729D01*
G01Y-15894D01*
G03X95109Y-15167I-1139J-2D01*
G03X95373Y-14440I-875J729D01*
G01Y-11957D01*
G03X95093Y-11212I-1139J-2D01*
G03X95373Y-10442I-917J769D01*
G01Y-6900D01*
G03X94175Y-5702I-1196J1D01*
G37*
G36*
G01X100497Y-235200D02*
X99639Y-234342D01*
G02X99922Y-233659I283J283D01*
G01X101850D01*
G03X102850Y-232659I0J1000D01*
G01Y-229859D01*
G03X102411Y-229031I-1000J0D01*
G02Y-228369I224J331D01*
G03X102850Y-227541I-561J828D01*
G01Y-224741D01*
G03X102824Y-224516I-1000J0D01*
G02X102948Y-224284I195J45D01*
G03X103221Y-224126I-358J934D01*
G02X103515Y-224391I126J-155D01*
G03X103350Y-224941I835J-550D01*
G01Y-227741D01*
G03X103789Y-228569I1000J0D01*
G02Y-229231I-224J-331D01*
G03X103350Y-230059I561J-828D01*
G01Y-232859D01*
G03X104350Y-233859I1000J0D01*
G01X107492D01*
G02X107663Y-234163I0J-200D01*
G03X107573Y-234330I1537J-937D01*
G01X106703Y-235200D01*
X100497D01*
G37*
G36*
G01X103575Y-223524D02*
G03X103590Y-223350I-985J174D01*
G01Y-217050D01*
G03X103558Y-216800I-1000J0D01*
G02X103946Y-216300I387J100D01*
G01X106814D01*
G02X107202Y-216800I0J-400D01*
G03X107170Y-217050I969J-250D01*
G01Y-223350D01*
G03X107179Y-223486I1000J0D01*
G02X106783Y-223941I-396J-55D01*
G01X104350D01*
G03X104078Y-223979I0J-1000D01*
G02X103575Y-223524I-109J385D01*
G37*
G36*
G01X114721Y-212000D02*
Y-207744D01*
G03X113720Y-206744I-1000J0D01*
G01X111019D01*
G02X110736Y-206061I0J400D01*
G01X111200Y-205597D01*
Y-204256D01*
X113720D01*
G03X114721Y-203256I0J1000D01*
G01Y-199083D01*
G03X113720Y-198082I-1000J0D01*
G01X113051D01*
Y-195847D01*
X114047Y-194850D01*
X121659D01*
G03X122659Y-193850I0J1000D01*
G01Y-192222D01*
G02X123342Y-191939I400J0D01*
G01X125300Y-193897D01*
Y-198641D01*
X122250D01*
G03X121592Y-198888I0J-1000D01*
G02X120955Y-198728I-263J301D01*
G03X120020Y-198082I-935J-355D01*
G01X116280D01*
G03X115279Y-199083I0J-1000D01*
G01Y-203256D01*
G03X116280Y-204256I1000J0D01*
G01X120020D01*
G03X121020Y-203256I0J1000D01*
G01Y-202857D01*
X121333D01*
X121392Y-202954D01*
G03X121689Y-203269I858J513D01*
G02Y-203931I-224J-331D01*
G03X121250Y-204759I561J-828D01*
G01Y-205659D01*
X119724D01*
X118639Y-206744D01*
X116280D01*
G03X115279Y-207744I0J-1000D01*
G01Y-212000D01*
X114721D01*
G37*
G36*
G01X106100Y-200350D02*
X105887D01*
X105875Y-200349D01*
G03X105750Y-200341I-125J-992D01*
G01X105200D01*
Y-199103D01*
X103697Y-197600D01*
X100997D01*
X99885Y-196488D01*
X99926Y-196370D01*
G03X100011Y-195863I-1465J507D01*
G01Y-190286D01*
X100697Y-189600D01*
X106937D01*
G02X107220Y-190283I0J-400D01*
G01X106100Y-191403D01*
Y-200350D01*
G37*
G36*
G01X130370Y-192672D02*
X125509Y-187812D01*
G02X125697Y-187140I283J283D01*
G03X127300Y-185100I-497J2041D01*
G01Y-179500D01*
G03X126400Y-177776I-2100J0D01*
G01Y-176703D01*
X126200Y-176503D01*
Y-174642D01*
G03X123740Y-174586I-1200J1342D01*
G01X123800Y-174644D01*
Y-175200D01*
X118603D01*
X116377Y-177425D01*
G02X115696Y-177171I-283J283D01*
G03X112857Y-175833I-1796J-129D01*
G01X111326D01*
G02X110933Y-175357I0J400D01*
G03X110608Y-174078I-1522J294D01*
G03Y-172108I-1197J985D01*
G03Y-170138I-1197J985D01*
G03Y-168168I-1197J985D01*
G03Y-166198I-1197J985D01*
G03Y-164228I-1197J985D01*
G03Y-162258I-1197J985D01*
G03Y-160288I-1197J985D01*
G03X110742Y-158508I-1197J985D01*
G03X110961Y-157883I-781J625D01*
G01Y-156783D01*
G03X110742Y-156158I-1000J0D01*
G03X110933Y-155069I-1331J795D01*
G02X111326Y-154593I393J76D01*
G01X111496D01*
X112700Y-155797D01*
Y-167197D01*
X116203Y-170700D01*
X136644D01*
X139061Y-173117D01*
G02X138778Y-173800I-283J-283D01*
G01X138203D01*
X134474Y-177529D01*
X134435Y-177544D01*
G03X133100Y-179500I765J-1956D01*
G01Y-185100D01*
G03X133974Y-186805I2100J0D01*
G02X133951Y-187470I-233J-325D01*
G03X133300Y-189825I949J-1530D01*
G01Y-192056D01*
G02X132682Y-192391I-400J0D01*
G03X130511Y-192549I-982J-1509D01*
G01X130370Y-192672D01*
G37*
G36*
G01X113200Y-102337D02*
Y-100197D01*
X114634Y-98763D01*
Y-96637D01*
X114439Y-96442D01*
G02X114580Y-96100I141J141D01*
G01X118304D01*
Y-96309D01*
X118303Y-96317D01*
G03X118300Y-96400I997J-84D01*
G01Y-101400D01*
G03X118310Y-101543I1000J0D01*
G02X117914Y-102000I-396J-57D01*
G01X114503D01*
X113883Y-102620D01*
G02X113200Y-102337I-283J283D01*
G37*
G36*
G01X132864Y-218359D02*
X132836Y-218192D01*
G03X132411Y-217531I-986J-167D01*
G02Y-216869I224J331D01*
G03X132850Y-216041I-561J828D01*
G01Y-213241D01*
G03X132650Y-212640I-1000J0D01*
G02X132970Y-212000I320J240D01*
G01X133774D01*
X133815Y-212020D01*
G03X133841Y-212032I787J1619D01*
G02X133945Y-212279I-84J-181D01*
G03X133937Y-212378I189J-66D01*
G02X133950Y-212541I-987J-163D01*
G01Y-215341D01*
G02X133511Y-216169I-1000J0D01*
G03Y-216831I224J-331D01*
G02X133950Y-217659I-561J-828D01*
G01Y-217859D01*
X134045Y-218089D01*
X133775Y-218359D01*
X132864D01*
G37*
G36*
G01X126100Y-95804D02*
X125940Y-95836D01*
G03X125887Y-99352I360J-1764D01*
G02X126078Y-100024I-92J-389D01*
G01X124103Y-102000D01*
X123632D01*
Y-101766D01*
X123643Y-101733D01*
G03X123700Y-101400I-943J333D01*
G01Y-96400D01*
G03X123697Y-96317I-1000J0D01*
G01X123696Y-96309D01*
Y-96100D01*
X124597D01*
X125417Y-95280D01*
G02X126100Y-95563I283J-283D01*
G01Y-95804D01*
G37*
G36*
G01X125050Y-85880D02*
G02X124400Y-86003I-367J160D01*
G01X122751Y-84354D01*
X122753Y-84269D01*
G03X122753Y-84251I-1000J20D01*
G01Y-82892D01*
X123105D01*
X126647Y-79350D01*
X127512D01*
X127550Y-79388D01*
Y-81741D01*
G03X127989Y-82569I1000J0D01*
G02Y-83231I-224J-331D01*
G03X127550Y-84059I561J-828D01*
G01Y-84446D01*
G02X127068Y-84838I-400J0D01*
G03X125050Y-85880I-368J-1762D01*
G37*
G36*
G01X116847Y-83940D02*
Y-83070D01*
G03X116766Y-82676I-1000J0D01*
G03X116847Y-82283I-920J394D01*
G01Y-81413D01*
X119374D01*
Y-82283D01*
G03X119455Y-82676I1000J0D01*
G03X119374Y-83070I920J-394D01*
G01Y-83940D01*
X116847D01*
G37*
G36*
G01X145669Y-91906D02*
G02X144986Y-92189I-400J0D01*
G01X141397Y-88600D01*
X135206D01*
X135180Y-88430D01*
G03X135178Y-88421I-1781J-265D01*
G02X135574Y-87959I395J62D01*
G01X138050D01*
G03X139050Y-86959I0J1000D01*
G01Y-84159D01*
G03X138611Y-83331I-1000J0D01*
G02Y-82669I224J331D01*
G03X139050Y-81841I-561J828D01*
G01Y-79041D01*
G03X138050Y-78041I-1000J0D01*
G01X137600D01*
Y-77350D01*
G02X137793Y-77150I200J0D01*
G03X138759Y-76150I-34J1000D01*
G01Y-73797D01*
X140856Y-71700D01*
X143997D01*
X144986Y-70711D01*
G02X145669Y-70994I283J-283D01*
G01Y-91906D01*
G37*
G36*
G01X135997Y-59600D02*
X135550Y-59153D01*
Y-53747D01*
X135771Y-53526D01*
G02X136431Y-53942I283J-283D01*
G03X138254Y-58853I3869J-1358D01*
G02X138054Y-59600I-200J-347D01*
G01X135997D01*
G37*
%LPC*%
G75*
G36*
G01X35200Y-64858D02*
Y-50961D01*
X35067Y-50914D01*
G02X34800Y-50537I134J377D01*
G01Y-49797D01*
X39141Y-45456D01*
G03X39559Y-45356I130J378D01*
G02X40279Y-45050I720J-694D01*
G01X43979D01*
G02X44979Y-46050I0J-1000D01*
G01Y-51350D01*
G02X43979Y-52350I-1000J0D01*
G01X40279D01*
G02X39279Y-51350I0J1000D01*
G01Y-50901D01*
G03X38937Y-50760I-200J0D01*
G01X37600Y-52097D01*
Y-64858D01*
G02X35200I-1200J-1342D01*
G37*
G36*
G01X76097Y-69400D02*
X106558D01*
G02Y-71800I1342J-1200D01*
G01X75103D01*
X72897Y-69594D01*
Y-62046D01*
X72721Y-62025D01*
G02X72128Y-61769I137J1130D01*
G02X71402Y-62033I-729J875D01*
G01X68918D01*
G02X68192Y-61769I2J1139D01*
G02X67464Y-62033I-729J875D01*
G01X64982D01*
G02X63845Y-60897I2J1139D01*
G01Y-55264D01*
G02X64982Y-54127I1139J-2D01*
G01X67464D01*
G02X68192Y-54391I-2J-1139D01*
G02X68918Y-54127I729J-875D01*
G01X71402D01*
G02X72128Y-54391I-2J-1139D01*
G02X72856Y-54127I729J-875D01*
G01X75338D01*
G02X76066Y-54391I-2J-1139D01*
G02X76792Y-54127I729J-875D01*
G01X79276D01*
G02X80002Y-54391I-2J-1139D01*
G02X80730Y-54127I729J-875D01*
G01X83212D01*
G02X84349Y-55264I-2J-1139D01*
G01Y-60897D01*
G02X83212Y-62033I-1139J2D01*
G01X80730D01*
G02X80002Y-61769I2J1139D01*
G02X79410Y-62025I-729J875D01*
G01X79234Y-62046D01*
Y-63650D01*
X85159D01*
G02X86159Y-64650I0J-1000D01*
G01Y-67950D01*
G02X85159Y-68950I-1000J0D01*
G01X77241D01*
G02X76241Y-67950I0J1000D01*
G01Y-64650D01*
G02X76735Y-63787I1000J0D01*
G01X76834Y-63729D01*
Y-62046D01*
X76658Y-62025D01*
G02X76066Y-61769I137J1130D01*
G02X75473Y-62025I-729J875D01*
G01X75297Y-62046D01*
Y-68600D01*
X76097Y-69400D01*
G37*
G36*
G01X110421Y-41350D02*
Y-36050D01*
G02X111421Y-35050I1000J0D01*
G01X115121D01*
G02X116121Y-36050I0J-1000D01*
G01Y-41350D01*
G02X115121Y-42350I-1000J0D01*
G01X111421D01*
G02X110421Y-41350I0J1000D01*
G37*
G36*
G01X97450Y-20679D02*
Y-16979D01*
G02X98450Y-15979I1000J0D01*
G01X103750D01*
G02X104750Y-16979I0J-1000D01*
G01Y-20679D01*
G02X103750Y-21679I-1000J0D01*
G01X98450D01*
G02X97450Y-20679I0J1000D01*
G37*
G54D55*
X142900Y-189000D03*
G54D53*
X135200Y-162900D03*
X130200D03*
X125200D03*
X120200D03*
X130200Y-182300D03*
G54D54*
X122047Y-235826D03*
Y-228740D03*
%LPD*%
G75*
G54D10*
X7300Y-238600D03*
X7000Y-7100D03*
X142800Y-237400D03*
X142200Y-7100D03*
G54D11*
X12300Y-228300D03*
Y-218300D03*
X140300Y-55300D03*
Y-65300D03*
G54D20*
X18400Y-126000D03*
G54D21*
X25900Y-136335D03*
X20900D03*
X15900D03*
X10900D03*
Y-115665D03*
X15900D03*
X20900D03*
X25900D03*
G54D12*
X9900Y-224000D03*
X6200Y-184000D03*
X6300Y-188000D03*
X6700Y-162200D03*
Y-136600D03*
X7100Y-132800D03*
X7800Y-122500D03*
X9200Y-86400D03*
X16800Y-216900D03*
X18800Y-225000D03*
X27500Y-206500D03*
X13211Y-190550D03*
X16000Y-147900D03*
X19100Y-150900D03*
X22100Y-151200D03*
X10000Y-129300D03*
X18400Y-126000D03*
X11400Y-101129D03*
X23800Y-73400D03*
X27400Y-60800D03*
X17700Y-60100D03*
X22500Y-45700D03*
X26200Y-52100D03*
X16900Y-50500D03*
X20400Y-40800D03*
X18400Y-22700D03*
X27200Y-35300D03*
X18200Y-33200D03*
X23800Y-28200D03*
X21700Y-18500D03*
X23600Y-34000D03*
X18000Y-15100D03*
X19200Y-9900D03*
X39500Y-217400D03*
X45100Y-213100D03*
X35900Y-209800D03*
X29400Y-200700D03*
X36100Y-190700D03*
X30759Y-171300D03*
X35600Y-168800D03*
X35700Y-150800D03*
X40700Y-130100D03*
X34300Y-137000D03*
X40900Y-132900D03*
X36300Y-135000D03*
X37100Y-119400D03*
X29400Y-106100D03*
X42700Y-99200D03*
Y-90700D03*
X36400Y-102000D03*
X40800Y-87000D03*
X44200Y-84100D03*
X28800Y-82600D03*
X36400Y-66200D03*
X30300Y-42500D03*
X32100Y-29000D03*
X28000Y-22900D03*
X32800Y-18300D03*
X38400Y-35900D03*
X45500Y-28800D03*
X39200Y-23200D03*
X28900Y-10200D03*
X40900Y-8100D03*
X43000Y-15200D03*
X54000Y-236000D03*
X54400Y-227100D03*
X53900Y-219300D03*
X58400Y-208700D03*
X61200Y-208400D03*
X58500Y-213500D03*
X50000Y-213300D03*
X56200Y-203400D03*
X50400Y-199000D03*
X55400Y-209900D03*
X48800Y-190900D03*
X51700Y-180400D03*
X51600Y-183400D03*
X62700Y-179100D03*
X56050Y-179650D03*
X53500Y-161400D03*
X56000Y-162900D03*
X56050Y-167100D03*
X49900Y-148600D03*
X55000Y-153200D03*
X48800Y-138200D03*
X59000Y-138900D03*
X48100Y-128300D03*
X46200Y-126400D03*
X50700Y-142700D03*
X50300Y-114700D03*
X54500Y-90800D03*
X58100Y-90500D03*
X46200Y-71800D03*
X48800Y-64000D03*
X60100Y-70400D03*
X50100Y-71500D03*
X50920Y-36820D03*
X50954Y-28946D03*
X50709Y-25009D03*
X45900Y-35800D03*
X49902Y-13198D03*
X49829Y-8671D03*
X81100Y-220400D03*
X70500Y-228600D03*
X73200Y-218100D03*
X71000Y-197800D03*
X66200Y-206500D03*
X68100Y-213819D03*
X65900Y-182400D03*
X78100Y-186300D03*
X80100Y-185200D03*
X73800Y-181900D03*
X67600Y-179900D03*
X79500Y-169200D03*
X76900Y-170500D03*
X75300Y-149300D03*
X72600D03*
X78700Y-147900D03*
X75000Y-138700D03*
X69500Y-138800D03*
X64200Y-138700D03*
X77400Y-140300D03*
X80800Y-113300D03*
X81000Y-109700D03*
X80500Y-116100D03*
X80900Y-120750D03*
X69094Y-89394D03*
X65750Y-95600D03*
Y-91400D03*
X80905Y-102952D03*
X79500Y-90950D03*
X74700Y-81600D03*
X66223Y-63277D03*
X64200Y-68400D03*
X69500Y-69000D03*
X80800Y-51700D03*
X94500Y-237800D03*
Y-227300D03*
X83100Y-215600D03*
X89200Y-229500D03*
X87500Y-219100D03*
X96500Y-229200D03*
X93100Y-215300D03*
X89300Y-206800D03*
X95100Y-180200D03*
Y-184100D03*
X92000Y-182300D03*
X84900Y-162500D03*
X85900Y-169600D03*
X82700Y-168300D03*
Y-170800D03*
X94200Y-174300D03*
X96000Y-166100D03*
X97000Y-171200D03*
X90300Y-154100D03*
X86000Y-157200D03*
X81400Y-149500D03*
X83300Y-146800D03*
X90900Y-134681D03*
X91900Y-138900D03*
X94521Y-135900D03*
X89500Y-141200D03*
X92400Y-118100D03*
X97500Y-109900D03*
X86900Y-116600D03*
X90000Y-123700D03*
X89250Y-119150D03*
X94200Y-124000D03*
X97700Y-105600D03*
X97900Y-101500D03*
X95100Y-103200D03*
X82100Y-93300D03*
X94300Y-93600D03*
X84400Y-76700D03*
X84300Y-85800D03*
X91200Y-62000D03*
X97343Y-40757D03*
X97406Y-44694D03*
X96272Y-21972D03*
X97302Y-13198D03*
X97629Y-8671D03*
X101500Y-238800D03*
X105900D03*
X109200Y-235100D03*
X114300Y-215200D03*
X115900Y-217500D03*
X115100Y-196200D03*
X107700Y-204200D03*
X106400Y-207859D03*
X101100Y-192900D03*
X116600Y-183200D03*
X112900Y-171900D03*
X115000Y-174000D03*
X113900Y-177300D03*
X106950Y-128550D03*
X115500Y-135900D03*
X115600Y-130100D03*
X100700Y-102400D03*
X100800Y-99000D03*
X113300Y-91200D03*
X107700Y-79700D03*
X104800Y-87800D03*
X102100Y-56100D03*
X114700Y-68900D03*
X107900Y-70600D03*
X113271Y-43571D03*
X103500Y-47600D03*
X111100Y-53600D03*
X108300Y-15600D03*
X107400Y-8100D03*
X120500Y-232500D03*
X123600Y-232400D03*
X133330Y-215700D03*
X125200Y-216499D03*
X120350Y-204450D03*
X127900Y-201200D03*
X131600Y-204100D03*
X130650Y-201550D03*
X122300Y-195900D03*
X127800Y-188200D03*
X131200Y-188900D03*
X131700Y-193900D03*
X123100Y-187100D03*
X132900Y-173900D03*
X125000Y-173300D03*
X126400Y-150800D03*
X124500Y-148800D03*
X134100Y-137800D03*
X132200Y-139700D03*
X120100Y-135100D03*
Y-130100D03*
X124500Y-122800D03*
X117394Y-116990D03*
X131900Y-102700D03*
X128800Y-102400D03*
X132000Y-97400D03*
X124900Y-100000D03*
X126300Y-97600D03*
X133300Y-91500D03*
X126500Y-80900D03*
X133400Y-88700D03*
X126700Y-86600D03*
X129500Y-63600D03*
X117800Y-56900D03*
X125000Y-58100D03*
X122000Y-49800D03*
X122600Y-36600D03*
X130700Y-52900D03*
X129900Y-42800D03*
X133500Y-24700D03*
X119000Y-10300D03*
X127500Y-15800D03*
X134600Y-229900D03*
Y-210400D03*
X134800Y-207100D03*
X141300Y-184000D03*
X144400D03*
X134900Y-189000D03*
X142900D03*
X135900Y-172300D03*
X140600Y-164000D03*
X144300Y-163700D03*
X142700Y-143600D03*
X142800Y-150300D03*
X142900Y-139200D03*
X137000Y-110700D03*
X136200Y-124500D03*
X135400Y-103500D03*
X137400Y-94000D03*
X140100Y-84800D03*
X142400Y-75300D03*
X142900Y-49900D03*
X141900Y-33800D03*
X140300Y-23900D03*
X135500Y-13600D03*
G54D30*
X63001Y-192913D03*
X61031D03*
X59061D03*
X57091D03*
X55121D03*
X53151D03*
X51181Y-129633D03*
X53151D03*
X55121D03*
X57091D03*
X59061D03*
X63001D03*
X80731Y-192913D03*
X78761D03*
X76791D03*
X74821D03*
X72851D03*
X70881D03*
X66941D03*
X64971D03*
Y-129633D03*
X66941D03*
X68911D03*
X70881D03*
X72851D03*
X74821D03*
X76791D03*
X78761D03*
X98461Y-192913D03*
X96491D03*
X94521D03*
X92551D03*
X90581D03*
X86641D03*
X84671D03*
X82701D03*
Y-129633D03*
X84671D03*
X86641D03*
X88611D03*
X90581D03*
X92551D03*
X94521D03*
X96491D03*
X98461D03*
G54D22*
X27560Y-89664D03*
Y-75688D03*
X35434Y-89664D03*
X33465D03*
X31497D03*
X29528D03*
Y-75688D03*
X31497D03*
X33465D03*
X35434D03*
G54D13*
X9440Y-210072D03*
X6629Y-152200D03*
X15582Y-210072D03*
X12771Y-152200D03*
X42229Y-56900D03*
X42129Y-48700D03*
X48371Y-56900D03*
X48271Y-48700D03*
X76471Y-203900D03*
X70329D03*
X82629Y-202200D03*
X88771D03*
X107129Y-38700D03*
X113271D03*
G54D31*
X51181Y-192913D03*
X61031Y-129633D03*
X68911Y-192913D03*
X80731Y-129633D03*
X88611Y-192913D03*
G54D40*
X78034Y-58080D03*
X74097D03*
X70160D03*
X66223D03*
X81971D03*
G54D50*
G01X9440Y-210072D02*
X6100Y-213412D01*
Y-229000D01*
X9800Y-232700D01*
X27200D01*
G01X8641Y-171400D02*
Y-177650D01*
X8552Y-177739D01*
G01X8641Y-171400D02*
X4200Y-166959D01*
Y-154629D01*
X6629Y-152200D01*
G01X8741Y-159400D02*
Y-156550D01*
G01X6141Y-159400D02*
X8741D01*
G01X8241Y-144900D02*
Y-138994D01*
X10900Y-136335D01*
G01X8241Y-144900D02*
X6629Y-146512D01*
Y-152200D01*
G01X7341Y-93900D02*
X5700Y-95541D01*
Y-126000D01*
X6500Y-126800D01*
X7800D01*
X9800Y-124800D01*
Y-116765D01*
X10900Y-115665D01*
G01X32500Y-140800D02*
X31900D01*
X30400Y-139300D01*
Y-112800D01*
X25700Y-108100D01*
Y-104000D01*
X27100Y-102600D01*
Y-98000D01*
X26300Y-97200D01*
X8300D01*
X7500Y-98000D01*
Y-122200D01*
X7800Y-122500D01*
G01X17700Y-83841D02*
X17450D01*
X14200Y-87091D01*
Y-89500D01*
X13300Y-90400D01*
X6500D01*
X5200Y-89100D01*
Y-75800D01*
X7200Y-73800D01*
X19300D01*
X21800Y-71300D01*
X41100D01*
X44950Y-75150D01*
G01X11100Y-82059D02*
Y-85600D01*
X10300Y-86400D01*
X9200D01*
G01X27200Y-232700D02*
Y-226150D01*
X26050Y-225000D01*
X18800D01*
G01X25600Y-196259D02*
X25500Y-196359D01*
Y-203300D01*
X20100Y-208700D01*
Y-219800D01*
X23700Y-223400D01*
X32800D01*
X35900Y-226500D01*
Y-238300D01*
X37300Y-239700D01*
X61000D01*
X62800Y-237900D01*
Y-232200D01*
X64400Y-230600D01*
X73200D01*
X76300Y-227500D01*
Y-224429D01*
X76459Y-224270D01*
G01X10942Y-196100D02*
Y-200271D01*
G01X14570Y-203898D02*
Y-209060D01*
X15582Y-210072D01*
G01X10942Y-200271D02*
X14570Y-203898D01*
G01X15582Y-213922D02*
Y-210072D01*
G01X12532D02*
X15582D01*
G01X14879Y-196100D02*
Y-198200D01*
X15779Y-199100D01*
X17800D01*
X18900Y-198000D01*
Y-188700D01*
X20000Y-187600D01*
Y-183200D01*
X21400Y-181800D01*
Y-170100D01*
X19100Y-167800D01*
Y-150900D01*
G01X12911Y-196100D02*
Y-199711D01*
X13900Y-200700D01*
X19400D01*
X20900Y-199200D01*
Y-189700D01*
X22200Y-188400D01*
Y-183900D01*
X23000Y-183100D01*
Y-168400D01*
X21200Y-166600D01*
Y-152400D01*
X22100Y-151500D01*
Y-151200D01*
G01X45600Y-206000D02*
X45400D01*
X41500Y-209900D01*
Y-213200D01*
X40700Y-214000D01*
X34200D01*
X34000Y-214200D01*
X27200D01*
G01X12911Y-190450D02*
X14879Y-188482D01*
Y-184800D01*
G01X10942D02*
Y-188482D01*
X12911Y-190450D01*
G01D02*
X15350D01*
X16848Y-191948D01*
Y-196100D01*
G01X10942D02*
Y-192058D01*
X12550Y-190450D01*
X12911D01*
G01X14879Y-182280D02*
Y-178948D01*
X13670Y-177739D01*
G01X22750Y-191141D02*
X25600D01*
G01D02*
X28450D01*
G01X31600Y-196259D02*
X25600D01*
G01X18500Y-177959D02*
Y-181200D01*
X16848Y-182852D01*
Y-184800D01*
G01X13670Y-177739D02*
Y-177671D01*
X18500Y-172841D01*
G01D02*
Y-172909D01*
G01X13759Y-171400D02*
Y-165300D01*
X13859Y-165200D01*
G01D02*
Y-159400D01*
G01X12771Y-148350D02*
Y-151029D01*
G01X25341Y-151600D02*
X25500Y-151759D01*
Y-156159D01*
X25641Y-156300D01*
G01X22800Y-153600D02*
X24800Y-151600D01*
X25341D01*
G01X12771Y-151029D02*
Y-152200D01*
G01X15800Y-148000D02*
X12771Y-151029D01*
G01X13359Y-147750D02*
Y-144900D01*
G01D02*
Y-142050D01*
G01Y-144900D02*
X15959D01*
G01X25900Y-136335D02*
Y-143541D01*
X26259Y-143900D01*
G01D02*
Y-146000D01*
X25459Y-146800D01*
X19000D01*
X18100Y-145900D01*
Y-138535D01*
X15900Y-136335D01*
G01X13859Y-159400D02*
X15200D01*
X16600Y-158000D01*
Y-150400D01*
X18400Y-148600D01*
X32900D01*
X33115Y-148758D01*
X33600Y-149431D01*
Y-153900D01*
X36300Y-156600D01*
Y-165100D01*
X38300Y-167100D01*
Y-172100D01*
X37500Y-172900D01*
X36900D01*
X36100Y-173700D01*
Y-185900D01*
X37100Y-186900D01*
X47500D01*
X48900Y-185500D01*
X66100D01*
X73500Y-178100D01*
X79600D01*
X88611Y-187111D01*
Y-192913D01*
G01X20900Y-136335D02*
Y-143659D01*
X21141Y-143900D01*
G01X18400Y-131944D02*
Y-126000D01*
G01D02*
Y-120056D01*
G01X11196Y-126000D02*
X18400D01*
G01D02*
X25604D01*
G01X10900Y-136335D02*
X15900D01*
G01X25900Y-119976D02*
Y-115665D01*
G01D02*
Y-111355D01*
G01X23538Y-115665D02*
X25900D01*
G01D02*
X28262D01*
G01X10900D02*
X15900D01*
G01X11400Y-107271D02*
X10900Y-107771D01*
Y-115665D01*
G01X23059Y-107300D02*
Y-109241D01*
X20900Y-111400D01*
Y-115665D01*
G01X18141Y-103950D02*
Y-101100D01*
G01X11400Y-101129D02*
X18112D01*
X18141Y-101100D01*
G01X24509Y-90372D02*
Y-88582D01*
G01X17700Y-91559D02*
Y-88959D01*
G01X15541Y-101100D02*
X18141D01*
G01X11400Y-107271D02*
X17912D01*
X17941Y-107300D01*
G01X12459Y-93900D02*
X28000D01*
G01X43181Y-153393D02*
X39593D01*
X38400Y-152200D01*
Y-151097D01*
X37928Y-150213D01*
X37024Y-149216D01*
X33641Y-146955D01*
X31912Y-146239D01*
X31262Y-145123D01*
X31400Y-144000D01*
X32700Y-142700D01*
X34200D01*
X34800Y-142100D01*
Y-141900D01*
X34884Y-141816D01*
Y-140484D01*
X32200Y-137800D01*
Y-112000D01*
X27400Y-107200D01*
Y-105200D01*
X29400Y-103200D01*
Y-95300D01*
X28000Y-93900D01*
G01X23259Y-101100D02*
Y-107100D01*
X23059Y-107300D01*
G01X21734Y-84645D02*
X24509D01*
G01X27284Y-86613D02*
X27560Y-86889D01*
G01X24500Y-74500D02*
Y-76700D01*
X24509Y-76771D01*
G01X22200Y-74600D02*
X23400Y-75800D01*
Y-76600D01*
G01X24509Y-76771D02*
Y-74980D01*
G01X21734Y-76771D02*
X24509D01*
G01Y-84645D02*
X27284D01*
G01X21734Y-86613D02*
X24509D01*
G01D02*
X27284D01*
G01X21734Y-88582D02*
X24509D01*
G01X17700Y-88959D02*
X20550D01*
G01X24509Y-82676D02*
X18365D01*
X17700Y-83341D01*
Y-83841D01*
G01X11100Y-76941D02*
X16541D01*
X20308Y-80708D01*
X24509D01*
G01X38101Y-233183D02*
X45600D01*
G01X38481Y-179003D02*
X43181D01*
G01D02*
X47881D01*
G01X30759Y-180800D02*
Y-185500D01*
G01Y-176200D02*
Y-180800D01*
G01X31600Y-191141D02*
Y-186341D01*
X30759Y-185500D01*
G01X31600Y-191141D02*
X35359D01*
X35700Y-190800D01*
X36000D01*
X36100Y-190700D01*
G01D02*
X36200Y-190600D01*
Y-190300D01*
X38000Y-188500D01*
X48400D01*
X49600Y-187300D01*
X66900D01*
X72300Y-181900D01*
X73800D01*
G01X51700Y-180400D02*
X51200Y-180900D01*
X43254D01*
X43181Y-180973D01*
G01X51600Y-183400D02*
X51100Y-183900D01*
X49700D01*
X48743Y-182943D01*
X43181D01*
G01X86000Y-157200D02*
X68137Y-175063D01*
X43181D01*
G01Y-173093D02*
X65407D01*
X102700Y-135800D01*
X112500D01*
X115243Y-138543D01*
X116657D01*
X120100Y-135100D01*
G01X43181Y-171123D02*
X65077D01*
X102200Y-134000D01*
X114400D01*
X115500Y-135100D01*
Y-135900D01*
G01X43181Y-169153D02*
X64747D01*
X101600Y-132300D01*
X126600D01*
X132200Y-126700D01*
Y-120559D01*
X131900Y-120259D01*
G01X30759Y-171300D02*
Y-176200D01*
G01Y-166600D02*
Y-171300D01*
G01Y-161800D02*
Y-166600D01*
G01Y-156300D02*
Y-161800D01*
G01X43181Y-177033D02*
X43300Y-176900D01*
X65600D01*
X67600Y-178900D01*
Y-179900D01*
G01X35700Y-150800D02*
X36000Y-151100D01*
Y-153500D01*
X38000Y-155500D01*
Y-164413D01*
X38800Y-165213D01*
X43181D01*
G01X48977Y-151423D02*
X43181D01*
G01X30459Y-151600D02*
X30600Y-151741D01*
Y-156141D01*
X30759Y-156300D01*
G01X43181Y-155363D02*
X43244Y-155300D01*
X48800D01*
X58100Y-146000D01*
Y-144600D01*
X39300Y-125800D01*
Y-106300D01*
X36400Y-103400D01*
Y-102000D01*
G01X33500Y-144800D02*
X33700Y-145000D01*
X35100D01*
X39553Y-149453D01*
X43181D01*
G01X40900Y-132900D02*
X39300D01*
X34800Y-128400D01*
Y-111800D01*
X29400Y-106400D01*
Y-106100D01*
G01X36300Y-135000D02*
Y-135900D01*
X38033Y-137633D01*
X43181D01*
G01X65600Y-102700D02*
X45100D01*
X44300Y-103500D01*
Y-123679D01*
X43366Y-125934D01*
Y-127366D01*
X60900Y-144900D01*
Y-146200D01*
X55000Y-152100D01*
Y-153200D01*
G01X39000Y-91300D02*
X38485Y-90785D01*
G01D02*
Y-88582D01*
G01X31497Y-92439D02*
Y-89664D01*
G01X33465D02*
Y-93865D01*
X35200Y-95600D01*
X65750D01*
G01X42700Y-90700D02*
X50000D01*
X50800Y-89900D01*
Y-77300D01*
G01X69500Y-110600D02*
Y-98900D01*
X68500Y-97900D01*
X62600D01*
X61300Y-99200D01*
X42700D01*
G01X28000Y-93900D02*
X30000D01*
X35300Y-99200D01*
X42700D01*
G01X38485Y-84645D02*
X41745D01*
X42900Y-85800D01*
Y-90500D01*
X42700Y-90700D01*
G01X35434Y-89664D02*
Y-92700D01*
X36234Y-93500D01*
X71300D01*
G01X38485Y-86613D02*
X35313D01*
G01X29528Y-89664D02*
Y-86372D01*
G01X38485Y-76771D02*
Y-74115D01*
G01Y-86613D02*
Y-88582D01*
G01Y-86613D02*
X40413D01*
X40800Y-87000D01*
G01X47400Y-86059D02*
X44550D01*
G01X27560Y-86889D02*
Y-89664D01*
G01X35434Y-78463D02*
Y-75688D01*
G01D02*
Y-72913D01*
G01X33465Y-78463D02*
Y-75688D01*
G01D02*
Y-72913D01*
G01X31497Y-78463D02*
Y-75688D01*
G01D02*
Y-72913D01*
G01X29528Y-78463D02*
Y-75688D01*
G01D02*
Y-72913D01*
G01X27560Y-78463D02*
Y-75688D01*
G01D02*
Y-72913D01*
G01X31497Y-89664D02*
Y-86889D01*
G01X38485Y-78739D02*
X41361D01*
X44950Y-75150D01*
G01D02*
X68850D01*
X70500Y-73500D01*
X76000D01*
X76800Y-74300D01*
G01X38485Y-80708D02*
X38577Y-80800D01*
X42100D01*
X45600Y-77300D01*
X50800D01*
G01X38485Y-82676D02*
X42233D01*
X43241Y-82259D01*
X44559Y-80941D01*
X47400D01*
G01X36400Y-66200D02*
Y-51600D01*
X39300Y-48700D01*
X42129D01*
G01X46200Y-71800D02*
X45900D01*
X42229Y-68129D01*
Y-56900D01*
G01X45600Y-233183D02*
Y-227553D01*
G01Y-233183D02*
X53099D01*
G01X68782Y-224270D02*
X68600Y-224088D01*
Y-221300D01*
X63600Y-216300D01*
X57800D01*
X47500Y-206000D01*
X45600D01*
G01D02*
Y-206017D01*
G01X68911Y-192913D02*
Y-196800D01*
X68011Y-197700D01*
X62200D01*
X61300Y-198600D01*
Y-205200D01*
X60700Y-205800D01*
X58600D01*
X56200Y-203400D01*
G01X55400Y-209900D02*
X57000Y-211500D01*
X75100D01*
X100000Y-236400D01*
X107200D01*
X108500Y-235100D01*
X109200D01*
G01X50400Y-199000D02*
X51200D01*
X53300Y-201100D01*
Y-207800D01*
X55400Y-209900D01*
G01X56050Y-179650D02*
X62150D01*
X62700Y-179100D01*
G01X53500Y-161400D02*
X53431Y-161469D01*
Y-163331D01*
X55200Y-165100D01*
X61600D01*
X75300Y-151400D01*
Y-149300D01*
G01X56000Y-162900D02*
Y-160200D01*
X56800Y-159400D01*
X57000D01*
X57500Y-158900D01*
X63000D01*
X72600Y-149300D01*
G01X78700Y-147900D02*
Y-151200D01*
X63900Y-166000D01*
Y-166100D01*
X62650Y-167350D01*
X56300D01*
X56050Y-167100D01*
G01X57091Y-134333D02*
Y-129633D01*
G01D02*
Y-124933D01*
G01X56741Y-117000D02*
X56700Y-117041D01*
Y-120600D01*
X59061Y-122961D01*
Y-129633D01*
G01X67741Y-117000D02*
X61859D01*
G01X61900Y-110600D02*
X61859Y-110641D01*
Y-117000D01*
G01X69300Y-110600D02*
X65800Y-107100D01*
X57200D01*
X50300Y-114000D01*
Y-114700D01*
G01D02*
X54441D01*
X56741Y-117000D01*
G01X47400Y-86059D02*
Y-88659D01*
G01X61300Y-88459D02*
Y-85859D01*
G01X58450D02*
X61300D01*
G01X54300Y-88559D02*
Y-85959D01*
G01D02*
X57150D01*
G01X69094Y-80708D02*
X61332D01*
X61300Y-80741D01*
G01X69094Y-78740D02*
X65140D01*
X63700Y-77300D01*
X54600D01*
G01X54300Y-80841D02*
X54200Y-80741D01*
Y-77700D01*
X54600Y-77300D01*
G01D02*
X50800D01*
G01X56774Y-56505D02*
X48766D01*
X48371Y-56900D01*
G01X91420Y-32883D02*
X83417D01*
X62200Y-54100D01*
Y-59400D01*
X50100Y-71500D01*
G01X56774Y-36820D02*
X50920D01*
G01X56774Y-40757D02*
X54857D01*
X50920Y-36820D01*
G01X56774Y-52568D02*
X52139D01*
X48271Y-48700D01*
G01X56774Y-25009D02*
X50709D01*
G01X56774Y-28946D02*
X50954D01*
G01X56774Y-17135D02*
X56710Y-17200D01*
X51200D01*
X50300Y-18100D01*
Y-20000D01*
X51372Y-21072D01*
X56774D01*
G01Y-8671D02*
X49829D01*
G01X56774Y-13198D02*
X49902D01*
G01X77837Y-239151D02*
Y-234900D01*
G01D02*
Y-230649D01*
G01Y-234900D02*
X81990D01*
G01X69963Y-239151D02*
Y-234900D01*
G01X65810D02*
X69963D01*
G01X79018Y-228128D02*
Y-224270D01*
G01D02*
Y-220412D01*
G01Y-224270D02*
X81006D01*
G01X68782D02*
X68800Y-224252D01*
Y-217500D01*
X68100Y-216800D01*
Y-213819D01*
G01X71341Y-224270D02*
Y-227759D01*
X70500Y-228600D01*
G01X73900Y-224270D02*
X73800Y-224170D01*
Y-218700D01*
X73200Y-218100D01*
G01X66300Y-204400D02*
X66800Y-203900D01*
G01X70881Y-192913D02*
Y-197381D01*
X71300Y-197800D01*
G01D02*
X77961D01*
G01D02*
X78761Y-197000D01*
Y-192913D01*
G01X66800Y-203900D02*
X70329D01*
G01Y-207750D02*
Y-203900D01*
G01D02*
X73379D01*
G01X82629Y-202200D02*
X80929Y-203900D01*
X76471D01*
G01X80731Y-192913D02*
Y-197869D01*
X78700Y-199900D01*
X64700D01*
X63700Y-200900D01*
Y-208100D01*
X65200Y-209600D01*
X81607D01*
X92190Y-220200D01*
X99640D01*
G01X78300Y-186300D02*
X78761Y-186761D01*
G01D02*
Y-192913D01*
G01X72851D02*
X72898Y-192866D01*
Y-185916D01*
G01D02*
X70884D01*
X68911Y-187889D01*
Y-192913D01*
G01X72898Y-185916D02*
X74909D01*
G01D02*
Y-192825D01*
X74821Y-192913D01*
G01X74909Y-185916D02*
X78124Y-182700D01*
X81600D01*
X86641Y-187741D01*
Y-192913D01*
G01X67600Y-179900D02*
X68600D01*
X72000Y-176500D01*
X80300D01*
X91300Y-187500D01*
X94900D01*
X101300Y-181100D01*
X106300D01*
X106461Y-180973D01*
G01X74821Y-129633D02*
Y-134721D01*
X79900Y-139800D01*
Y-145400D01*
X80900Y-146400D01*
Y-149000D01*
X81400Y-149500D01*
G01X72851Y-129633D02*
Y-117008D01*
X72859Y-117000D01*
G01X78700Y-129633D02*
Y-125200D01*
X76700Y-123200D01*
Y-114400D01*
X75500Y-113200D01*
Y-101100D01*
X77600Y-99000D01*
X88700D01*
X94100Y-93600D01*
X94300D01*
G01X78700Y-130600D02*
Y-129633D01*
G01X78761D02*
X78700D01*
G01X89500Y-141200D02*
X88700D01*
X80800Y-133300D01*
Y-129702D01*
X80731Y-129633D01*
G01X83300Y-146800D02*
Y-146100D01*
X81500Y-144300D01*
Y-138600D01*
X76791Y-133891D01*
Y-129633D01*
G01X77400Y-140300D02*
X76600Y-141100D01*
X68341D01*
X66941Y-139700D01*
Y-129633D01*
G01X121063Y-85629D02*
X121092Y-85600D01*
X122300D01*
X124900Y-88200D01*
Y-94100D01*
X124100Y-94900D01*
X113500D01*
X110600Y-92000D01*
X100100D01*
X91200Y-100900D01*
X79300D01*
X78500Y-101700D01*
Y-122600D01*
X79300Y-123400D01*
X82000D01*
X82800Y-124200D01*
Y-129600D01*
X82701Y-129633D01*
G01X86900Y-116600D02*
X85500D01*
X82066Y-113166D01*
X80934D01*
X80800Y-113300D01*
G01X69300Y-110600D02*
X69500D01*
G01X89250Y-119150D02*
X89000Y-119400D01*
X85500D01*
X82200Y-116100D01*
X80500D01*
G01X69500Y-110600D02*
X70900D01*
X72700Y-108800D01*
Y-99400D01*
X74700Y-97400D01*
X86300D01*
X94300Y-89400D01*
X102800D01*
X103700Y-90300D01*
X112200D01*
X112300Y-90200D01*
X113300Y-91200D01*
G01X80900Y-120750D02*
X81650Y-121500D01*
X91700D01*
X94200Y-124000D01*
G01X65750Y-91400D02*
Y-85446D01*
X66550Y-84646D01*
X69094D01*
G01X104800Y-87800D02*
X104600D01*
X104300Y-87500D01*
X93800D01*
X85700Y-95600D01*
X65750D01*
G01X80905Y-102952D02*
X81158Y-102700D01*
X91900D01*
X94200Y-100400D01*
X95800D01*
X102400Y-93800D01*
X110100D01*
X113434Y-97134D01*
Y-98266D01*
X112000Y-99700D01*
Y-111000D01*
X113800Y-112800D01*
Y-117000D01*
X110300Y-120500D01*
X109500D01*
X109200Y-120771D01*
G01X79500Y-90950D02*
X81608Y-88842D01*
Y-87710D01*
X80512Y-86614D01*
G01X82100Y-93300D02*
X81900Y-93500D01*
X71300D01*
G01D02*
X72800Y-92000D01*
Y-88420D01*
X72834Y-88386D01*
G01X74803D02*
Y-85203D01*
G01X69094Y-86614D02*
Y-89394D01*
G01X80512Y-84646D02*
X77246D01*
G01X77540Y-80708D02*
X80512D01*
G01D02*
X83484D01*
G01X76800Y-74300D02*
Y-76940D01*
X76772Y-76968D01*
G01X88766Y-80075D02*
Y-74166D01*
X88200Y-73600D01*
X77400D01*
X76800Y-74200D01*
Y-74300D01*
G01X66223Y-58080D02*
Y-63277D01*
G01X78034Y-58080D02*
Y-65693D01*
X78641Y-66300D01*
G01X107900Y-70600D02*
X75600D01*
X74097Y-69097D01*
Y-58080D01*
G01X81971Y-52871D02*
X80800Y-51700D01*
G01X97350Y-231259D02*
X100200D01*
G01X84671Y-192913D02*
Y-197900D01*
X85700Y-198929D01*
Y-205497D01*
X85700Y-211100D01*
X92200Y-217600D01*
X94500D01*
X95300Y-216800D01*
Y-215900D01*
X96100Y-215100D01*
X109800D01*
X111300Y-216600D01*
Y-218820D01*
X111120Y-219000D01*
Y-220200D01*
G01X89300Y-206800D02*
Y-210400D01*
X93100Y-214200D01*
Y-215300D01*
G01X94521Y-192913D02*
Y-209500D01*
X95480Y-210459D01*
X107500D01*
X108500Y-209459D01*
Y-206600D01*
X110000Y-205100D01*
Y-202120D01*
X110950Y-201169D01*
X110951D01*
G01X82701Y-192913D02*
Y-202128D01*
G01D02*
X82629Y-202200D01*
G01X83141D02*
X82701Y-202128D01*
G01X96491Y-192913D02*
Y-201332D01*
X97900Y-202741D01*
G01X104100Y-207859D02*
X97900D01*
G01X88771Y-202200D02*
Y-199471D01*
X86641Y-197341D01*
Y-192913D01*
G01X88259Y-202200D02*
X88771D01*
G01X118150Y-209831D02*
X118100Y-209880D01*
Y-211100D01*
X116000Y-213200D01*
X94800D01*
X92200Y-210600D01*
Y-198746D01*
X92551Y-198396D01*
Y-192913D01*
G01X104100Y-202741D02*
X104000Y-202641D01*
Y-199600D01*
X103200Y-198800D01*
X100500D01*
X98461Y-196761D01*
Y-192913D01*
G01X96491D02*
X96450Y-192872D01*
Y-188500D01*
X98150Y-186800D01*
X110601D01*
X112176Y-185748D01*
X113890Y-181610D01*
X119100Y-176400D01*
X124400D01*
X125200Y-177200D01*
Y-182300D01*
G01X106461Y-153393D02*
X106454Y-153400D01*
X99000D01*
X98000Y-154400D01*
Y-159000D01*
X93400Y-163600D01*
X91800D01*
X91400Y-164000D01*
Y-176000D01*
X93000Y-177600D01*
X97000D01*
X100373Y-180973D01*
X106461D01*
G01X92000Y-182300D02*
X91800Y-182100D01*
X90600D01*
X89800Y-181300D01*
Y-162500D01*
X90600Y-161700D01*
X92900D01*
X96200Y-158400D01*
Y-151800D01*
X102487Y-145513D01*
X106461D01*
G01X116600Y-183200D02*
Y-183600D01*
X111800Y-188400D01*
X100200D01*
X98400Y-190200D01*
Y-192852D01*
X98461Y-192913D01*
G01X97000Y-171200D02*
Y-174700D01*
X101400Y-179100D01*
X106364D01*
X106461Y-179003D01*
G01X90300Y-154100D02*
Y-151900D01*
X90416Y-151784D01*
Y-151584D01*
X102088Y-139912D01*
X102834Y-139603D01*
X106461D01*
G01X90581Y-129633D02*
Y-134681D01*
G01D02*
X90900D01*
G01X92551Y-129633D02*
Y-125451D01*
X90800Y-123700D01*
X90000D01*
G01X94521Y-129633D02*
Y-135900D01*
G01X98300Y-129472D02*
X98461Y-129633D01*
G01X95100Y-103200D02*
X88600Y-109700D01*
X81000D01*
G01X115158Y-85629D02*
X93271D01*
X85200Y-93700D01*
X82500D01*
X82100Y-93300D01*
G01X88500Y-85459D02*
X84208Y-81167D01*
G01D02*
X83942D01*
X83484Y-80708D01*
G01X88500Y-80341D02*
X88766Y-80075D01*
G01X121100Y-75700D02*
X120900D01*
X119600Y-74400D01*
X94441D01*
X88766Y-80075D01*
G01X115158Y-83660D02*
X93960D01*
X90700Y-80400D01*
X88559D01*
X88500Y-80341D01*
G01X81971Y-58080D02*
Y-64512D01*
X83759Y-66300D01*
G01X81971Y-58080D02*
Y-52871D01*
G01X83759Y-66300D02*
Y-63450D01*
G01Y-66300D02*
X86359D01*
G01X91420Y-56505D02*
X99014Y-64100D01*
X113400D01*
X120400Y-71100D01*
X132959D01*
X136359Y-74500D01*
G01X91420Y-44694D02*
X97406D01*
G01X91420Y-40757D02*
X97343D01*
G01X95128Y-21072D02*
X95900Y-20300D01*
G01X96272Y-21972D02*
X95372Y-21072D01*
X95128D01*
G01D02*
X91420D01*
G01X97250Y-18829D02*
X101100D01*
G01X91420Y-25009D02*
X101062D01*
X101100Y-24971D01*
G01X102041Y-31000D02*
X101941Y-30900D01*
X99000D01*
X97046Y-28946D01*
X91420D01*
G01Y-17135D02*
X99406D01*
X101100Y-18829D01*
G01X91420Y-8671D02*
X97629D01*
G01X91420Y-13198D02*
X97302D01*
G01X106000Y-234059D02*
Y-231459D01*
G01X114960Y-234842D02*
X118158D01*
X120500Y-232500D01*
G01X110600Y-237400D02*
X114160D01*
X114960Y-236600D01*
Y-234842D01*
G01X100200Y-233859D02*
Y-231259D01*
G01X109200Y-235100D02*
Y-229100D01*
X113400Y-224900D01*
X114400D01*
X115600Y-223700D01*
Y-218000D01*
X115900Y-217700D01*
Y-217500D01*
G01X103150Y-231459D02*
X106000D01*
G01X100200Y-231259D02*
X103050D01*
G01X111120Y-220200D02*
Y-224750D01*
X109529Y-226341D01*
X106000D01*
G01X99640Y-220200D02*
X100200Y-220760D01*
Y-226141D01*
G01X114300Y-215200D02*
X119700D01*
X127900Y-207000D01*
Y-201200D01*
G01X118241Y-220700D02*
Y-223759D01*
X114960Y-227040D01*
Y-229724D01*
G01X129134D02*
X124310Y-224900D01*
X119784D01*
X114960Y-229724D01*
G01X111850Y-209831D02*
Y-206544D01*
G01Y-209831D02*
X114921D01*
G01X110951Y-201169D02*
X109800Y-202320D01*
G01X110951Y-201169D02*
X111850D01*
G01D02*
Y-195350D01*
X115100Y-192100D01*
X115141Y-192200D01*
G01X127900Y-201200D02*
Y-199800D01*
X126500Y-198400D01*
Y-193400D01*
X121000Y-187900D01*
X114600D01*
X112500Y-190000D01*
X109200D01*
X107300Y-191900D01*
Y-203800D01*
X107700Y-204200D01*
G01X104100Y-207859D02*
X106400D01*
G01X101761Y-175063D02*
X106461D01*
G01D02*
X111161D01*
G01X142400Y-174759D02*
X137141Y-169500D01*
X116700D01*
X113900Y-166700D01*
Y-155300D01*
X111993Y-153393D01*
X106461D01*
G01X113900Y-177300D02*
X113633Y-177033D01*
X106461D01*
G01X101761Y-155363D02*
X106461D01*
G01D02*
X111161D01*
G01X115600Y-130100D02*
X115100Y-130600D01*
X102400D01*
X101600Y-129800D01*
Y-120359D01*
X101700Y-120259D01*
G01Y-106800D02*
Y-115141D01*
G01X109100Y-106800D02*
Y-114529D01*
X109200Y-114629D01*
G01X133400Y-88700D02*
X132900Y-88200D01*
X130500D01*
X129700Y-89000D01*
Y-98100D01*
X124600Y-103200D01*
X115000D01*
X114000Y-104200D01*
Y-109800D01*
X117300Y-113100D01*
Y-116896D01*
X117394Y-116990D01*
G01X105400Y-102600D02*
Y-98900D01*
G01X102500D02*
X105400D01*
G01D02*
X108300D01*
G01X115158Y-79724D02*
X115134Y-79700D01*
X107700D01*
G01X113271Y-38700D02*
Y-43571D01*
G01Y-38700D02*
Y-34850D01*
G01X110221Y-38700D02*
X113271D01*
G01D02*
X116321D01*
G01X107159Y-31000D02*
Y-38670D01*
X107129Y-38700D01*
G01X101100Y-18829D02*
X107888D01*
X108300Y-19241D01*
G01D02*
Y-15600D01*
G01X105450Y-19241D02*
X108300D01*
G01D02*
X111150D01*
G01X101100Y-21879D02*
Y-18829D01*
G01D02*
Y-15779D01*
G01X116000Y-31100D02*
X115900Y-31000D01*
X107159D01*
G01X101100Y-24971D02*
X107688D01*
X108300Y-24359D01*
G01X123700Y-28259D02*
X122341Y-26900D01*
X111500D01*
X108959Y-24359D01*
X108300D01*
G01X123700Y-23141D02*
X116041D01*
X116000Y-23100D01*
G01X129134Y-237814D02*
Y-234842D01*
G01X125178D02*
X129134D01*
G01D02*
X133090D01*
G01X130200Y-214641D02*
X132000D01*
X132959Y-215600D01*
G01D02*
X133230D01*
X133330Y-215700D01*
G01X130200Y-219759D02*
X133250D01*
X133450Y-219559D01*
X134272D01*
X134832Y-219000D01*
X138200D01*
G01X134600Y-210400D02*
X134200Y-210800D01*
X128900D01*
X127200Y-212500D01*
Y-217009D01*
X129950Y-219759D01*
X130200D01*
G01X123359Y-220700D02*
Y-221559D01*
X127000Y-225200D01*
X142700D01*
X143500Y-224400D01*
Y-204300D01*
X138200Y-199000D01*
G01X134800Y-207100D02*
X130200D01*
X121600Y-215700D01*
Y-219234D01*
X123066Y-220700D01*
X123359D01*
G01X125200Y-216499D02*
Y-216951D01*
X126200Y-219366D01*
Y-221800D01*
X127900Y-223500D01*
X141100D01*
X141900Y-222700D01*
Y-205400D01*
X140000Y-203500D01*
X135300D01*
X134500Y-202700D01*
Y-189400D01*
X134900Y-189000D01*
G01X134600Y-229900D02*
X129310D01*
X129134Y-229724D01*
G01X118150Y-201169D02*
X118100D01*
G01D02*
Y-201200D01*
X118200Y-201100D01*
X123900D01*
Y-201041D01*
G01X118100Y-197209D02*
Y-201169D01*
G01X120259Y-195050D02*
X118100Y-197209D01*
G01X118150Y-204456D02*
Y-201169D01*
G01D02*
Y-197882D01*
G01Y-209831D02*
Y-208931D01*
X120221Y-206859D01*
X123200D01*
X123900Y-206159D01*
G01X131600Y-204100D02*
X132900Y-202800D01*
Y-195100D01*
X131700Y-193900D01*
G01X123100Y-187100D02*
X129700Y-193700D01*
Y-200050D01*
X130650Y-201000D01*
Y-201550D01*
G01X120259Y-195050D02*
Y-192200D01*
G01D02*
X122859D01*
G01X125000Y-173300D02*
Y-182100D01*
X125200Y-182300D01*
G01X116600Y-183200D02*
X119300D01*
X120200Y-182300D01*
G01X132900Y-162900D02*
X135200D01*
G01X130200D02*
Y-157800D01*
G01X127900Y-162900D02*
X130200D01*
G01D02*
X132500D01*
G01X125200D02*
Y-157800D01*
G01X122900Y-162900D02*
X125200D01*
G01D02*
X127500D01*
G01X120200D02*
Y-157800D01*
G01X117900Y-162900D02*
X120200D01*
G01D02*
X122500D01*
G01X133300Y-91500D02*
X133500D01*
X135200Y-89800D01*
X140900D01*
X144800Y-93700D01*
Y-127400D01*
X138600Y-133600D01*
Y-142200D01*
X130000Y-150800D01*
X126400D01*
G01X137400Y-94000D02*
X141800D01*
X143200Y-95400D01*
Y-126600D01*
X136900Y-132900D01*
Y-141100D01*
X129200Y-148800D01*
X124500D01*
G01X120100Y-130100D02*
Y-129300D01*
X117500Y-126700D01*
Y-125559D01*
G01X124700Y-106800D02*
X123800Y-107700D01*
Y-114729D01*
G01X117500Y-120441D02*
X119600Y-118341D01*
Y-109100D01*
X117300Y-106800D01*
G01X123800Y-120871D02*
Y-122100D01*
X124500Y-122800D01*
G01X131900Y-106800D02*
Y-115141D01*
G01X118100Y-98900D02*
X121000D01*
G01X119095Y-85629D02*
Y-86995D01*
X122200Y-90100D01*
Y-91300D01*
X122159D01*
G01X132700Y-98900D02*
X135600D01*
G01X121000D02*
X123900D01*
G01X117127Y-85629D02*
Y-91214D01*
X117041Y-91300D01*
G01X126700Y-86600D02*
X127300Y-87200D01*
Y-96800D01*
X126500Y-97600D01*
X126300D01*
G01X121063Y-83660D02*
X122940D01*
G01X126400Y-84200D02*
X128941D01*
X130200Y-85459D01*
G01X121063Y-83660D02*
X118640D01*
G01D02*
X118600Y-83700D01*
G01D02*
X119095Y-84195D01*
Y-85629D01*
G01X131241Y-74500D02*
X122300D01*
X121100Y-75700D01*
G01X121063Y-79724D02*
X121100Y-79687D01*
Y-75700D01*
G01X121063Y-81692D02*
X122608D01*
X126150Y-78150D01*
X128009D01*
X130200Y-80341D01*
G01X136300D02*
X133400Y-83241D01*
Y-88700D01*
G01X130200Y-80341D02*
X136300D01*
G01X123700Y-28259D02*
X130059D01*
X137900Y-36100D01*
Y-49700D01*
X134350Y-53250D01*
Y-59650D01*
X135500Y-60800D01*
X143200D01*
X144800Y-62400D01*
Y-69200D01*
X143500Y-70500D01*
X140359D01*
X136359Y-74500D01*
G01X140300Y-55300D02*
Y-35800D01*
X127641Y-23141D01*
X123700D01*
G01X135200Y-182300D02*
X138200Y-185300D01*
Y-199000D01*
G01X142400Y-174759D02*
X142159Y-175000D01*
X138700D01*
X135200Y-178500D01*
Y-182300D01*
G01Y-162900D02*
Y-157800D01*
G01Y-162900D02*
X137500D01*
G01X142400Y-169641D02*
Y-167041D01*
G01X139550Y-169641D02*
X142400D01*
G01D02*
X145250D01*
G01X139300Y-106800D02*
Y-114629D01*
G01Y-120771D02*
Y-121400D01*
X136200Y-124500D01*
G01X135600Y-102600D02*
Y-98900D01*
G01D02*
Y-95200D01*
G01Y-98900D02*
X138500D01*
G01X136400Y-85559D02*
X139341D01*
G01D02*
X140100Y-84800D01*
G01X136300Y-80341D02*
X136400Y-80441D01*
G01D02*
Y-74541D01*
X136359Y-74500D01*
G54D23*
X24509Y-88582D03*
Y-86613D03*
Y-84645D03*
Y-82676D03*
Y-80708D03*
Y-78739D03*
Y-76771D03*
X38485D03*
Y-78739D03*
Y-80708D03*
Y-82676D03*
Y-84645D03*
Y-86613D03*
Y-88582D03*
G54D41*
X99640Y-220200D03*
X111120D03*
G54D14*
X9452Y-203898D03*
X8552Y-177739D03*
X8641Y-171400D03*
X8741Y-165200D03*
Y-159400D03*
X8241Y-144900D03*
X7341Y-93900D03*
X14570Y-203898D03*
X13670Y-177739D03*
X25641Y-185500D03*
Y-180800D03*
X13759Y-171400D03*
X13859Y-165200D03*
Y-159400D03*
X25641Y-176200D03*
Y-171300D03*
Y-166600D03*
Y-161800D03*
X26259Y-143900D03*
X21141D03*
X13359Y-144900D03*
X25641Y-156300D03*
X25341Y-151600D03*
X17941Y-107300D03*
X23059D03*
X23259Y-101100D03*
X18141D03*
X12459Y-93900D03*
X30759Y-185500D03*
Y-180800D03*
Y-176200D03*
Y-171300D03*
Y-166600D03*
Y-161800D03*
Y-156300D03*
X30459Y-151600D03*
X56741Y-117000D03*
X61859D03*
X67741D03*
X72859D03*
X78641Y-66300D03*
X83759D03*
X118241Y-220700D03*
X115141Y-192200D03*
X117041Y-91300D03*
X102041Y-31000D03*
X107159D03*
X123359Y-220700D03*
X120259Y-192200D03*
X122159Y-91300D03*
X131241Y-74500D03*
X136359D03*
G54D32*
X61900Y-110600D03*
X69300D03*
X101700Y-106800D03*
X109100D03*
X117300D03*
X124700D03*
X131900D03*
X139300D03*
G54D51*
G01X8741Y-159400D02*
Y-165200D01*
G01X12771Y-152200D02*
Y-155370D01*
X8741Y-159400D01*
G01X14100Y-181500D02*
X14879Y-182280D01*
G01X25600Y-180800D02*
Y-176200D01*
G01Y-185500D02*
Y-191141D01*
G01X14879Y-184800D02*
Y-182280D01*
G01X25641Y-185500D02*
X25600D01*
G01Y-180800D02*
X25641D01*
G01X25600Y-185500D02*
Y-180800D01*
G01X25641Y-161800D02*
X25600D01*
G01Y-166600D02*
Y-161800D01*
G01Y-171300D02*
Y-176200D01*
G01X25641Y-171300D02*
X25600D01*
G01Y-161800D02*
Y-156300D01*
X25641D01*
G01X25600Y-166600D02*
X25641D01*
G01X25600Y-171300D02*
Y-166600D01*
G01Y-176200D02*
X25641D01*
G54D42*
X114960Y-234842D03*
Y-229724D03*
X129134Y-234842D03*
Y-229724D03*
G54D24*
X45600Y-233183D03*
Y-206017D03*
G54D15*
X8974Y-196100D03*
Y-184800D03*
X16848Y-196100D03*
X14879D03*
X12911D03*
X10942D03*
Y-184800D03*
X12911D03*
X14879D03*
X16848D03*
G54D33*
X56774Y-56505D03*
Y-52568D03*
Y-48631D03*
Y-44694D03*
Y-40757D03*
Y-36820D03*
Y-32883D03*
Y-28946D03*
Y-25009D03*
Y-21072D03*
Y-17135D03*
Y-13198D03*
X91420Y-56505D03*
Y-36820D03*
Y-40757D03*
Y-44694D03*
Y-48631D03*
Y-52568D03*
Y-25009D03*
Y-28946D03*
Y-32883D03*
Y-21072D03*
Y-13198D03*
Y-17135D03*
G54D52*
G01X8974Y-178161D02*
X8552Y-177739D01*
G54D43*
X111850Y-201169D03*
Y-209831D03*
X118150Y-201169D03*
Y-209831D03*
G54D34*
X56774Y-8671D03*
X91420D03*
G54D25*
X43181Y-184913D03*
Y-182943D03*
Y-180973D03*
Y-179003D03*
Y-177033D03*
Y-175063D03*
Y-173093D03*
Y-171123D03*
Y-169153D03*
Y-167183D03*
Y-163243D03*
Y-161273D03*
Y-159303D03*
Y-157333D03*
Y-155363D03*
Y-153393D03*
Y-151423D03*
Y-149453D03*
Y-147483D03*
Y-143543D03*
Y-141573D03*
Y-139603D03*
Y-137633D03*
X106461Y-179003D03*
Y-180973D03*
Y-182943D03*
Y-184913D03*
Y-161273D03*
Y-163243D03*
Y-165213D03*
Y-167183D03*
Y-169153D03*
Y-171123D03*
Y-173093D03*
Y-175063D03*
Y-143543D03*
Y-145513D03*
Y-147483D03*
Y-149453D03*
Y-151423D03*
Y-153393D03*
Y-155363D03*
Y-159303D03*
Y-137633D03*
Y-139603D03*
Y-141573D03*
G54D16*
X12911Y-190450D03*
G54D35*
X77837Y-234900D03*
X69963D03*
G54D44*
X115158Y-85629D03*
Y-83660D03*
Y-81692D03*
Y-79724D03*
X121063D03*
Y-81692D03*
Y-83660D03*
Y-85629D03*
G54D17*
X11400Y-107271D03*
Y-101129D03*
X101100Y-24971D03*
Y-18829D03*
X109200Y-120771D03*
Y-114629D03*
X123800Y-120871D03*
Y-114729D03*
X139300Y-120771D03*
Y-114629D03*
G54D26*
X43181Y-165213D03*
Y-145513D03*
X106461Y-177033D03*
Y-157333D03*
G54D36*
X79018Y-224270D03*
X76459D03*
X73900D03*
X71341D03*
X68782D03*
G54D27*
G01X8974Y-196100D02*
X8600Y-196474D01*
Y-201800D01*
X9452Y-202652D01*
Y-203898D01*
G01D02*
Y-210060D01*
X9440Y-210072D01*
G01X8974Y-184800D02*
Y-178161D01*
G01X6300Y-188000D02*
Y-187474D01*
X8974Y-184800D01*
X33500Y-144800D03*
X32500Y-140800D03*
G54D18*
X11100Y-76941D03*
Y-82059D03*
X25600Y-196259D03*
X18500Y-177959D03*
X25600Y-191141D03*
X18500Y-172841D03*
X17700Y-88959D03*
Y-83841D03*
X31600Y-196259D03*
Y-191141D03*
X47400Y-86059D03*
Y-80941D03*
X54300Y-85959D03*
Y-80841D03*
X61300Y-85859D03*
Y-80741D03*
X100200Y-231259D03*
Y-226141D03*
X97900Y-202741D03*
Y-207859D03*
X88500Y-85459D03*
Y-80341D03*
X106000Y-231459D03*
Y-226341D03*
X104100Y-202741D03*
Y-207859D03*
X117500Y-125559D03*
Y-120441D03*
X101700Y-115141D03*
Y-120259D03*
X108300Y-24359D03*
Y-19241D03*
X130200Y-219759D03*
Y-214641D03*
X123900Y-206159D03*
Y-201041D03*
X131900Y-115141D03*
Y-120259D03*
X130200Y-85459D03*
Y-80341D03*
X123700Y-23141D03*
Y-28259D03*
X142400Y-174759D03*
Y-169641D03*
X136400Y-85559D03*
Y-80441D03*
G54D45*
X116000Y-23100D03*
Y-31100D03*
G54D46*
X122047Y-235826D03*
Y-228740D03*
G54D28*
X60121Y-234900D03*
X87680D03*
G54D37*
X65600Y-102700D03*
X105400Y-98900D03*
X121000D03*
X135600D03*
G54D19*
X27200Y-232700D03*
Y-214200D03*
G54D29*
X64058Y-224270D03*
X83742D03*
G54D38*
X72834Y-76968D03*
X74803D03*
X76772D03*
Y-88386D03*
X74803D03*
X72834D03*
G54D47*
X130200Y-182300D03*
X125200D03*
X120200D03*
Y-162900D03*
X125200D03*
X130200D03*
X135200Y-182300D03*
Y-162900D03*
G54D48*
X117127Y-79724D03*
X119095D03*
Y-85629D03*
X117127D03*
G54D39*
X80512Y-78740D03*
Y-80708D03*
Y-82677D03*
Y-84646D03*
Y-86614D03*
X69094D03*
Y-84646D03*
Y-82677D03*
Y-80708D03*
Y-78740D03*
G54D49*
X138200Y-219000D03*
Y-199000D03*
M02*
