G04 ================== begin FILE IDENTIFICATION RECORD ==================*
G04 Layout Name:  EPTS_PERFANL_B_V0_2.brd*
G04 Film Name:    PERFANL-B-V0-2-SSB*
G04 File Format:  Gerber RS274X*
G04 File Origin:  Cadence Allegro 17.2-P019*
G04 Origin Date:  Sun Jun 30 20:04:02 2019*
G04 *
G04 Layer:  BOARD GEOMETRY/SILKSCREEN_BOTTOM*
G04 Layer:  PACKAGE GEOMETRY/SILKSCREEN_BOTTOM*
G04 Layer:  REF DES/SILKSCREEN_BOTTOM*
G04 *
G04 Offset:    (0.000 0.000)*
G04 Mirror:    No*
G04 Mode:      Positive*
G04 Rotation:  0*
G04 FullContactRelief:  No*
G04 UndefLineWidth:     1.000*
G04 ================== end FILE IDENTIFICATION RECORD ====================*
%FSLAX25Y25*MOIN*%
%IR0*IPPOS*OFA0.00000B0.00000*MIA0B0*SFA1.00000B1.00000*%
%ADD10C,.005*%
%ADD11C,.006*%
%ADD12C,.008*%
%ADD13C,.005512*%
%ADD14C,.003937*%
%ADD15C,.006693*%
%ADD16C,.001969*%
%ADD17C,.007874*%
%ADD18C,.001*%
G75*
%LPD*%
G75*
G36*
G01X17810Y-203490D02*
G03I-1440J0D01*
G37*
G36*
G01X104402Y-180179D02*
Y-173683D01*
X93772D01*
Y-180179D01*
X104402D01*
G37*
G36*
G01X136685Y-142974D02*
Y-136675D01*
X102433D01*
Y-142974D01*
X136685D01*
G37*
G36*
G01X112012Y-98000D02*
G03I-412J0D01*
G37*
G36*
G01X139441Y-141793D02*
Y-171714D01*
X136685D01*
Y-141793D01*
X139441D01*
G37*
G36*
G01X143772Y-149864D02*
Y-136478D01*
X140819D01*
Y-149864D01*
X143772D01*
G37*
G36*
G01Y-118761D02*
Y-131360D01*
X140819D01*
Y-118761D01*
X143772D01*
G37*
G54D10*
G01X83861Y-187855D02*
X66145D01*
Y-205571D01*
X83861D01*
Y-187855D01*
G54D11*
G01X7528Y-199547D02*
Y-191453D01*
G01X7628Y-204053D02*
Y-212147D01*
G01X7428Y-188947D02*
Y-180853D01*
G01X7228Y-177847D02*
Y-169753D01*
G01X24400Y-124900D02*
X24800Y-124850D01*
X25150Y-124650D01*
X25450Y-124350D01*
X25650Y-124000D01*
X25750Y-123600D01*
Y-123200D01*
X25650Y-122800D01*
X25450Y-122450D01*
X25150Y-122150D01*
X24800Y-121950D01*
X24400Y-121900D01*
X24000Y-121950D01*
X23650Y-122150D01*
X23350Y-122450D01*
X23150Y-122800D01*
X23050Y-123200D01*
Y-123600D01*
X23150Y-124000D01*
X23350Y-124350D01*
X23650Y-124650D01*
X24000Y-124850D01*
X24400Y-124900D01*
G01X22550D02*
Y-121900D01*
X20250Y-124900D01*
Y-121900D01*
G01X19300Y-125000D02*
X17500Y-121900D01*
G01X15400Y-124900D02*
X15800Y-124850D01*
X16150Y-124650D01*
X16450Y-124350D01*
X16650Y-124000D01*
X16750Y-123600D01*
Y-123200D01*
X16650Y-122800D01*
X16450Y-122450D01*
X16150Y-122150D01*
X15800Y-121950D01*
X15400Y-121900D01*
X15000Y-121950D01*
X14650Y-122150D01*
X14350Y-122450D01*
X14150Y-122800D01*
X14050Y-123200D01*
Y-123600D01*
X14150Y-124000D01*
X14350Y-124350D01*
X14650Y-124650D01*
X15000Y-124850D01*
X15400Y-124900D01*
G01X13350D02*
Y-121900D01*
X11450D01*
G01X12150Y-123350D02*
X13350D01*
G01X10350Y-124900D02*
Y-121900D01*
X8450D01*
G01X9150Y-123350D02*
X10350D01*
G01X15100Y-112600D02*
X14100D01*
Y-113500D01*
X14400Y-113800D01*
X14750Y-114000D01*
X15250Y-114100D01*
X15750Y-114000D01*
X16100Y-113800D01*
X16400Y-113500D01*
X16600Y-113150D01*
X16700Y-112750D01*
Y-112400D01*
X16600Y-112100D01*
X16400Y-111750D01*
X16100Y-111450D01*
X15800Y-111250D01*
X15400Y-111100D01*
X15050D01*
X14650Y-111200D01*
X14350Y-111400D01*
G01X13400Y-114100D02*
Y-111100D01*
X12200D01*
X11800Y-111250D01*
X11500Y-111600D01*
X11400Y-112000D01*
X11500Y-112400D01*
X11750Y-112700D01*
X12200Y-112850D01*
X13400D01*
G01X10450Y-113700D02*
X10050Y-113950D01*
X9600Y-114100D01*
X9200D01*
X8800Y-113950D01*
X8500Y-113700D01*
X8350Y-113350D01*
X8450Y-113000D01*
X8700Y-112700D01*
X9150Y-112500D01*
X9750Y-112400D01*
X10100Y-112200D01*
X10250Y-111850D01*
X10150Y-111500D01*
X9900Y-111250D01*
X9550Y-111100D01*
X9200D01*
X8850Y-111200D01*
X8550Y-111450D01*
G01X17300Y-106350D02*
X17600Y-106200D01*
X17950Y-106100D01*
X18350D01*
X18800Y-106250D01*
X19150Y-106500D01*
X19400Y-106800D01*
X19600Y-107300D01*
X19650Y-107750D01*
X19550Y-108200D01*
X19400Y-108500D01*
X19100Y-108800D01*
X18750Y-109000D01*
X18400Y-109100D01*
X18050D01*
X17700Y-109000D01*
X17400Y-108850D01*
X17150Y-108650D01*
G01X16450Y-109100D02*
Y-106100D01*
G01X14350D02*
Y-109100D01*
G01Y-107600D02*
X16450D01*
G01X13400Y-109100D02*
Y-106100D01*
X12150D01*
X11750Y-106250D01*
X11500Y-106450D01*
X11400Y-106850D01*
X11500Y-107250D01*
X11800Y-107500D01*
X12150Y-107650D01*
X13400D01*
G01X12150D02*
X11400Y-109100D01*
G01X9100Y-107600D02*
X8100D01*
Y-108500D01*
X8400Y-108800D01*
X8750Y-109000D01*
X9250Y-109100D01*
X9750Y-109000D01*
X10100Y-108800D01*
X10400Y-108500D01*
X10600Y-108150D01*
X10700Y-107750D01*
Y-107400D01*
X10600Y-107100D01*
X10400Y-106750D01*
X10100Y-106450D01*
X9800Y-106250D01*
X9400Y-106100D01*
X9050D01*
X8650Y-106200D01*
X8350Y-106400D01*
G01X16500Y-116200D02*
Y-118350D01*
X16300Y-118800D01*
X15900Y-119100D01*
X15400Y-119200D01*
X14900Y-119100D01*
X14500Y-118800D01*
X14300Y-118350D01*
Y-116200D01*
G01X13450Y-118800D02*
X13050Y-119050D01*
X12600Y-119200D01*
X12200D01*
X11800Y-119050D01*
X11500Y-118800D01*
X11350Y-118450D01*
X11450Y-118100D01*
X11700Y-117800D01*
X12150Y-117600D01*
X12750Y-117500D01*
X13100Y-117300D01*
X13250Y-116950D01*
X13150Y-116600D01*
X12900Y-116350D01*
X12550Y-116200D01*
X12200D01*
X11850Y-116300D01*
X11550Y-116550D01*
G01X9000Y-117600D02*
X8800Y-117450D01*
X8650Y-117200D01*
X8550Y-116850D01*
X8650Y-116550D01*
X8850Y-116350D01*
X9200Y-116200D01*
X10550D01*
Y-119200D01*
X8900D01*
X8550Y-119000D01*
X8350Y-118700D01*
X8250Y-118350D01*
X8350Y-118000D01*
X8650Y-117700D01*
X9000Y-117600D01*
X10550D01*
G01X25250Y-103000D02*
X24850Y-103250D01*
X24400Y-103400D01*
X24000D01*
X23600Y-103250D01*
X23300Y-103000D01*
X23150Y-102650D01*
X23250Y-102300D01*
X23500Y-102000D01*
X23950Y-101800D01*
X24550Y-101700D01*
X24900Y-101500D01*
X25050Y-101150D01*
X24950Y-100800D01*
X24700Y-100550D01*
X24350Y-100400D01*
X24000D01*
X23650Y-100500D01*
X23350Y-100750D01*
G01X21200Y-100400D02*
Y-103400D01*
G01X22350Y-100400D02*
X20050D01*
G01X19450Y-103400D02*
X18200Y-100400D01*
X16950Y-103400D01*
G01X17400Y-102350D02*
X19000D01*
G01X15200Y-100400D02*
Y-103400D01*
G01X16350Y-100400D02*
X14050D01*
G01X13300D02*
Y-102550D01*
X13100Y-103000D01*
X12700Y-103300D01*
X12200Y-103400D01*
X11700Y-103300D01*
X11300Y-103000D01*
X11100Y-102550D01*
Y-100400D01*
G01X10250Y-103000D02*
X9850Y-103250D01*
X9400Y-103400D01*
X9000D01*
X8600Y-103250D01*
X8300Y-103000D01*
X8150Y-102650D01*
X8250Y-102300D01*
X8500Y-102000D01*
X8950Y-101800D01*
X9550Y-101700D01*
X9900Y-101500D01*
X10050Y-101150D01*
X9950Y-100800D01*
X9700Y-100550D01*
X9350Y-100400D01*
X9000D01*
X8650Y-100500D01*
X8350Y-100750D01*
G01X38100Y-226300D02*
X37900Y-226150D01*
X37750Y-225900D01*
X37650Y-225550D01*
X37750Y-225250D01*
X37950Y-225050D01*
X38300Y-224900D01*
X39650D01*
Y-227900D01*
X38000D01*
X37650Y-227700D01*
X37450Y-227400D01*
X37350Y-227050D01*
X37450Y-226700D01*
X37750Y-226400D01*
X38100Y-226300D01*
X39650D01*
G01X36750Y-227900D02*
X35500Y-224900D01*
X34250Y-227900D01*
G01X34700Y-226850D02*
X36300D01*
G01X32500Y-224900D02*
Y-227900D01*
G01X33650Y-224900D02*
X31350D01*
G01X29500D02*
Y-227900D01*
G01X30650Y-224900D02*
X28350D01*
G01X25500Y-227900D02*
X27500D01*
Y-224900D01*
X25500D01*
G01X26300Y-226350D02*
X27500D01*
G01X24500Y-227900D02*
Y-224900D01*
X23250D01*
X22850Y-225050D01*
X22600Y-225250D01*
X22500Y-225650D01*
X22600Y-226050D01*
X22900Y-226300D01*
X23250Y-226450D01*
X24500D01*
G01X23250D02*
X22500Y-227900D01*
G01X20500D02*
Y-226550D01*
X21500Y-224900D01*
G01X19500D02*
X20500Y-226550D01*
G01X12472Y-199547D02*
Y-191453D01*
G01X12572Y-204053D02*
Y-212147D01*
G01X12372Y-188947D02*
Y-180853D01*
G01X12172Y-177847D02*
Y-169753D01*
G01X29594Y-163144D02*
X14806D01*
G01X29594Y-154656D02*
X14806D01*
G01X14100Y-142700D02*
Y-140600D01*
G01D02*
X13300Y-139800D01*
G01D02*
X14100Y-139000D01*
G01D02*
Y-136500D01*
G01D02*
X27500D01*
G01Y-142700D02*
X14100D01*
G01X29350Y-231500D02*
X30550D01*
G01X29900Y-230850D02*
Y-232150D01*
G01X28400Y-221300D02*
X31400D01*
G01X51794Y-159944D02*
X37006D01*
G01X51794Y-151456D02*
X37006D01*
G01X36200Y-148000D02*
Y-145900D01*
G01D02*
X35400Y-145100D01*
G01D02*
X36200Y-144300D01*
G01D02*
Y-141800D01*
G01X49600Y-148000D02*
X36200D01*
G01X27500Y-136500D02*
Y-138800D01*
G01D02*
X28450Y-139750D01*
G01D02*
X27500Y-140700D01*
G01D02*
Y-142700D01*
G01X36200Y-141800D02*
X49600D01*
G01X58572Y-204947D02*
Y-196853D01*
G01X53628Y-204947D02*
Y-196853D01*
G01X61853Y-172528D02*
X69947D01*
G01X61853Y-177472D02*
X69947D01*
G01Y-161672D02*
X61853D01*
G01X69947Y-168172D02*
X61853D01*
G01X69947Y-163228D02*
X61853D01*
G01X69947Y-156728D02*
X61853D01*
G01X70131Y-147255D02*
X60069D01*
G01X49600Y-141800D02*
Y-144100D01*
G01D02*
X50550Y-145050D01*
G01D02*
X49600Y-146000D01*
G01D02*
Y-148000D01*
G01X70361Y-133963D02*
X62267D01*
G01X70361Y-129019D02*
X62267D01*
G01X70361Y-128137D02*
X62267D01*
G01X70131Y-140145D02*
X60069D01*
G01X70361Y-123193D02*
X62267D01*
G01X59872Y-109553D02*
Y-117647D01*
G01X54928Y-109553D02*
Y-117647D01*
G01X91700Y-52400D02*
X90700D01*
Y-53300D01*
X91000Y-53600D01*
X91350Y-53800D01*
X91850Y-53900D01*
X92350Y-53800D01*
X92700Y-53600D01*
X93000Y-53300D01*
X93200Y-52950D01*
X93300Y-52550D01*
Y-52200D01*
X93200Y-51900D01*
X93000Y-51550D01*
X92700Y-51250D01*
X92400Y-51050D01*
X92000Y-50900D01*
X91650D01*
X91250Y-51000D01*
X90950Y-51200D01*
G01X90000Y-53900D02*
Y-50900D01*
X88800D01*
X88400Y-51050D01*
X88100Y-51400D01*
X88000Y-51800D01*
X88100Y-52200D01*
X88350Y-52500D01*
X88800Y-52650D01*
X90000D01*
G01X87050Y-53500D02*
X86650Y-53750D01*
X86200Y-53900D01*
X85800D01*
X85400Y-53750D01*
X85100Y-53500D01*
X84950Y-53150D01*
X85050Y-52800D01*
X85300Y-52500D01*
X85750Y-52300D01*
X86350Y-52200D01*
X86700Y-52000D01*
X86850Y-51650D01*
X86750Y-51300D01*
X86500Y-51050D01*
X86150Y-50900D01*
X85800D01*
X85450Y-51000D01*
X85150Y-51250D01*
G01X81250Y-53900D02*
X80000Y-50900D01*
X78750Y-53900D01*
G01X79200Y-52850D02*
X80800D01*
G01X78150Y-53900D02*
Y-50900D01*
X75850Y-53900D01*
Y-50900D01*
G01X74000D02*
Y-53900D01*
G01X75150Y-50900D02*
X72850D01*
G01X70000Y-53900D02*
X72000D01*
Y-50900D01*
X70000D01*
G01X70800Y-52350D02*
X72000D01*
G01X69150Y-53900D02*
Y-50900D01*
X66850Y-53900D01*
Y-50900D01*
G01X66150Y-53900D02*
Y-50900D01*
X63850Y-53900D01*
Y-50900D01*
G01X63250Y-53900D02*
X62000Y-50900D01*
X60750Y-53900D01*
G01X61200Y-52850D02*
X62800D01*
G01X94947Y-200572D02*
X86853D01*
G01X91872Y-184553D02*
Y-192647D01*
G01X86928Y-184553D02*
Y-192647D01*
G01X94947Y-195628D02*
X86853D01*
G01X88028Y-106053D02*
Y-114147D01*
G01X92972Y-106053D02*
Y-114147D01*
G01X101002Y-232024D02*
X104102D01*
Y-231065D01*
X103947Y-230759D01*
X103740Y-230567D01*
X103327Y-230490D01*
X102914Y-230567D01*
X102655Y-230797D01*
X102500Y-231065D01*
Y-232024D01*
G01Y-231065D02*
X101002Y-230490D01*
G01X101622Y-229200D02*
X101260Y-228970D01*
X101054Y-228664D01*
X101002Y-228319D01*
X101054Y-228012D01*
X101312Y-227705D01*
X101622Y-227514D01*
X101932Y-227475D01*
X102294Y-227552D01*
X102552Y-227820D01*
X102655Y-228089D01*
Y-228434D01*
G01Y-228089D02*
X102810Y-227859D01*
X103069Y-227667D01*
X103379Y-227590D01*
X103689Y-227667D01*
X103947Y-227859D01*
X104102Y-228204D01*
X104050Y-228549D01*
X103844Y-228894D01*
G01X101002Y-225457D02*
X101054Y-225189D01*
X101209Y-224882D01*
X101467Y-224690D01*
X101829Y-224614D01*
X102190Y-224690D01*
X102500Y-224920D01*
X102655Y-225265D01*
Y-225649D01*
X102759Y-225879D01*
X103017Y-226070D01*
X103379Y-226147D01*
X103740Y-226032D01*
X103999Y-225764D01*
X104102Y-225457D01*
X103999Y-225150D01*
X103740Y-224882D01*
X103379Y-224767D01*
X103017Y-224844D01*
X102759Y-225035D01*
X102655Y-225265D01*
Y-225649D01*
X102500Y-225994D01*
X102190Y-226224D01*
X101829Y-226300D01*
X101467Y-226224D01*
X101209Y-226032D01*
X101054Y-225725D01*
X101002Y-225457D01*
G01X108602Y-232224D02*
X111702D01*
Y-231265D01*
X111547Y-230959D01*
X111340Y-230767D01*
X110927Y-230690D01*
X110514Y-230767D01*
X110255Y-230997D01*
X110100Y-231265D01*
Y-232224D01*
G01Y-231265D02*
X108602Y-230690D01*
G01X109222Y-229400D02*
X108860Y-229170D01*
X108654Y-228864D01*
X108602Y-228519D01*
X108654Y-228212D01*
X108912Y-227905D01*
X109222Y-227714D01*
X109532Y-227675D01*
X109894Y-227752D01*
X110152Y-228020D01*
X110255Y-228289D01*
Y-228634D01*
G01Y-228289D02*
X110410Y-228059D01*
X110669Y-227867D01*
X110979Y-227790D01*
X111289Y-227867D01*
X111547Y-228059D01*
X111702Y-228404D01*
X111650Y-228749D01*
X111444Y-229094D01*
G01X108602Y-225734D02*
X109274Y-225657D01*
X109842Y-225542D01*
X110359Y-225389D01*
X110927Y-225197D01*
X111702Y-224890D01*
Y-226424D01*
G01X98545Y-223331D02*
Y-213269D01*
G01X105655Y-223331D02*
Y-213269D01*
G01X106945Y-223431D02*
Y-213369D01*
G01X114055Y-223431D02*
Y-213369D01*
G01X140872Y-208547D02*
Y-200453D01*
G01X135928Y-208547D02*
Y-200453D01*
G54D12*
G01X29550Y-205900D02*
X37050D01*
G01D02*
Y-165900D01*
G01X29550D02*
Y-205900D01*
G01X37050Y-203400D02*
X29550D01*
G01X37050Y-165900D02*
X29550D01*
G54D13*
G01X138968Y-181242D02*
Y-186124D01*
X138299Y-186793D01*
X95701D01*
X95032Y-186124D01*
Y-181242D01*
G54D14*
G01X72397Y-177316D02*
Y-172816D01*
X82097D01*
X82597Y-173316D01*
Y-176816D01*
X81997Y-177416D01*
X72497D01*
X72397Y-177316D01*
G01Y-161568D02*
Y-157068D01*
X82097D01*
X82597Y-157568D01*
Y-161068D01*
X81997Y-161668D01*
X72497D01*
X72397Y-161568D01*
G01X82403Y-141380D02*
Y-145880D01*
X72703D01*
X72203Y-145380D01*
Y-141880D01*
X72803Y-141280D01*
X82303D01*
X82403Y-141380D01*
G01X72303Y-133809D02*
Y-129309D01*
X82003D01*
X82503Y-129809D01*
Y-133309D01*
X81903Y-133909D01*
X72403D01*
X72303Y-133809D01*
G01X72403Y-127972D02*
Y-123472D01*
X82103D01*
X82603Y-123972D01*
Y-127472D01*
X82003Y-128072D01*
X72503D01*
X72403Y-127972D01*
G01X97181Y-202638D02*
Y-207362D01*
X94819D01*
Y-202638D01*
X97181D01*
G54D15*
G01X142906Y-180533D02*
X87709D01*
G01X95858Y-116990D02*
X87709D01*
Y-172068D01*
G01X142906Y-168643D02*
Y-160454D01*
G01Y-156242D02*
Y-150415D01*
G01X140346Y-116990D02*
X142906D01*
Y-118250D01*
G54D16*
G01X110500Y-99600D02*
Y-105000D01*
G01X123700Y-99600D02*
Y-105000D01*
G54D17*
G01X125272Y-222405D02*
X134327D01*
G01X125272Y-210594D02*
Y-222405D01*
G01X134327Y-210594D02*
X125272D01*
G01X134327Y-222405D02*
Y-210594D01*
G01X141216D02*
X135705D01*
G54D18*
G01X16239Y-197117D02*
X16364Y-197277D01*
X16447Y-197464D01*
Y-197677D01*
X16322Y-197917D01*
X16114Y-198104D01*
X15864Y-198237D01*
X15447Y-198344D01*
X15072Y-198371D01*
X14697Y-198317D01*
X14447Y-198237D01*
X14197Y-198077D01*
X14030Y-197891D01*
X13947Y-197704D01*
Y-197517D01*
X14030Y-197331D01*
X14155Y-197171D01*
X14322Y-197037D01*
G01X14447Y-196091D02*
X14155Y-195931D01*
X13989Y-195717D01*
X13947Y-195477D01*
X13989Y-195264D01*
X14197Y-195051D01*
X14447Y-194917D01*
X14697Y-194891D01*
X14989Y-194944D01*
X15197Y-195131D01*
X15280Y-195317D01*
Y-195557D01*
G01Y-195317D02*
X15405Y-195157D01*
X15614Y-195024D01*
X15864Y-194971D01*
X16114Y-195024D01*
X16322Y-195157D01*
X16447Y-195397D01*
X16405Y-195637D01*
X16239Y-195877D01*
G01X13947Y-192984D02*
X16447D01*
X14655Y-193971D01*
Y-192637D01*
G01X13861Y-206683D02*
X13736Y-206523D01*
X13653Y-206336D01*
Y-206123D01*
X13778Y-205883D01*
X13986Y-205696D01*
X14236Y-205563D01*
X14653Y-205456D01*
X15028Y-205429D01*
X15403Y-205483D01*
X15653Y-205563D01*
X15903Y-205723D01*
X16070Y-205909D01*
X16153Y-206096D01*
Y-206283D01*
X16070Y-206469D01*
X15945Y-206629D01*
X15778Y-206763D01*
G01X15653Y-207709D02*
X15945Y-207869D01*
X16111Y-208083D01*
X16153Y-208323D01*
X16111Y-208536D01*
X15903Y-208749D01*
X15653Y-208883D01*
X15403Y-208909D01*
X15111Y-208856D01*
X14903Y-208669D01*
X14820Y-208483D01*
Y-208243D01*
G01Y-208483D02*
X14695Y-208643D01*
X14486Y-208776D01*
X14236Y-208829D01*
X13986Y-208776D01*
X13778Y-208643D01*
X13653Y-208403D01*
X13695Y-208163D01*
X13861Y-207923D01*
G01X16153Y-210443D02*
X15611Y-210496D01*
X15153Y-210576D01*
X14736Y-210683D01*
X14278Y-210816D01*
X13653Y-211029D01*
Y-209963D01*
G01X15639Y-186117D02*
X15764Y-186277D01*
X15847Y-186464D01*
Y-186677D01*
X15722Y-186917D01*
X15514Y-187104D01*
X15264Y-187237D01*
X14847Y-187344D01*
X14472Y-187371D01*
X14097Y-187317D01*
X13847Y-187237D01*
X13597Y-187077D01*
X13430Y-186891D01*
X13347Y-186704D01*
Y-186517D01*
X13430Y-186331D01*
X13555Y-186171D01*
X13722Y-186037D01*
G01X13847Y-185091D02*
X13555Y-184931D01*
X13389Y-184717D01*
X13347Y-184477D01*
X13389Y-184264D01*
X13597Y-184051D01*
X13847Y-183917D01*
X14097Y-183891D01*
X14389Y-183944D01*
X14597Y-184131D01*
X14680Y-184317D01*
Y-184557D01*
G01Y-184317D02*
X14805Y-184157D01*
X15014Y-184024D01*
X15264Y-183971D01*
X15514Y-184024D01*
X15722Y-184157D01*
X15847Y-184397D01*
X15805Y-184637D01*
X15639Y-184877D01*
G01X13722Y-182891D02*
X13514Y-182731D01*
X13389Y-182544D01*
X13347Y-182304D01*
X13430Y-182064D01*
X13597Y-181877D01*
X13889Y-181744D01*
X14222Y-181717D01*
X14555Y-181771D01*
X14764Y-181904D01*
X14930Y-182091D01*
X14972Y-182277D01*
X14930Y-182464D01*
X14764Y-182704D01*
X15847Y-182624D01*
Y-181904D01*
G01X15639Y-175617D02*
X15764Y-175777D01*
X15847Y-175964D01*
Y-176177D01*
X15722Y-176417D01*
X15514Y-176604D01*
X15264Y-176737D01*
X14847Y-176844D01*
X14472Y-176871D01*
X14097Y-176817D01*
X13847Y-176737D01*
X13597Y-176577D01*
X13430Y-176391D01*
X13347Y-176204D01*
Y-176017D01*
X13430Y-175831D01*
X13555Y-175671D01*
X13722Y-175537D01*
G01X13847Y-174591D02*
X13555Y-174431D01*
X13389Y-174217D01*
X13347Y-173977D01*
X13389Y-173764D01*
X13597Y-173551D01*
X13847Y-173417D01*
X14097Y-173391D01*
X14389Y-173444D01*
X14597Y-173631D01*
X14680Y-173817D01*
Y-174057D01*
G01Y-173817D02*
X14805Y-173657D01*
X15014Y-173524D01*
X15264Y-173471D01*
X15514Y-173524D01*
X15722Y-173657D01*
X15847Y-173897D01*
X15805Y-174137D01*
X15639Y-174377D01*
G01X14389Y-172311D02*
X14680Y-172124D01*
X14847Y-171964D01*
X14930Y-171751D01*
X14847Y-171564D01*
X14680Y-171431D01*
X14430Y-171324D01*
X14139Y-171297D01*
X13889Y-171324D01*
X13639Y-171431D01*
X13430Y-171591D01*
X13347Y-171777D01*
X13430Y-171991D01*
X13680Y-172177D01*
X14055Y-172284D01*
X14472Y-172311D01*
X15014Y-172257D01*
X15305Y-172177D01*
X15597Y-172044D01*
X15805Y-171857D01*
X15847Y-171671D01*
X15764Y-171484D01*
X15555Y-171351D01*
G01X24054Y-153228D02*
Y-150728D01*
X23388D01*
X23174Y-150853D01*
X23041Y-151020D01*
X22988Y-151353D01*
X23041Y-151686D01*
X23201Y-151895D01*
X23388Y-152020D01*
X24054D01*
G01X23388D02*
X22988Y-153228D01*
G01X21908Y-152728D02*
X21748Y-153020D01*
X21534Y-153186D01*
X21294Y-153228D01*
X21081Y-153186D01*
X20868Y-152978D01*
X20734Y-152728D01*
X20708Y-152478D01*
X20761Y-152186D01*
X20948Y-151978D01*
X21134Y-151895D01*
X21374D01*
G01X21134D02*
X20974Y-151770D01*
X20841Y-151561D01*
X20788Y-151311D01*
X20841Y-151061D01*
X20974Y-150853D01*
X21214Y-150728D01*
X21454Y-150770D01*
X21694Y-150936D01*
G01X18801Y-153228D02*
Y-150728D01*
X19788Y-152520D01*
X18454D01*
G01X22137Y-135100D02*
Y-132600D01*
X21603D01*
X21390Y-132725D01*
X21230Y-132892D01*
X21097Y-133142D01*
X20990Y-133433D01*
X20963Y-133850D01*
X20990Y-134267D01*
X21097Y-134558D01*
X21230Y-134808D01*
X21390Y-134975D01*
X21603Y-135100D01*
X22137D01*
G01X19350D02*
X19163Y-135058D01*
X18950Y-134933D01*
X18817Y-134725D01*
X18763Y-134433D01*
X18817Y-134142D01*
X18977Y-133892D01*
X19217Y-133767D01*
X19483D01*
X19643Y-133683D01*
X19777Y-133475D01*
X19830Y-133183D01*
X19750Y-132892D01*
X19563Y-132683D01*
X19350Y-132600D01*
X19137Y-132683D01*
X18950Y-132892D01*
X18870Y-133183D01*
X18923Y-133475D01*
X19057Y-133683D01*
X19217Y-133767D01*
X19483D01*
X19723Y-133892D01*
X19883Y-134142D01*
X19937Y-134433D01*
X19883Y-134725D01*
X19750Y-134933D01*
X19537Y-135058D01*
X19350Y-135100D01*
G01X34500Y-211887D02*
X32708D01*
X32333Y-211780D01*
X32083Y-211567D01*
X32000Y-211300D01*
X32083Y-211033D01*
X32333Y-210820D01*
X32708Y-210713D01*
X34500D01*
G01X32000Y-209153D02*
X32542Y-209100D01*
X33000Y-209020D01*
X33417Y-208913D01*
X33875Y-208780D01*
X34500Y-208567D01*
Y-209633D01*
G01X47254Y-163928D02*
Y-161428D01*
X46588D01*
X46374Y-161553D01*
X46241Y-161720D01*
X46188Y-162053D01*
X46241Y-162386D01*
X46401Y-162595D01*
X46588Y-162720D01*
X47254D01*
G01X46588D02*
X46188Y-163928D01*
G01X45108Y-163428D02*
X44948Y-163720D01*
X44734Y-163886D01*
X44494Y-163928D01*
X44281Y-163886D01*
X44068Y-163678D01*
X43934Y-163428D01*
X43908Y-163178D01*
X43961Y-162886D01*
X44148Y-162678D01*
X44334Y-162595D01*
X44574D01*
G01X44334D02*
X44174Y-162470D01*
X44041Y-162261D01*
X43988Y-162011D01*
X44041Y-161761D01*
X44174Y-161553D01*
X44414Y-161428D01*
X44654Y-161470D01*
X44894Y-161636D01*
G01X42908Y-163553D02*
X42748Y-163761D01*
X42561Y-163886D01*
X42321Y-163928D01*
X42081Y-163845D01*
X41894Y-163678D01*
X41761Y-163386D01*
X41734Y-163053D01*
X41788Y-162720D01*
X41921Y-162511D01*
X42108Y-162345D01*
X42294Y-162303D01*
X42481Y-162345D01*
X42721Y-162511D01*
X42641Y-161428D01*
X41921D01*
G01X44237Y-140000D02*
Y-137500D01*
X43703D01*
X43490Y-137625D01*
X43330Y-137792D01*
X43197Y-138042D01*
X43090Y-138333D01*
X43063Y-138750D01*
X43090Y-139167D01*
X43197Y-139458D01*
X43330Y-139708D01*
X43490Y-139875D01*
X43703Y-140000D01*
X44237D01*
G01X41903Y-139708D02*
X41717Y-139917D01*
X41503Y-140000D01*
X41290Y-139917D01*
X41103Y-139667D01*
X40970Y-139292D01*
X40917Y-138917D01*
Y-138458D01*
X40970Y-138083D01*
X41103Y-137750D01*
X41263Y-137583D01*
X41450Y-137500D01*
X41663Y-137583D01*
X41823Y-137750D01*
X41930Y-138000D01*
X41983Y-138333D01*
X41930Y-138625D01*
X41797Y-138917D01*
X41637Y-139083D01*
X41450Y-139125D01*
X41237Y-139042D01*
X41077Y-138833D01*
X40917Y-138458D01*
G01X61939Y-202517D02*
X62064Y-202677D01*
X62147Y-202864D01*
Y-203077D01*
X62022Y-203317D01*
X61814Y-203504D01*
X61564Y-203637D01*
X61147Y-203744D01*
X60772Y-203771D01*
X60397Y-203717D01*
X60147Y-203637D01*
X59897Y-203477D01*
X59730Y-203291D01*
X59647Y-203104D01*
Y-202917D01*
X59730Y-202731D01*
X59855Y-202571D01*
X60022Y-202437D01*
G01X60147Y-201491D02*
X59855Y-201331D01*
X59689Y-201117D01*
X59647Y-200877D01*
X59689Y-200664D01*
X59897Y-200451D01*
X60147Y-200317D01*
X60397Y-200291D01*
X60689Y-200344D01*
X60897Y-200531D01*
X60980Y-200717D01*
Y-200957D01*
G01Y-200717D02*
X61105Y-200557D01*
X61314Y-200424D01*
X61564Y-200371D01*
X61814Y-200424D01*
X62022Y-200557D01*
X62147Y-200797D01*
X62105Y-201037D01*
X61939Y-201277D01*
G01X61730Y-199211D02*
X61980Y-199051D01*
X62105Y-198864D01*
X62147Y-198651D01*
X62064Y-198384D01*
X61855Y-198197D01*
X61605Y-198144D01*
X61355Y-198171D01*
X61147Y-198277D01*
X60730Y-198811D01*
X60439Y-199051D01*
X60022Y-199211D01*
X59647Y-199264D01*
Y-198144D01*
G01X55263Y-173447D02*
Y-175947D01*
X55929D01*
X56143Y-175822D01*
X56276Y-175655D01*
X56329Y-175322D01*
X56276Y-174989D01*
X56116Y-174780D01*
X55929Y-174655D01*
X55263D01*
G01X55929D02*
X56329Y-173447D01*
G01X57996D02*
Y-175947D01*
X57676Y-175447D01*
G01Y-173447D02*
X58316D01*
G01X59743Y-173739D02*
X59929Y-173530D01*
X60143Y-173447D01*
X60356Y-173530D01*
X60543Y-173780D01*
X60676Y-174155D01*
X60729Y-174530D01*
Y-174989D01*
X60676Y-175364D01*
X60543Y-175697D01*
X60383Y-175864D01*
X60196Y-175947D01*
X59983Y-175864D01*
X59823Y-175697D01*
X59716Y-175447D01*
X59663Y-175114D01*
X59716Y-174822D01*
X59849Y-174530D01*
X60009Y-174364D01*
X60196Y-174322D01*
X60409Y-174405D01*
X60569Y-174614D01*
X60729Y-174989D01*
G01X60837Y-166653D02*
Y-164153D01*
X60171D01*
X59957Y-164278D01*
X59824Y-164445D01*
X59771Y-164778D01*
X59824Y-165111D01*
X59984Y-165320D01*
X60171Y-165445D01*
X60837D01*
G01X60171D02*
X59771Y-166653D01*
G01X58104D02*
Y-164153D01*
X58424Y-164653D01*
G01Y-166653D02*
X57784D01*
G01X55584D02*
Y-164153D01*
X56571Y-165945D01*
X55237D01*
G01X67890Y-150498D02*
Y-147998D01*
X67224D01*
X67010Y-148123D01*
X66877Y-148290D01*
X66824Y-148623D01*
X66877Y-148956D01*
X67037Y-149165D01*
X67224Y-149290D01*
X67890D01*
G01X67224D02*
X66824Y-150498D01*
G01X65744Y-149998D02*
X65584Y-150290D01*
X65370Y-150456D01*
X65130Y-150498D01*
X64917Y-150456D01*
X64704Y-150248D01*
X64570Y-149998D01*
X64544Y-149748D01*
X64597Y-149456D01*
X64784Y-149248D01*
X64970Y-149165D01*
X65210D01*
G01X64970D02*
X64810Y-149040D01*
X64677Y-148831D01*
X64624Y-148581D01*
X64677Y-148331D01*
X64810Y-148123D01*
X65050Y-147998D01*
X65290Y-148040D01*
X65530Y-148206D01*
G01X63544Y-149998D02*
X63384Y-150290D01*
X63170Y-150456D01*
X62930Y-150498D01*
X62717Y-150456D01*
X62504Y-150248D01*
X62370Y-149998D01*
X62344Y-149748D01*
X62397Y-149456D01*
X62584Y-149248D01*
X62770Y-149165D01*
X63010D01*
G01X62770D02*
X62610Y-149040D01*
X62477Y-148831D01*
X62424Y-148581D01*
X62477Y-148331D01*
X62610Y-148123D01*
X62850Y-147998D01*
X63090Y-148040D01*
X63330Y-148206D01*
G01X53853Y-109729D02*
X50753D01*
Y-110688D01*
X50908Y-110994D01*
X51115Y-111186D01*
X51528Y-111263D01*
X51941Y-111186D01*
X52200Y-110956D01*
X52355Y-110688D01*
Y-109729D01*
G01Y-110688D02*
X53853Y-111263D01*
G01X53233Y-112753D02*
X53595Y-112983D01*
X53801Y-113289D01*
X53853Y-113634D01*
X53801Y-113941D01*
X53543Y-114248D01*
X53233Y-114439D01*
X52923Y-114478D01*
X52561Y-114401D01*
X52303Y-114133D01*
X52200Y-113864D01*
Y-113519D01*
G01Y-113864D02*
X52045Y-114094D01*
X51786Y-114286D01*
X51476Y-114363D01*
X51166Y-114286D01*
X50908Y-114094D01*
X50753Y-113749D01*
X50805Y-113404D01*
X51011Y-113059D01*
G01X52561Y-115968D02*
X52200Y-116236D01*
X51993Y-116466D01*
X51890Y-116773D01*
X51993Y-117041D01*
X52200Y-117233D01*
X52510Y-117386D01*
X52871Y-117424D01*
X53181Y-117386D01*
X53491Y-117233D01*
X53750Y-117003D01*
X53853Y-116734D01*
X53750Y-116428D01*
X53440Y-116159D01*
X52975Y-116006D01*
X52458Y-115968D01*
X51786Y-116044D01*
X51425Y-116159D01*
X51063Y-116351D01*
X50805Y-116619D01*
X50753Y-116888D01*
X50856Y-117156D01*
X51115Y-117348D01*
G01X76763Y-186426D02*
X76550Y-186634D01*
X76310Y-186760D01*
X76096D01*
X75883Y-186634D01*
X75723Y-186426D01*
X75643Y-186134D01*
X75696Y-185843D01*
X75830Y-185593D01*
X76070Y-185426D01*
X76390Y-185343D01*
X76576Y-185176D01*
X76656Y-184884D01*
X76603Y-184593D01*
X76470Y-184384D01*
X76283Y-184260D01*
X76096D01*
X75910Y-184343D01*
X75750Y-184551D01*
G01X74003Y-186760D02*
Y-184260D01*
X74323Y-184760D01*
G01Y-186760D02*
X73683D01*
G01X75410Y-169366D02*
Y-171866D01*
X75944D01*
X76157Y-171741D01*
X76317Y-171574D01*
X76450Y-171324D01*
X76557Y-171033D01*
X76584Y-170616D01*
X76557Y-170199D01*
X76450Y-169908D01*
X76317Y-169658D01*
X76157Y-169491D01*
X75944Y-169366D01*
X75410D01*
G01X78517D02*
Y-171866D01*
X77530Y-170074D01*
X78864D01*
G01X75510Y-153318D02*
Y-155818D01*
X76044D01*
X76257Y-155693D01*
X76417Y-155526D01*
X76550Y-155276D01*
X76657Y-154985D01*
X76684Y-154568D01*
X76657Y-154151D01*
X76550Y-153860D01*
X76417Y-153610D01*
X76257Y-153443D01*
X76044Y-153318D01*
X75510D01*
G01X77710Y-153818D02*
X77870Y-153526D01*
X78084Y-153360D01*
X78324Y-153318D01*
X78537Y-153360D01*
X78750Y-153568D01*
X78884Y-153818D01*
X78910Y-154068D01*
X78857Y-154360D01*
X78670Y-154568D01*
X78484Y-154651D01*
X78244D01*
G01X78484D02*
X78644Y-154776D01*
X78777Y-154985D01*
X78830Y-155235D01*
X78777Y-155485D01*
X78644Y-155693D01*
X78404Y-155818D01*
X78164Y-155776D01*
X77924Y-155610D01*
G01X78690Y-149630D02*
Y-147130D01*
X78156D01*
X77943Y-147255D01*
X77783Y-147422D01*
X77650Y-147672D01*
X77543Y-147963D01*
X77516Y-148380D01*
X77543Y-148797D01*
X77650Y-149088D01*
X77783Y-149338D01*
X77943Y-149505D01*
X78156Y-149630D01*
X78690D01*
G01X75956D02*
X75903Y-149088D01*
X75823Y-148630D01*
X75716Y-148213D01*
X75583Y-147755D01*
X75370Y-147130D01*
X76436D01*
G01X68437Y-156053D02*
Y-153553D01*
X67771D01*
X67557Y-153678D01*
X67424Y-153845D01*
X67371Y-154178D01*
X67424Y-154511D01*
X67584Y-154720D01*
X67771Y-154845D01*
X68437D01*
G01X67771D02*
X67371Y-156053D01*
G01X65704D02*
Y-153553D01*
X66024Y-154053D01*
G01Y-156053D02*
X65384D01*
G01X64091Y-155553D02*
X63931Y-155845D01*
X63717Y-156011D01*
X63477Y-156053D01*
X63264Y-156011D01*
X63051Y-155803D01*
X62917Y-155553D01*
X62891Y-155303D01*
X62944Y-155011D01*
X63131Y-154803D01*
X63317Y-154720D01*
X63557D01*
G01X63317D02*
X63157Y-154595D01*
X63024Y-154386D01*
X62971Y-154136D01*
X63024Y-153886D01*
X63157Y-153678D01*
X63397Y-153553D01*
X63637Y-153595D01*
X63877Y-153761D01*
G01X75516Y-135059D02*
Y-137559D01*
X76050D01*
X76263Y-137434D01*
X76423Y-137267D01*
X76556Y-137017D01*
X76663Y-136726D01*
X76690Y-136309D01*
X76663Y-135892D01*
X76556Y-135601D01*
X76423Y-135351D01*
X76263Y-135184D01*
X76050Y-135059D01*
X75516D01*
G01X78303D02*
Y-137559D01*
X77983Y-137059D01*
G01Y-135059D02*
X78623D01*
G01X67851Y-137244D02*
Y-134744D01*
X67185D01*
X66971Y-134869D01*
X66838Y-135036D01*
X66785Y-135369D01*
X66838Y-135702D01*
X66998Y-135911D01*
X67185Y-136036D01*
X67851D01*
G01X67185D02*
X66785Y-137244D01*
G01X65118D02*
Y-134744D01*
X65438Y-135244D01*
G01Y-137244D02*
X64798D01*
G01X75316Y-120222D02*
Y-122722D01*
X75850D01*
X76063Y-122597D01*
X76223Y-122430D01*
X76356Y-122180D01*
X76463Y-121889D01*
X76490Y-121472D01*
X76463Y-121055D01*
X76356Y-120764D01*
X76223Y-120514D01*
X76063Y-120347D01*
X75850Y-120222D01*
X75316D01*
G01X77596Y-122305D02*
X77756Y-122555D01*
X77943Y-122680D01*
X78156Y-122722D01*
X78423Y-122639D01*
X78610Y-122430D01*
X78663Y-122180D01*
X78636Y-121930D01*
X78530Y-121722D01*
X77996Y-121305D01*
X77756Y-121014D01*
X77596Y-120597D01*
X77543Y-120222D01*
X78663D01*
G01X67951Y-122318D02*
Y-119818D01*
X67285D01*
X67071Y-119943D01*
X66938Y-120110D01*
X66885Y-120443D01*
X66938Y-120776D01*
X67098Y-120985D01*
X67285Y-121110D01*
X67951D01*
G01X67285D02*
X66885Y-122318D01*
G01X65805Y-121818D02*
X65645Y-122110D01*
X65431Y-122276D01*
X65191Y-122318D01*
X64978Y-122276D01*
X64765Y-122068D01*
X64631Y-121818D01*
X64605Y-121568D01*
X64658Y-121276D01*
X64845Y-121068D01*
X65031Y-120985D01*
X65271D01*
G01X65031D02*
X64871Y-120860D01*
X64738Y-120651D01*
X64685Y-120401D01*
X64738Y-120151D01*
X64871Y-119943D01*
X65111Y-119818D01*
X65351Y-119860D01*
X65591Y-120026D01*
G01X76768Y-99363D02*
Y-96863D01*
X76235D01*
X76022Y-96988D01*
X75862Y-97154D01*
X75728Y-97404D01*
X75622Y-97696D01*
X75595Y-98113D01*
X75622Y-98530D01*
X75728Y-98821D01*
X75862Y-99071D01*
X76022Y-99238D01*
X76235Y-99363D01*
X76768D01*
G01X74568Y-98988D02*
X74408Y-99196D01*
X74222Y-99321D01*
X73982Y-99363D01*
X73742Y-99280D01*
X73555Y-99113D01*
X73422Y-98821D01*
X73395Y-98488D01*
X73448Y-98154D01*
X73582Y-97946D01*
X73768Y-97780D01*
X73955Y-97738D01*
X74142Y-97780D01*
X74382Y-97946D01*
X74302Y-96863D01*
X73582D01*
G01X100017Y-196961D02*
X100177Y-196836D01*
X100364Y-196753D01*
X100577D01*
X100817Y-196878D01*
X101004Y-197086D01*
X101137Y-197336D01*
X101244Y-197753D01*
X101271Y-198128D01*
X101217Y-198503D01*
X101137Y-198753D01*
X100977Y-199003D01*
X100791Y-199170D01*
X100604Y-199253D01*
X100417D01*
X100231Y-199170D01*
X100071Y-199045D01*
X99937Y-198878D01*
G01X98991Y-198753D02*
X98831Y-199045D01*
X98617Y-199211D01*
X98377Y-199253D01*
X98164Y-199211D01*
X97951Y-199003D01*
X97817Y-198753D01*
X97791Y-198503D01*
X97844Y-198211D01*
X98031Y-198003D01*
X98217Y-197920D01*
X98457D01*
G01X98217D02*
X98057Y-197795D01*
X97924Y-197586D01*
X97871Y-197336D01*
X97924Y-197086D01*
X98057Y-196878D01*
X98297Y-196753D01*
X98537Y-196795D01*
X98777Y-196961D01*
G01X96204Y-199253D02*
X96017Y-199211D01*
X95804Y-199086D01*
X95671Y-198878D01*
X95617Y-198586D01*
X95671Y-198295D01*
X95831Y-198045D01*
X96071Y-197920D01*
X96337D01*
X96497Y-197836D01*
X96631Y-197628D01*
X96684Y-197336D01*
X96604Y-197045D01*
X96417Y-196836D01*
X96204Y-196753D01*
X95991Y-196836D01*
X95804Y-197045D01*
X95724Y-197336D01*
X95777Y-197628D01*
X95911Y-197836D01*
X96071Y-197920D01*
X96337D01*
X96577Y-198045D01*
X96737Y-198295D01*
X96791Y-198586D01*
X96737Y-198878D01*
X96604Y-199086D01*
X96391Y-199211D01*
X96204Y-199253D01*
G01X99080Y-208700D02*
Y-210492D01*
X98973Y-210867D01*
X98760Y-211117D01*
X98493Y-211200D01*
X98226Y-211117D01*
X98013Y-210867D01*
X97906Y-210492D01*
Y-208700D01*
G01X96293Y-211200D02*
Y-208700D01*
X96613Y-209200D01*
G01Y-211200D02*
X95973D01*
G01X94093D02*
Y-208700D01*
X94413Y-209200D01*
G01Y-211200D02*
X93773D01*
G01X95253Y-188463D02*
X92753D01*
Y-189129D01*
X92878Y-189343D01*
X93045Y-189476D01*
X93378Y-189529D01*
X93711Y-189476D01*
X93920Y-189316D01*
X94045Y-189129D01*
Y-188463D01*
G01Y-189129D02*
X95253Y-189529D01*
G01X94961Y-190743D02*
X95170Y-190929D01*
X95253Y-191143D01*
X95170Y-191356D01*
X94920Y-191543D01*
X94545Y-191676D01*
X94170Y-191729D01*
X93711D01*
X93336Y-191676D01*
X93003Y-191543D01*
X92836Y-191383D01*
X92753Y-191196D01*
X92836Y-190983D01*
X93003Y-190823D01*
X93253Y-190716D01*
X93586Y-190663D01*
X93878Y-190716D01*
X94170Y-190849D01*
X94336Y-191009D01*
X94378Y-191196D01*
X94295Y-191409D01*
X94086Y-191569D01*
X93711Y-191729D01*
G01X84161Y-108383D02*
X84036Y-108223D01*
X83953Y-108036D01*
Y-107823D01*
X84078Y-107583D01*
X84286Y-107396D01*
X84536Y-107263D01*
X84953Y-107156D01*
X85328Y-107129D01*
X85703Y-107183D01*
X85953Y-107263D01*
X86203Y-107423D01*
X86370Y-107609D01*
X86453Y-107796D01*
Y-107983D01*
X86370Y-108169D01*
X86245Y-108329D01*
X86078Y-108463D01*
G01X85953Y-109409D02*
X86245Y-109569D01*
X86411Y-109783D01*
X86453Y-110023D01*
X86411Y-110236D01*
X86203Y-110449D01*
X85953Y-110583D01*
X85703Y-110609D01*
X85411Y-110556D01*
X85203Y-110369D01*
X85120Y-110183D01*
Y-109943D01*
G01Y-110183D02*
X84995Y-110343D01*
X84786Y-110476D01*
X84536Y-110529D01*
X84286Y-110476D01*
X84078Y-110343D01*
X83953Y-110103D01*
X83995Y-109863D01*
X84161Y-109623D01*
G01X85953Y-111609D02*
X86245Y-111769D01*
X86411Y-111983D01*
X86453Y-112223D01*
X86411Y-112436D01*
X86203Y-112649D01*
X85953Y-112783D01*
X85703Y-112809D01*
X85411Y-112756D01*
X85203Y-112569D01*
X85120Y-112383D01*
Y-112143D01*
G01Y-112383D02*
X84995Y-112543D01*
X84786Y-112676D01*
X84536Y-112729D01*
X84286Y-112676D01*
X84078Y-112543D01*
X83953Y-112303D01*
X83995Y-112063D01*
X84161Y-111823D01*
G01X87609Y-100467D02*
X87482Y-100383D01*
Y-100217D01*
X87609Y-100133D01*
X87737Y-100217D01*
Y-100383D01*
X87609Y-100467D01*
G01X124238Y-184567D02*
X124023Y-184777D01*
X123781Y-184903D01*
X123566D01*
X123350Y-184777D01*
X123189Y-184567D01*
X123108Y-184273D01*
X123162Y-183979D01*
X123297Y-183727D01*
X123539Y-183559D01*
X123862Y-183475D01*
X124050Y-183307D01*
X124131Y-183013D01*
X124077Y-182719D01*
X123942Y-182509D01*
X123754Y-182383D01*
X123566D01*
X123377Y-182467D01*
X123216Y-182677D01*
G01X122060Y-184903D02*
Y-182383D01*
X121522D01*
X121307Y-182509D01*
X121146Y-182677D01*
X121011Y-182929D01*
X120903Y-183223D01*
X120877Y-183643D01*
X120903Y-184063D01*
X121011Y-184357D01*
X121146Y-184609D01*
X121307Y-184777D01*
X121522Y-184903D01*
X122060D01*
G01X116467Y-182593D02*
X116628Y-182467D01*
X116817Y-182383D01*
X117032D01*
X117274Y-182509D01*
X117462Y-182719D01*
X117597Y-182971D01*
X117705Y-183391D01*
X117731Y-183769D01*
X117678Y-184147D01*
X117597Y-184399D01*
X117435Y-184651D01*
X117247Y-184819D01*
X117059Y-184903D01*
X116870D01*
X116682Y-184819D01*
X116521Y-184693D01*
X116386Y-184525D01*
G01X115527Y-184903D02*
X114854Y-182383D01*
X114181Y-184903D01*
G01X114424Y-184021D02*
X115285D01*
G01X113187Y-184903D02*
Y-182383D01*
X112515D01*
X112300Y-182509D01*
X112165Y-182677D01*
X112111Y-183013D01*
X112165Y-183349D01*
X112326Y-183559D01*
X112515Y-183685D01*
X113187D01*
G01X112515D02*
X112111Y-184903D01*
G01X111036D02*
Y-182383D01*
X110498D01*
X110283Y-182509D01*
X110122Y-182677D01*
X109987Y-182929D01*
X109879Y-183223D01*
X109853Y-183643D01*
X109879Y-184063D01*
X109987Y-184357D01*
X110122Y-184609D01*
X110283Y-184777D01*
X110498Y-184903D01*
X111036D01*
G01X106900Y-100414D02*
X108692D01*
X109067Y-100521D01*
X109317Y-100734D01*
X109400Y-101001D01*
X109317Y-101268D01*
X109067Y-101481D01*
X108692Y-101588D01*
X106900D01*
G01X109400Y-103201D02*
X109358Y-103388D01*
X109233Y-103601D01*
X109025Y-103734D01*
X108733Y-103788D01*
X108442Y-103734D01*
X108192Y-103574D01*
X108067Y-103334D01*
Y-103068D01*
X107983Y-102908D01*
X107775Y-102774D01*
X107483Y-102721D01*
X107192Y-102801D01*
X106983Y-102987D01*
X106900Y-103201D01*
X106983Y-103414D01*
X107192Y-103601D01*
X107483Y-103681D01*
X107775Y-103627D01*
X107983Y-103494D01*
X108067Y-103334D01*
Y-103068D01*
X108192Y-102828D01*
X108442Y-102668D01*
X108733Y-102614D01*
X109025Y-102668D01*
X109233Y-102801D01*
X109358Y-103014D01*
X109400Y-103201D01*
G01X131786Y-225499D02*
Y-227291D01*
X131679Y-227666D01*
X131466Y-227916D01*
X131199Y-227999D01*
X130932Y-227916D01*
X130719Y-227666D01*
X130612Y-227291D01*
Y-225499D01*
G01X128999Y-227999D02*
Y-225499D01*
X129319Y-225999D01*
G01Y-227999D02*
X128679D01*
G01X126799Y-225499D02*
X127013Y-225582D01*
X127172Y-225791D01*
X127279Y-226041D01*
X127359Y-226374D01*
X127386Y-226749D01*
X127359Y-227124D01*
X127279Y-227458D01*
X127172Y-227708D01*
X127013Y-227916D01*
X126799Y-227999D01*
X126586Y-227916D01*
X126426Y-227708D01*
X126319Y-227458D01*
X126239Y-227124D01*
X126212Y-226749D01*
X126239Y-226374D01*
X126319Y-226041D01*
X126426Y-225791D01*
X126586Y-225582D01*
X126799Y-225499D01*
G01X144739Y-206117D02*
X144864Y-206277D01*
X144947Y-206464D01*
Y-206677D01*
X144822Y-206917D01*
X144614Y-207104D01*
X144364Y-207237D01*
X143947Y-207344D01*
X143572Y-207371D01*
X143197Y-207317D01*
X142947Y-207237D01*
X142697Y-207077D01*
X142530Y-206891D01*
X142447Y-206704D01*
Y-206517D01*
X142530Y-206331D01*
X142655Y-206171D01*
X142822Y-206037D01*
G01X142447Y-204184D02*
X144947D01*
X143155Y-205171D01*
Y-203837D01*
G01X144947Y-202304D02*
X144864Y-202517D01*
X144655Y-202677D01*
X144405Y-202784D01*
X144072Y-202864D01*
X143697Y-202891D01*
X143322Y-202864D01*
X142989Y-202784D01*
X142739Y-202677D01*
X142530Y-202517D01*
X142447Y-202304D01*
X142530Y-202091D01*
X142739Y-201931D01*
X142989Y-201824D01*
X143322Y-201744D01*
X143697Y-201717D01*
X144072Y-201744D01*
X144405Y-201824D01*
X144655Y-201931D01*
X144864Y-202091D01*
X144947Y-202304D01*
G01X137781Y-184590D02*
X137647Y-184840D01*
X137487Y-185006D01*
X137300Y-185090D01*
X137087Y-185006D01*
X136927Y-184840D01*
X136767Y-184590D01*
X136714Y-184256D01*
Y-182590D01*
G01X135554Y-183006D02*
X135394Y-182756D01*
X135207Y-182632D01*
X134994Y-182590D01*
X134727Y-182673D01*
X134540Y-182882D01*
X134487Y-183131D01*
X134514Y-183382D01*
X134621Y-183590D01*
X135154Y-184006D01*
X135394Y-184298D01*
X135554Y-184715D01*
X135607Y-185090D01*
X134487D01*
M02*
