G04 ================== begin FILE IDENTIFICATION RECORD ==================*
G04 Layout Name:  EPTS_PERFANL_B_V0_2.brd*
G04 Film Name:    PERFANL-B-V0-2-PMT*
G04 File Format:  Gerber RS274X*
G04 File Origin:  Cadence Allegro 17.2-P019*
G04 Origin Date:  Sun Jun 30 20:04:02 2019*
G04 *
G04 Layer:  BOARD GEOMETRY/PASTEMASK_TOP*
G04 Layer:  PACKAGE GEOMETRY/PASTEMASK_TOP*
G04 Layer:  PIN/PASTEMASK_TOP*
G04 Layer:  VIA CLASS/PASTEMASK_TOP*
G04 *
G04 Offset:    (0.000 0.000)*
G04 Mirror:    No*
G04 Mode:      Positive*
G04 Rotation:  0*
G04 FullContactRelief:  No*
G04 UndefLineWidth:     1.000*
G04 ================== end FILE IDENTIFICATION RECORD ====================*
%FSLAX25Y25*MOIN*%
%IR0*IPPOS*OFA0.00000B0.00000*MIA0B0*SFA1.00000B1.00000*%
%AMMACRO32*
4,1,40,-.01378,-.02815,
-.01378,.02815,
-.013758,.02839,
-.013694,.028623,
-.013591,.028842,
-.013452,.029039,
-.01328,.029208,
-.013082,.029346,
-.012862,.029447,
-.012629,.029508,
-.012402,.029528,
.012402,.029528,
.012642,.029506,
.012875,.029442,
.013094,.029339,
.013291,.0292,
.01346,.029028,
.013598,.02883,
.013699,.02861,
.01376,.028377,
.01378,.02815,
.01378,-.02815,
.013758,-.02839,
.013694,-.028623,
.013591,-.028842,
.013452,-.029039,
.01328,-.029208,
.013082,-.029346,
.012862,-.029447,
.012629,-.029508,
.012402,-.029528,
-.012402,-.029528,
-.012642,-.029506,
-.012875,-.029442,
-.013094,-.029339,
-.013291,-.0292,
-.01346,-.029028,
-.013598,-.02883,
-.013699,-.02861,
-.01376,-.028377,
-.01378,-.02815,
0.0*
%
%ADD32MACRO32*%
%AMMACRO25*
4,1,40,-.02815,.01378,
.02815,.01378,
.02839,.013758,
.028623,.013694,
.028842,.013591,
.029039,.013452,
.029208,.01328,
.029346,.013082,
.029447,.012862,
.029508,.012629,
.029528,.012402,
.029528,-.012402,
.029506,-.012642,
.029442,-.012875,
.029339,-.013094,
.0292,-.013291,
.029028,-.01346,
.02883,-.013598,
.02861,-.013699,
.028377,-.01376,
.02815,-.01378,
-.02815,-.01378,
-.02839,-.013758,
-.028623,-.013694,
-.028842,-.013591,
-.029039,-.013452,
-.029208,-.01328,
-.029346,-.013082,
-.029447,-.012862,
-.029508,-.012629,
-.029528,-.012402,
-.029528,.012402,
-.029506,.012642,
-.029442,.012875,
-.029339,.013094,
-.0292,.013291,
-.029028,.01346,
-.02883,.013598,
-.02861,.013699,
-.028377,.01376,
-.02815,.01378,
0.0*
%
%ADD25MACRO25*%
%AMMACRO12*
4,1,44,.005118,.01437,
.005118,-.01437,
.00508,-.014814,
.004966,-.015244,
.004778,-.015648,
.004524,-.016013,
.00421,-.016328,
.003846,-.016584,
.003442,-.016773,
.003013,-.016889,
.002569,-.016929,
.002559,-.016929,
-.002559,-.016929,
-.003003,-.016891,
-.003433,-.016777,
-.003837,-.016589,
-.004202,-.016335,
-.004517,-.016021,
-.004773,-.015657,
-.004962,-.015253,
-.005078,-.014824,
-.005118,-.01438,
-.005118,-.01437,
-.005118,.01437,
-.00508,.014814,
-.004966,.015244,
-.004778,.015648,
-.004524,.016013,
-.00421,.016328,
-.003846,.016584,
-.003442,.016773,
-.003013,.016889,
-.002569,.016929,
-.002559,.016929,
.002559,.016929,
.003003,.016891,
.003433,.016777,
.003837,.016589,
.004202,.016335,
.004517,.016021,
.004773,.015657,
.004962,.015253,
.005078,.014824,
.005118,.01438,
.005118,.01437,
0.0*
%
%ADD12MACRO12*%
%ADD22O,.011X.07*%
%ADD20O,.07X.011*%
%ADD19R,.125984X.088583*%
%ADD15R,.108X.103*%
%ADD23R,.011X.07*%
%ADD37R,.05X.04*%
%ADD21R,.07X.011*%
%ADD24R,.034X.04*%
%ADD29R,.034X.05*%
%ADD38O,.022X.078*%
%ADD14R,.033X.028*%
%ADD11R,.028X.033*%
%ADD13R,.053X.037*%
%ADD10R,.037X.053*%
%ADD33R,.059X.063*%
%AMMACRO26*
4,1,44,-.027559,.019685,
.027559,.019685,
.0279,.019656,
.028231,.019569,
.028541,.019425,
.028822,.01923,
.029065,.018989,
.029262,.018709,
.029407,.0184,
.029497,.018069,
.029528,.017729,
.029528,.017717,
.029528,-.017717,
.029499,-.018058,
.029411,-.018389,
.029268,-.018699,
.029072,-.01898,
.028831,-.019222,
.028551,-.019419,
.028242,-.019565,
.027911,-.019654,
.027571,-.019685,
.027559,-.019685,
-.027559,-.019685,
-.0279,-.019656,
-.028231,-.019569,
-.028541,-.019425,
-.028822,-.01923,
-.029065,-.018989,
-.029262,-.018709,
-.029407,-.0184,
-.029497,-.018069,
-.029528,-.017729,
-.029528,-.017717,
-.029528,.017717,
-.029499,.018058,
-.029411,.018389,
-.029268,.018699,
-.029072,.01898,
-.028831,.019222,
-.028551,.019419,
-.028242,.019565,
-.027911,.019654,
-.027571,.019685,
-.027559,.019685,
0.0*
%
%ADD26MACRO26*%
%ADD30O,.011811X.035433*%
%ADD31O,.035433X.011811*%
%ADD36R,.01378X.011811*%
%ADD39R,.011811X.01378*%
%ADD16R,.023228X.062205*%
%ADD35R,.037402X.041732*%
%ADD18R,.031496X.011811*%
%ADD17R,.011811X.031496*%
%ADD27R,.059055X.061024*%
%ADD34R,.055118X.035433*%
%ADD28R,.015748X.05315*%
%ADD40R,.03937X.062992*%
%ADD41C,.000004*%
G75*
%LPD*%
G75*
G36*
G01X16454Y-190804D02*
Y-192891D01*
X13265D01*
Y-190804D01*
X16454D01*
G37*
G36*
G01Y-188009D02*
Y-190096D01*
X13265D01*
Y-188009D01*
X16454D01*
G37*
G36*
G01X9368Y-192891D02*
X12557D01*
Y-190804D01*
X9368D01*
Y-192891D01*
G37*
G36*
G01Y-190096D02*
X12557D01*
Y-188009D01*
X9368D01*
Y-190096D01*
G37*
G36*
G01X18912Y-129702D02*
X23363D01*
Y-126512D01*
X18912D01*
Y-129702D01*
G37*
G36*
G01X13439Y-129705D02*
X17888D01*
Y-126512D01*
X13439D01*
Y-129705D01*
G37*
G36*
G01X18912Y-125488D02*
X23365D01*
Y-122299D01*
X18912D01*
Y-125488D01*
G37*
G36*
G01X13439Y-125487D02*
X17887D01*
Y-122299D01*
X13439D01*
Y-125487D01*
G37*
G36*
G01X60121Y-231849D02*
Y-232636D01*
G03X59136Y-233620I0J-984D01*
G01Y-236180D01*
G03X60121Y-237164I984J0D01*
G01Y-237951D01*
G02X58152Y-235983I-1J1968D01*
G01Y-233817D01*
G02X60121Y-231849I1968J1D01*
G37*
G36*
G01D02*
Y-232636D01*
G02X61105Y-233620I0J-984D01*
G01Y-236180D01*
G02X60121Y-237164I-984J0D01*
G01Y-237951D01*
X64845D01*
Y-231849D01*
X60121D01*
G37*
G36*
G01X87680Y-237951D02*
Y-237164D01*
G03X88664Y-236180I0J984D01*
G01Y-233620D01*
G03X87680Y-232636I-984J0D01*
G01Y-231849D01*
G02X89648Y-233817I1J-1968D01*
G01Y-235983D01*
G02X87680Y-237951I-1968J-1D01*
G37*
G36*
G01D02*
Y-237164D01*
G02X86695Y-236180I0J984D01*
G01Y-233620D01*
G02X87680Y-232636I984J0D01*
G01Y-231849D01*
X82955D01*
Y-237951D01*
X87680D01*
G37*
G54D10*
X9440Y-210072D03*
X6629Y-152200D03*
X15582Y-210072D03*
X12771Y-152200D03*
X42229Y-56900D03*
X42129Y-48700D03*
X48371Y-56900D03*
X48271Y-48700D03*
X76471Y-203900D03*
X70329D03*
X82629Y-202200D03*
X88771D03*
X107129Y-38700D03*
X113271D03*
G54D11*
X9452Y-203898D03*
X8552Y-177739D03*
X8641Y-171400D03*
X8741Y-165200D03*
Y-159400D03*
X8241Y-144900D03*
X7341Y-93900D03*
X14570Y-203898D03*
X13670Y-177739D03*
X25641Y-185500D03*
Y-180800D03*
X13759Y-171400D03*
X13859Y-165200D03*
Y-159400D03*
X25641Y-176200D03*
Y-171300D03*
Y-166600D03*
Y-161800D03*
X26259Y-143900D03*
X21141D03*
X13359Y-144900D03*
X25641Y-156300D03*
X25341Y-151600D03*
X17941Y-107300D03*
X23059D03*
X23259Y-101100D03*
X18141D03*
X12459Y-93900D03*
X30759Y-185500D03*
Y-180800D03*
Y-176200D03*
Y-171300D03*
Y-166600D03*
Y-161800D03*
Y-156300D03*
X30459Y-151600D03*
X56741Y-117000D03*
X61859D03*
X67741D03*
X72859D03*
X78641Y-66300D03*
X83759D03*
X118241Y-220700D03*
X115141Y-192200D03*
X117041Y-91300D03*
X102041Y-31000D03*
X107159D03*
X123359Y-220700D03*
X120259Y-192200D03*
X122159Y-91300D03*
X131241Y-74500D03*
X136359D03*
G54D20*
X43181Y-184913D03*
Y-182943D03*
Y-180973D03*
Y-179003D03*
Y-177033D03*
Y-175063D03*
Y-173093D03*
Y-171123D03*
Y-169153D03*
Y-167183D03*
Y-163243D03*
Y-161273D03*
Y-159303D03*
Y-157333D03*
Y-155363D03*
Y-153393D03*
Y-151423D03*
Y-149453D03*
Y-147483D03*
Y-143543D03*
Y-141573D03*
Y-139603D03*
Y-137633D03*
X106461Y-179003D03*
Y-180973D03*
Y-182943D03*
Y-184913D03*
Y-161273D03*
Y-163243D03*
Y-165213D03*
Y-167183D03*
Y-169153D03*
Y-171123D03*
Y-173093D03*
Y-175063D03*
Y-143543D03*
Y-145513D03*
Y-147483D03*
Y-149453D03*
Y-151423D03*
Y-153393D03*
Y-155363D03*
Y-159303D03*
Y-137633D03*
Y-139603D03*
Y-141573D03*
G54D30*
X72834Y-76968D03*
X74803D03*
X76772D03*
Y-88386D03*
X74803D03*
X72834D03*
G54D21*
X43181Y-165213D03*
Y-145513D03*
X106461Y-177033D03*
Y-157333D03*
G54D12*
X8974Y-196100D03*
Y-184800D03*
X16848Y-196100D03*
X14879D03*
X12911D03*
X10942D03*
Y-184800D03*
X12911D03*
X14879D03*
X16848D03*
G54D40*
X138200Y-219000D03*
Y-199000D03*
G54D31*
X80512Y-78740D03*
Y-80708D03*
Y-82677D03*
Y-84646D03*
Y-86614D03*
X69094D03*
Y-84646D03*
Y-82677D03*
Y-80708D03*
Y-78740D03*
G54D13*
X11400Y-107271D03*
Y-101129D03*
X101100Y-24971D03*
Y-18829D03*
X109200Y-120771D03*
Y-114629D03*
X123800Y-120871D03*
Y-114729D03*
X139300Y-120771D03*
Y-114629D03*
G54D22*
X63001Y-192913D03*
X61031D03*
X59061D03*
X57091D03*
X55121D03*
X53151D03*
X51181Y-129633D03*
X53151D03*
X55121D03*
X57091D03*
X59061D03*
X63001D03*
X80731Y-192913D03*
X78761D03*
X76791D03*
X74821D03*
X72851D03*
X70881D03*
X66941D03*
X64971D03*
Y-129633D03*
X66941D03*
X68911D03*
X70881D03*
X72851D03*
X74821D03*
X76791D03*
X78761D03*
X98461Y-192913D03*
X96491D03*
X94521D03*
X92551D03*
X90581D03*
X86641D03*
X84671D03*
X82701D03*
Y-129633D03*
X84671D03*
X86641D03*
X88611D03*
X90581D03*
X92551D03*
X94521D03*
X96491D03*
X98461D03*
G54D41*
G01X60121Y-231868D02*
Y-232538D01*
G01X87680Y-237932D02*
Y-237262D01*
G54D14*
X11100Y-76941D03*
Y-82059D03*
X25600Y-196259D03*
X18500Y-177959D03*
X25600Y-191141D03*
X18500Y-172841D03*
X17700Y-88959D03*
Y-83841D03*
X31600Y-196259D03*
Y-191141D03*
X47400Y-86059D03*
Y-80941D03*
X54300Y-85959D03*
Y-80841D03*
X61300Y-85859D03*
Y-80741D03*
X100200Y-231259D03*
Y-226141D03*
X97900Y-202741D03*
Y-207859D03*
X88500Y-85459D03*
Y-80341D03*
X106000Y-231459D03*
Y-226341D03*
X104100Y-202741D03*
Y-207859D03*
X117500Y-125559D03*
Y-120441D03*
X101700Y-115141D03*
Y-120259D03*
X108300Y-24359D03*
Y-19241D03*
X130200Y-219759D03*
Y-214641D03*
X123900Y-206159D03*
Y-201041D03*
X131900Y-115141D03*
Y-120259D03*
X130200Y-85459D03*
Y-80341D03*
X123700Y-23141D03*
Y-28259D03*
X142400Y-174759D03*
Y-169641D03*
X136400Y-85559D03*
Y-80441D03*
G54D23*
X51181Y-192913D03*
X61031Y-129633D03*
X68911Y-192913D03*
X80731Y-129633D03*
X88611Y-192913D03*
G54D32*
X78034Y-58080D03*
X74097D03*
X70160D03*
X66223D03*
X81971D03*
G54D33*
X99640Y-220200D03*
X111120D03*
G54D24*
X61900Y-110600D03*
X69300D03*
X101700Y-106800D03*
X109100D03*
X117300D03*
X124700D03*
X131900D03*
X139300D03*
G54D15*
X27200Y-232700D03*
Y-214200D03*
G54D34*
X114960Y-234842D03*
Y-229724D03*
X129134Y-234842D03*
Y-229724D03*
G54D16*
X25900Y-136335D03*
X20900D03*
X15900D03*
X10900D03*
Y-115665D03*
X15900D03*
X20900D03*
X25900D03*
G54D25*
X56774Y-56505D03*
Y-52568D03*
Y-48631D03*
Y-44694D03*
Y-40757D03*
Y-36820D03*
Y-32883D03*
Y-28946D03*
Y-25009D03*
Y-21072D03*
Y-17135D03*
Y-13198D03*
X91420Y-56505D03*
Y-36820D03*
Y-40757D03*
Y-44694D03*
Y-48631D03*
Y-52568D03*
Y-25009D03*
Y-28946D03*
Y-32883D03*
Y-21072D03*
Y-13198D03*
Y-17135D03*
G54D17*
X27560Y-89664D03*
Y-75688D03*
X35434Y-89664D03*
X33465D03*
X31497D03*
X29528D03*
Y-75688D03*
X31497D03*
X33465D03*
X35434D03*
G54D35*
X111850Y-201169D03*
Y-209831D03*
X118150Y-201169D03*
Y-209831D03*
G54D26*
X56774Y-8671D03*
X91420D03*
G54D27*
X77837Y-234900D03*
X69963D03*
G54D18*
X24509Y-88582D03*
Y-86613D03*
Y-84645D03*
Y-82676D03*
Y-80708D03*
Y-78739D03*
Y-76771D03*
X38485D03*
Y-78739D03*
Y-80708D03*
Y-82676D03*
Y-84645D03*
Y-86613D03*
Y-88582D03*
G54D36*
X115158Y-85629D03*
Y-83660D03*
Y-81692D03*
Y-79724D03*
X121063D03*
Y-81692D03*
Y-83660D03*
Y-85629D03*
G54D28*
X79018Y-224270D03*
X76459D03*
X73900D03*
X71341D03*
X68782D03*
G54D37*
X116000Y-23100D03*
Y-31100D03*
G54D19*
X45600Y-233183D03*
Y-206017D03*
G54D38*
X130200Y-182300D03*
X125200D03*
X120200D03*
Y-162900D03*
X125200D03*
X130200D03*
X135200Y-182300D03*
Y-162900D03*
G54D29*
X65600Y-102700D03*
X105400Y-98900D03*
X121000D03*
X135600D03*
G54D39*
X117127Y-79724D03*
X119095D03*
Y-85629D03*
X117127D03*
M02*
